<svg width="1600" height="799" xmlns="http://www.w3.org/2000/svg"><g><path d="M-143,-22L-172,98L22,166Z" fill="#db3232" stroke="#db3232" fill-opacity="1" stroke-opacity="1"/><path d="M-143,-22L22,166L88,-77Z" fill="#de0e2a" stroke="#de0e2a" fill-opacity="1" stroke-opacity="1"/><path d="M88,-77L22,166L251,-27Z" fill="#e72c3d" stroke="#e72c3d" fill-opacity="1" stroke-opacity="1"/><path d="M88,-77L251,-27L410,-95Z" fill="#eb4136" stroke="#eb4136" fill-opacity="1" stroke-opacity="1"/><path d="M88,-77L410,-95L774,-169Z" fill="#ee6054" stroke="#ee6054" fill-opacity="1" stroke-opacity="1"/><path d="M251,-27L22,166L271,178Z" fill="#ee7066" stroke="#ee7066" fill-opacity="1" stroke-opacity="1"/><path d="M251,-27L271,178L395,178Z" fill="#f7937a" stroke="#f7937a" fill-opacity="1" stroke-opacity="1"/><path d="M251,-27L395,178L410,-95Z" fill="#f46261" stroke="#f46261" fill-opacity="1" stroke-opacity="1"/><path d="M410,-95L395,178L585,25Z" fill="#f57b7b" stroke="#f57b7b" fill-opacity="1" stroke-opacity="1"/><path d="M410,-95L585,25L660,-17Z" fill="#f27074" stroke="#f27074" fill-opacity="1" stroke-opacity="1"/><path d="M410,-95L660,-17L774,-169Z" fill="#f07977" stroke="#f07977" fill-opacity="1" stroke-opacity="1"/><path d="M660,-17L585,25L801,126Z" fill="#f0949e" stroke="#f0949e" fill-opacity="1" stroke-opacity="1"/><path d="M660,-17L801,126L774,-169Z" fill="#e37483" stroke="#e37483" fill-opacity="1" stroke-opacity="1"/><path d="M774,-169L801,126L972,100Z" fill="#d4778e" stroke="#d4778e" fill-opacity="1" stroke-opacity="1"/><path d="M774,-169L972,100L1061,-83Z" fill="#c46571" stroke="#c46571" fill-opacity="1" stroke-opacity="1"/><path d="M774,-169L1061,-83L1215,-133Z" fill="#b05b6b" stroke="#b05b6b" fill-opacity="1" stroke-opacity="1"/><path d="M774,-169L1215,-133L1718,-133Z" fill="#7f3f5b" stroke="#7f3f5b" fill-opacity="1" stroke-opacity="1"/><path d="M1061,-83L972,100L1196,62Z" fill="#a96383" stroke="#a96383" fill-opacity="1" stroke-opacity="1"/><path d="M1061,-83L1196,62L1215,-133Z" fill="#944961" stroke="#944961" fill-opacity="1" stroke-opacity="1"/><path d="M1215,-133L1196,62L1291,-109Z" fill="#833f5c" stroke="#833f5c" fill-opacity="1" stroke-opacity="1"/><path d="M1215,-133L1291,-109L1529,-99Z" fill="#743054" stroke="#743054" fill-opacity="1" stroke-opacity="1"/><path d="M1215,-133L1529,-99L1718,-133Z" fill="#731e49" stroke="#731e49" fill-opacity="1" stroke-opacity="1"/><path d="M1291,-109L1196,62L1428,178Z" fill="#7b5079" stroke="#7b5079" fill-opacity="1" stroke-opacity="1"/><path d="M1291,-109L1428,178L1529,-99Z" fill="#78275e" stroke="#78275e" fill-opacity="1" stroke-opacity="1"/><path d="M1529,-99L1428,178L1574,137Z" fill="#7c4775" stroke="#7c4775" fill-opacity="1" stroke-opacity="1"/><path d="M1529,-99L1574,137L1757,103Z" fill="#7b2964" stroke="#7b2964" fill-opacity="1" stroke-opacity="1"/><path d="M1529,-99L1757,103L1718,-133Z" fill="#770640" stroke="#770640" fill-opacity="1" stroke-opacity="1"/><path d="M1718,-133L1757,103L1800,276Z" fill="#7c3367" stroke="#7c3367" fill-opacity="1" stroke-opacity="1"/><path d="M-172,98L-170,545L-154,439Z" fill="#cf7d80" stroke="#cf7d80" fill-opacity="1" stroke-opacity="1"/><path d="M-172,98L-154,439L-135,302Z" fill="#db7973" stroke="#db7973" fill-opacity="1" stroke-opacity="1"/><path d="M-172,98L-135,302L22,166Z" fill="#df6858" stroke="#df6858" fill-opacity="1" stroke-opacity="1"/><path d="M22,166L-135,302L86,333Z" fill="#e4767e" stroke="#e4767e" fill-opacity="1" stroke-opacity="1"/><path d="M22,166L86,333L237,252Z" fill="#ec918c" stroke="#ec918c" fill-opacity="1" stroke-opacity="1"/><path d="M22,166L237,252L271,178Z" fill="#f09785" stroke="#f09785" fill-opacity="1" stroke-opacity="1"/><path d="M271,178L237,252L380,335Z" fill="#f8c1a9" stroke="#f8c1a9" fill-opacity="1" stroke-opacity="1"/><path d="M271,178L380,335L395,178Z" fill="#fac6aa" stroke="#fac6aa" fill-opacity="1" stroke-opacity="1"/><path d="M395,178L380,335L590,260Z" fill="#fad9c6" stroke="#fad9c6" fill-opacity="1" stroke-opacity="1"/><path d="M395,178L590,260L585,25Z" fill="#fbccb2" stroke="#fbccb2" fill-opacity="1" stroke-opacity="1"/><path d="M585,25L590,260L801,126Z" fill="#f7cfc0" stroke="#f7cfc0" fill-opacity="1" stroke-opacity="1"/><path d="M801,126L590,260L868,245Z" fill="#e9ded5" stroke="#e9ded5" fill-opacity="1" stroke-opacity="1"/><path d="M801,126L868,245L972,100Z" fill="#d5cabf" stroke="#d5cabf" fill-opacity="1" stroke-opacity="1"/><path d="M972,100L868,245L994,222Z" fill="#cbccc6" stroke="#cbccc6" fill-opacity="1" stroke-opacity="1"/><path d="M972,100L994,222L1196,62Z" fill="#b3a5aa" stroke="#b3a5aa" fill-opacity="1" stroke-opacity="1"/><path d="M1196,62L994,222L1197,302Z" fill="#a4b6bc" stroke="#a4b6bc" fill-opacity="1" stroke-opacity="1"/><path d="M1196,62L1197,302L1428,178Z" fill="#84a0ad" stroke="#84a0ad" fill-opacity="1" stroke-opacity="1"/><path d="M1428,178L1197,302L1412,338Z" fill="#80a7c5" stroke="#80a7c5" fill-opacity="1" stroke-opacity="1"/><path d="M1428,178L1412,338L1460,256Z" fill="#8099b9" stroke="#8099b9" fill-opacity="1" stroke-opacity="1"/><path d="M1428,178L1460,256L1574,137Z" fill="#8086a0" stroke="#8086a0" fill-opacity="1" stroke-opacity="1"/><path d="M1574,137L1460,256L1621,440Z" fill="#808db7" stroke="#808db7" fill-opacity="1" stroke-opacity="1"/><path d="M1574,137L1621,440L1800,276Z" fill="#807fb1" stroke="#807fb1" fill-opacity="1" stroke-opacity="1"/><path d="M1574,137L1800,276L1757,103Z" fill="#80658b" stroke="#80658b" fill-opacity="1" stroke-opacity="1"/><path d="M-135,302L-154,439L86,333Z" fill="#d77d85" stroke="#d77d85" fill-opacity="1" stroke-opacity="1"/><path d="M86,333L-154,439L165,406Z" fill="#d48495" stroke="#d48495" fill-opacity="1" stroke-opacity="1"/><path d="M86,333L165,406L237,252Z" fill="#eda9a9" stroke="#eda9a9" fill-opacity="1" stroke-opacity="1"/><path d="M237,252L165,406L380,335Z" fill="#f3c2b8" stroke="#f3c2b8" fill-opacity="1" stroke-opacity="1"/><path d="M380,335L165,406L302,530Z" fill="#ddc2bb" stroke="#ddc2bb" fill-opacity="1" stroke-opacity="1"/><path d="M380,335L302,530L490,514Z" fill="#d7d2ce" stroke="#d7d2ce" fill-opacity="1" stroke-opacity="1"/><path d="M380,335L490,514L590,260Z" fill="#eee5df" stroke="#eee5df" fill-opacity="1" stroke-opacity="1"/><path d="M590,260L490,514L590,511Z" fill="#dfeaec" stroke="#dfeaec" fill-opacity="1" stroke-opacity="1"/><path d="M590,260L590,511L858,426Z" fill="#e1f3fa" stroke="#e1f3fa" fill-opacity="1" stroke-opacity="1"/><path d="M590,260L858,426L868,245Z" fill="#e6eff3" stroke="#e6eff3" fill-opacity="1" stroke-opacity="1"/><path d="M868,245L858,426L962,424Z" fill="#c7e4f1" stroke="#c7e4f1" fill-opacity="1" stroke-opacity="1"/><path d="M868,245L962,424L994,222Z" fill="#cce0e8" stroke="#cce0e8" fill-opacity="1" stroke-opacity="1"/><path d="M994,222L962,424L1088,366Z" fill="#b8daeb" stroke="#b8daeb" fill-opacity="1" stroke-opacity="1"/><path d="M994,222L1088,366L1197,302Z" fill="#abcdde" stroke="#abcdde" fill-opacity="1" stroke-opacity="1"/><path d="M1197,302L1088,366L1322,621Z" fill="#77bbdd" stroke="#77bbdd" fill-opacity="1" stroke-opacity="1"/><path d="M1197,302L1322,621L1415,428Z" fill="#5facd5" stroke="#5facd5" fill-opacity="1" stroke-opacity="1"/><path d="M1197,302L1415,428L1412,338Z" fill="#77aed3" stroke="#77aed3" fill-opacity="1" stroke-opacity="1"/><path d="M1412,338L1415,428L1621,440Z" fill="#6b99c9" stroke="#6b99c9" fill-opacity="1" stroke-opacity="1"/><path d="M1412,338L1621,440L1460,256Z" fill="#799ac8" stroke="#799ac8" fill-opacity="1" stroke-opacity="1"/><path d="M1800,276L1621,440L1798,601Z" fill="#6178b7" stroke="#6178b7" fill-opacity="1" stroke-opacity="1"/><path d="M-154,439L-170,545L120,638Z" fill="#9d637d" stroke="#9d637d" fill-opacity="1" stroke-opacity="1"/><path d="M-154,439L120,638L165,406Z" fill="#b97d94" stroke="#b97d94" fill-opacity="1" stroke-opacity="1"/><path d="M165,406L120,638L301,542Z" fill="#b499a7" stroke="#b499a7" fill-opacity="1" stroke-opacity="1"/><path d="M165,406L301,542L302,530Z" fill="#c7b4b5" stroke="#c7b4b5" fill-opacity="1" stroke-opacity="1"/><path d="M302,530L301,542L490,514Z" fill="#bcbec2" stroke="#bcbec2" fill-opacity="1" stroke-opacity="1"/><path d="M490,514L301,542L517,624Z" fill="#afbeca" stroke="#afbeca" fill-opacity="1" stroke-opacity="1"/><path d="M490,514L517,624L590,511Z" fill="#b4cdde" stroke="#b4cdde" fill-opacity="1" stroke-opacity="1"/><path d="M590,511L517,624L712,587Z" fill="#aacfe8" stroke="#aacfe8" fill-opacity="1" stroke-opacity="1"/><path d="M590,511L712,587L858,426Z" fill="#bae2f4" stroke="#bae2f4" fill-opacity="1" stroke-opacity="1"/><path d="M858,426L712,587L851,554Z" fill="#a6d7ef" stroke="#a6d7ef" fill-opacity="1" stroke-opacity="1"/><path d="M858,426L851,554L962,424Z" fill="#aedef1" stroke="#aedef1" fill-opacity="1" stroke-opacity="1"/><path d="M962,424L851,554L1081,644Z" fill="#85c5e6" stroke="#85c5e6" fill-opacity="1" stroke-opacity="1"/><path d="M962,424L1081,644L1088,366Z" fill="#8ecde9" stroke="#8ecde9" fill-opacity="1" stroke-opacity="1"/><path d="M1088,366L1081,644L1322,621Z" fill="#57aad7" stroke="#57aad7" fill-opacity="1" stroke-opacity="1"/><path d="M1415,428L1322,621L1529,567Z" fill="#3d89c5" stroke="#3d89c5" fill-opacity="1" stroke-opacity="1"/><path d="M1415,428L1529,567L1552,526Z" fill="#4b89c4" stroke="#4b89c4" fill-opacity="1" stroke-opacity="1"/><path d="M1415,428L1552,526L1621,440Z" fill="#5b8fc6" stroke="#5b8fc6" fill-opacity="1" stroke-opacity="1"/><path d="M1552,526L1529,567L1798,601Z" fill="#3266b3" stroke="#3266b3" fill-opacity="1" stroke-opacity="1"/><path d="M1552,526L1798,601L1621,440Z" fill="#456fb7" stroke="#456fb7" fill-opacity="1" stroke-opacity="1"/><path d="M-170,545L-157,941L-28,888Z" fill="#5d1454" stroke="#5d1454" fill-opacity="1" stroke-opacity="1"/><path d="M-170,545L-28,888L120,638Z" fill="#64346e" stroke="#64346e" fill-opacity="1" stroke-opacity="1"/><path d="M120,638L-28,888L93,897Z" fill="#691f6b" stroke="#691f6b" fill-opacity="1" stroke-opacity="1"/><path d="M120,638L93,897L197,782Z" fill="#6e3d7c" stroke="#6e3d7c" fill-opacity="1" stroke-opacity="1"/><path d="M120,638L197,782L301,542Z" fill="#7e7497" stroke="#7e7497" fill-opacity="1" stroke-opacity="1"/><path d="M301,542L197,782L366,814Z" fill="#78779b" stroke="#78779b" fill-opacity="1" stroke-opacity="1"/><path d="M301,542L366,814L517,624Z" fill="#8399b5" stroke="#8399b5" fill-opacity="1" stroke-opacity="1"/><path d="M517,624L366,814L711,751Z" fill="#7b95c4" stroke="#7b95c4" fill-opacity="1" stroke-opacity="1"/><path d="M517,624L711,751L712,587Z" fill="#86bae2" stroke="#86bae2" fill-opacity="1" stroke-opacity="1"/><path d="M712,587L711,751L851,554Z" fill="#7eb9e1" stroke="#7eb9e1" fill-opacity="1" stroke-opacity="1"/><path d="M851,554L711,751L756,789Z" fill="#67a2d7" stroke="#67a2d7" fill-opacity="1" stroke-opacity="1"/><path d="M851,554L756,789L1003,690Z" fill="#58a1d6" stroke="#58a1d6" fill-opacity="1" stroke-opacity="1"/><path d="M851,554L1003,690L1081,644Z" fill="#5ba7d8" stroke="#5ba7d8" fill-opacity="1" stroke-opacity="1"/><path d="M1003,690L756,789L1008,863Z" fill="#4f7dc6" stroke="#4f7dc6" fill-opacity="1" stroke-opacity="1"/><path d="M1003,690L1008,863L1165,798Z" fill="#346cbd" stroke="#346cbd" fill-opacity="1" stroke-opacity="1"/><path d="M1003,690L1165,798L1081,644Z" fill="#2e80c5" stroke="#2e80c5" fill-opacity="1" stroke-opacity="1"/><path d="M1081,644L1165,798L1298,723Z" fill="#186fbd" stroke="#186fbd" fill-opacity="1" stroke-opacity="1"/><path d="M1081,644L1298,723L1322,621Z" fill="#147bc1" stroke="#147bc1" fill-opacity="1" stroke-opacity="1"/><path d="M1322,621L1298,723L1510,801Z" fill="#0058b0" stroke="#0058b0" fill-opacity="1" stroke-opacity="1"/><path d="M1322,621L1510,801L1529,567Z" fill="#075eb1" stroke="#075eb1" fill-opacity="1" stroke-opacity="1"/><path d="M1529,567L1510,801L1634,867Z" fill="#00379e" stroke="#00379e" fill-opacity="1" stroke-opacity="1"/><path d="M1529,567L1634,867L1798,601Z" fill="#013fa1" stroke="#013fa1" fill-opacity="1" stroke-opacity="1"/><path d="M1798,601L1634,867L1752,925Z" fill="#00128b" stroke="#00128b" fill-opacity="1" stroke-opacity="1"/><path d="M-28,888L-157,941L25,935Z" fill="#62004a" stroke="#62004a" fill-opacity="1" stroke-opacity="1"/><path d="M-28,888L25,935L93,897Z" fill="#670858" stroke="#670858" fill-opacity="1" stroke-opacity="1"/><path d="M93,897L25,935L204,917Z" fill="#6c1c63" stroke="#6c1c63" fill-opacity="1" stroke-opacity="1"/><path d="M93,897L204,917L197,782Z" fill="#702b72" stroke="#702b72" fill-opacity="1" stroke-opacity="1"/><path d="M197,782L204,917L366,814Z" fill="#764884" stroke="#764884" fill-opacity="1" stroke-opacity="1"/><path d="M366,814L204,917L506,1073Z" fill="#7a5888" stroke="#7a5888" fill-opacity="1" stroke-opacity="1"/><path d="M366,814L506,1073L725,905Z" fill="#7b6ea8" stroke="#7b6ea8" fill-opacity="1" stroke-opacity="1"/><path d="M366,814L725,905L711,751Z" fill="#7c81c4" stroke="#7c81c4" fill-opacity="1" stroke-opacity="1"/><path d="M711,751L725,905L756,789Z" fill="#6d81c8" stroke="#6d81c8" fill-opacity="1" stroke-opacity="1"/><path d="M756,789L725,905L1008,863Z" fill="#5e6ebf" stroke="#5e6ebf" fill-opacity="1" stroke-opacity="1"/><path d="M1008,863L725,905L981,1066Z" fill="#5267af" stroke="#5267af" fill-opacity="1" stroke-opacity="1"/><path d="M1008,863L981,1066L1253,945Z" fill="#2f53a3" stroke="#2f53a3" fill-opacity="1" stroke-opacity="1"/><path d="M1008,863L1253,945L1165,798Z" fill="#214bab" stroke="#214bab" fill-opacity="1" stroke-opacity="1"/><path d="M1165,798L1253,945L1298,723Z" fill="#0c49ab" stroke="#0c49ab" fill-opacity="1" stroke-opacity="1"/><path d="M1298,723L1253,945L1464,944Z" fill="#00319d" stroke="#00319d" fill-opacity="1" stroke-opacity="1"/><path d="M1298,723L1464,944L1510,801Z" fill="#00309d" stroke="#00309d" fill-opacity="1" stroke-opacity="1"/><path d="M1510,801L1464,944L1634,867Z" fill="#00178e" stroke="#00178e" fill-opacity="1" stroke-opacity="1"/><path d="M1634,867L1464,944L1437,1011Z" fill="#001a86" stroke="#001a86" fill-opacity="1" stroke-opacity="1"/><path d="M1634,867L1437,1011L1752,925Z" fill="#000e80" stroke="#000e80" fill-opacity="1" stroke-opacity="1"/><path d="M-157,941L506,1073L25,935Z" fill="#6d205c" stroke="#6d205c" fill-opacity="1" stroke-opacity="1"/><path d="M25,935L506,1073L204,917Z" fill="#753f6f" stroke="#753f6f" fill-opacity="1" stroke-opacity="1"/><path d="M506,1073L981,1066L694,1038Z" fill="#6e75a6" stroke="#6e75a6" fill-opacity="1" stroke-opacity="1"/><path d="M506,1073L694,1038L725,905Z" fill="#7b7cb1" stroke="#7b7cb1" fill-opacity="1" stroke-opacity="1"/><path d="M694,1038L981,1066L725,905Z" fill="#636fac" stroke="#636fac" fill-opacity="1" stroke-opacity="1"/><path d="M981,1066L1437,1011L1253,945Z" fill="#0f4091" stroke="#0f4091" fill-opacity="1" stroke-opacity="1"/><path d="M1253,945L1437,1011L1464,944Z" fill="#002b8c" stroke="#002b8c" fill-opacity="1" stroke-opacity="1"/></g></svg>