<svg width="1600" height="799" xmlns="http://www.w3.org/2000/svg"><g><path d="M-10,-163L-163,85L51,143Z" fill="#fe9a63" stroke="#fe9a63" fill-opacity="1" stroke-opacity="1"/><path d="M-10,-163L51,143L162,-99Z" fill="#fe9b5f" stroke="#fe9b5f" fill-opacity="1" stroke-opacity="1"/><path d="M-10,-163L162,-99L385,-128Z" fill="#fe9955" stroke="#fe9955" fill-opacity="1" stroke-opacity="1"/><path d="M-10,-163L385,-128L754,-154Z" fill="#ffab64" stroke="#ffab64" fill-opacity="1" stroke-opacity="1"/><path d="M162,-99L51,143L236,34Z" fill="#feaf76" stroke="#feaf76" fill-opacity="1" stroke-opacity="1"/><path d="M162,-99L236,34L274,-85Z" fill="#feab6c" stroke="#feab6c" fill-opacity="1" stroke-opacity="1"/><path d="M162,-99L274,-85L385,-128Z" fill="#ffa764" stroke="#ffa764" fill-opacity="1" stroke-opacity="1"/><path d="M274,-85L236,34L448,24Z" fill="#ffbb7e" stroke="#ffbb7e" fill-opacity="1" stroke-opacity="1"/><path d="M274,-85L448,24L385,-128Z" fill="#ffb877" stroke="#ffb877" fill-opacity="1" stroke-opacity="1"/><path d="M385,-128L448,24L705,-15Z" fill="#ffcb8a" stroke="#ffcb8a" fill-opacity="1" stroke-opacity="1"/><path d="M385,-128L705,-15L754,-154Z" fill="#f7bf80" stroke="#f7bf80" fill-opacity="1" stroke-opacity="1"/><path d="M705,-15L448,24L696,134Z" fill="#f7d7a2" stroke="#f7d7a2" fill-opacity="1" stroke-opacity="1"/><path d="M705,-15L696,134L805,23Z" fill="#eacfa5" stroke="#eacfa5" fill-opacity="1" stroke-opacity="1"/><path d="M705,-15L805,23L754,-154Z" fill="#e8be90" stroke="#e8be90" fill-opacity="1" stroke-opacity="1"/><path d="M754,-154L805,23L996,24Z" fill="#debb95" stroke="#debb95" fill-opacity="1" stroke-opacity="1"/><path d="M754,-154L996,24L1078,-114Z" fill="#d5ae8d" stroke="#d5ae8d" fill-opacity="1" stroke-opacity="1"/><path d="M754,-154L1078,-114L1195,-135Z" fill="#cea182" stroke="#cea182" fill-opacity="1" stroke-opacity="1"/><path d="M1078,-114L996,24L1234,15Z" fill="#c5ae9e" stroke="#c5ae9e" fill-opacity="1" stroke-opacity="1"/><path d="M1078,-114L1234,15L1195,-135Z" fill="#bea193" stroke="#bea193" fill-opacity="1" stroke-opacity="1"/><path d="M1195,-135L1234,15L1336,-53Z" fill="#b59f9b" stroke="#b59f9b" fill-opacity="1" stroke-opacity="1"/><path d="M1195,-135L1336,-53L1490,-11Z" fill="#ac989b" stroke="#ac989b" fill-opacity="1" stroke-opacity="1"/><path d="M1195,-135L1490,-11L1772,0Z" fill="#9d93a3" stroke="#9d93a3" fill-opacity="1" stroke-opacity="1"/><path d="M1336,-53L1234,15L1342,134Z" fill="#b0abb0" stroke="#b0abb0" fill-opacity="1" stroke-opacity="1"/><path d="M1336,-53L1342,134L1490,-11Z" fill="#a7a4b1" stroke="#a7a4b1" fill-opacity="1" stroke-opacity="1"/><path d="M1490,-11L1342,134L1536,93Z" fill="#a0a8bd" stroke="#a0a8bd" fill-opacity="1" stroke-opacity="1"/><path d="M1490,-11L1536,93L1772,0Z" fill="#9198b7" stroke="#9198b7" fill-opacity="1" stroke-opacity="1"/><path d="M1772,0L1536,93L1797,64Z" fill="#8796bf" stroke="#8796bf" fill-opacity="1" stroke-opacity="1"/><path d="M-163,85L-171,671L-122,481Z" fill="#e7af98" stroke="#e7af98" fill-opacity="1" stroke-opacity="1"/><path d="M-163,85L-122,481L-33,266Z" fill="#fcba95" stroke="#fcba95" fill-opacity="1" stroke-opacity="1"/><path d="M-163,85L-33,266L51,143Z" fill="#feb183" stroke="#feb183" fill-opacity="1" stroke-opacity="1"/><path d="M51,143L-33,266L78,285Z" fill="#fec49a" stroke="#fec49a" fill-opacity="1" stroke-opacity="1"/><path d="M51,143L78,285L236,34Z" fill="#fec191" stroke="#fec191" fill-opacity="1" stroke-opacity="1"/><path d="M236,34L78,285L274,339Z" fill="#fed4a6" stroke="#fed4a6" fill-opacity="1" stroke-opacity="1"/><path d="M236,34L274,339L370,264Z" fill="#ffddae" stroke="#ffddae" fill-opacity="1" stroke-opacity="1"/><path d="M236,34L370,264L448,24Z" fill="#ffd29c" stroke="#ffd29c" fill-opacity="1" stroke-opacity="1"/><path d="M448,24L370,264L570,220Z" fill="#ffe8b5" stroke="#ffe8b5" fill-opacity="1" stroke-opacity="1"/><path d="M448,24L570,220L696,134Z" fill="#fbe6b3" stroke="#fbe6b3" fill-opacity="1" stroke-opacity="1"/><path d="M696,134L570,220L788,254Z" fill="#f0ecc7" stroke="#f0ecc7" fill-opacity="1" stroke-opacity="1"/><path d="M696,134L788,254L805,23Z" fill="#e8dcba" stroke="#e8dcba" fill-opacity="1" stroke-opacity="1"/><path d="M805,23L788,254L977,238Z" fill="#dedcc5" stroke="#dedcc5" fill-opacity="1" stroke-opacity="1"/><path d="M805,23L977,238L996,24Z" fill="#d7ccb5" stroke="#d7ccb5" fill-opacity="1" stroke-opacity="1"/><path d="M996,24L977,238L1234,15Z" fill="#c8c3b8" stroke="#c8c3b8" fill-opacity="1" stroke-opacity="1"/><path d="M1234,15L977,238L1091,341Z" fill="#c5d2d1" stroke="#c5d2d1" fill-opacity="1" stroke-opacity="1"/><path d="M1234,15L1091,341L1342,134Z" fill="#b8c5cc" stroke="#b8c5cc" fill-opacity="1" stroke-opacity="1"/><path d="M1342,134L1091,341L1388,219Z" fill="#b3cddd" stroke="#b3cddd" fill-opacity="1" stroke-opacity="1"/><path d="M1342,134L1388,219L1536,93Z" fill="#a4b7ce" stroke="#a4b7ce" fill-opacity="1" stroke-opacity="1"/><path d="M1536,93L1388,219L1569,238Z" fill="#9cb8d8" stroke="#9cb8d8" fill-opacity="1" stroke-opacity="1"/><path d="M1536,93L1569,238L1644,220Z" fill="#93b3da" stroke="#93b3da" fill-opacity="1" stroke-opacity="1"/><path d="M1536,93L1644,220L1797,64Z" fill="#8ba5cf" stroke="#8ba5cf" fill-opacity="1" stroke-opacity="1"/><path d="M1797,64L1644,220L1782,504Z" fill="#83b6f0" stroke="#83b6f0" fill-opacity="1" stroke-opacity="1"/><path d="M1797,64L1782,504L1780,685Z" fill="#68adf9" stroke="#68adf9" fill-opacity="1" stroke-opacity="1"/><path d="M-33,266L-122,481L43,490Z" fill="#e7bba3" stroke="#e7bba3" fill-opacity="1" stroke-opacity="1"/><path d="M-33,266L43,490L78,285Z" fill="#f1c5a6" stroke="#f1c5a6" fill-opacity="1" stroke-opacity="1"/><path d="M78,285L43,490L270,419Z" fill="#eaceb2" stroke="#eaceb2" fill-opacity="1" stroke-opacity="1"/><path d="M78,285L270,419L274,339Z" fill="#f2d8b7" stroke="#f2d8b7" fill-opacity="1" stroke-opacity="1"/><path d="M274,339L270,419L370,264Z" fill="#f3e3c0" stroke="#f3e3c0" fill-opacity="1" stroke-opacity="1"/><path d="M370,264L270,419L433,509Z" fill="#ebe6c7" stroke="#ebe6c7" fill-opacity="1" stroke-opacity="1"/><path d="M370,264L433,509L625,445Z" fill="#eaf2d3" stroke="#eaf2d3" fill-opacity="1" stroke-opacity="1"/><path d="M370,264L625,445L570,220Z" fill="#f9fcd3" stroke="#f9fcd3" fill-opacity="1" stroke-opacity="1"/><path d="M570,220L625,445L788,254Z" fill="#ecf6d7" stroke="#ecf6d7" fill-opacity="1" stroke-opacity="1"/><path d="M788,254L625,445L793,418Z" fill="#daeedd" stroke="#daeedd" fill-opacity="1" stroke-opacity="1"/><path d="M788,254L793,418L980,380Z" fill="#d1e8df" stroke="#d1e8df" fill-opacity="1" stroke-opacity="1"/><path d="M788,254L980,380L977,238Z" fill="#d4e7dd" stroke="#d4e7dd" fill-opacity="1" stroke-opacity="1"/><path d="M977,238L980,380L1091,341Z" fill="#c5e0e1" stroke="#c5e0e1" fill-opacity="1" stroke-opacity="1"/><path d="M1091,341L980,380L1161,530Z" fill="#b0d7e8" stroke="#b0d7e8" fill-opacity="1" stroke-opacity="1"/><path d="M1091,341L1161,530L1427,436Z" fill="#9ecdec" stroke="#9ecdec" fill-opacity="1" stroke-opacity="1"/><path d="M1091,341L1427,436L1388,219Z" fill="#a6cee9" stroke="#a6cee9" fill-opacity="1" stroke-opacity="1"/><path d="M1388,219L1427,436L1569,238Z" fill="#9bc6ec" stroke="#9bc6ec" fill-opacity="1" stroke-opacity="1"/><path d="M1569,238L1427,436L1575,511Z" fill="#85bdf2" stroke="#85bdf2" fill-opacity="1" stroke-opacity="1"/><path d="M1569,238L1575,511L1644,220Z" fill="#89bcf1" stroke="#89bcf1" fill-opacity="1" stroke-opacity="1"/><path d="M1644,220L1575,511L1782,504Z" fill="#74b4f7" stroke="#74b4f7" fill-opacity="1" stroke-opacity="1"/><path d="M-122,481L-171,671L43,490Z" fill="#d2afa4" stroke="#d2afa4" fill-opacity="1" stroke-opacity="1"/><path d="M43,490L-171,671L-35,755Z" fill="#c4ada7" stroke="#c4ada7" fill-opacity="1" stroke-opacity="1"/><path d="M43,490L-35,755L132,606Z" fill="#c8b9b1" stroke="#c8b9b1" fill-opacity="1" stroke-opacity="1"/><path d="M43,490L132,606L270,419Z" fill="#dacab9" stroke="#dacab9" fill-opacity="1" stroke-opacity="1"/><path d="M270,419L132,606L256,680Z" fill="#d0cec1" stroke="#d0cec1" fill-opacity="1" stroke-opacity="1"/><path d="M270,419L256,680L433,509Z" fill="#d5dbcb" stroke="#d5dbcb" fill-opacity="1" stroke-opacity="1"/><path d="M433,509L256,680L440,547Z" fill="#cfded0" stroke="#cfded0" fill-opacity="1" stroke-opacity="1"/><path d="M433,509L440,547L625,445Z" fill="#dbf0da" stroke="#dbf0da" fill-opacity="1" stroke-opacity="1"/><path d="M625,445L440,547L600,665Z" fill="#d1efe0" stroke="#d1efe0" fill-opacity="1" stroke-opacity="1"/><path d="M625,445L600,665L762,663Z" fill="#c0e7e3" stroke="#c0e7e3" fill-opacity="1" stroke-opacity="1"/><path d="M625,445L762,663L793,418Z" fill="#c6e7e3" stroke="#c6e7e3" fill-opacity="1" stroke-opacity="1"/><path d="M793,418L762,663L963,719Z" fill="#acdce7" stroke="#acdce7" fill-opacity="1" stroke-opacity="1"/><path d="M793,418L963,719L980,380Z" fill="#b3dde8" stroke="#b3dde8" fill-opacity="1" stroke-opacity="1"/><path d="M980,380L963,719L1161,530Z" fill="#a1d3ec" stroke="#a1d3ec" fill-opacity="1" stroke-opacity="1"/><path d="M1161,530L963,719L1088,724Z" fill="#8ccbed" stroke="#8ccbed" fill-opacity="1" stroke-opacity="1"/><path d="M1161,530L1088,724L1131,719Z" fill="#86c8ef" stroke="#86c8ef" fill-opacity="1" stroke-opacity="1"/><path d="M1161,530L1131,719L1365,609Z" fill="#82c4f1" stroke="#82c4f1" fill-opacity="1" stroke-opacity="1"/><path d="M1161,530L1365,609L1427,436Z" fill="#86c3f3" stroke="#86c3f3" fill-opacity="1" stroke-opacity="1"/><path d="M1427,436L1365,609L1575,511Z" fill="#79bbf7" stroke="#79bbf7" fill-opacity="1" stroke-opacity="1"/><path d="M1575,511L1365,609L1493,671Z" fill="#6bb6f8" stroke="#6bb6f8" fill-opacity="1" stroke-opacity="1"/><path d="M1575,511L1493,671L1780,685Z" fill="#59acfc" stroke="#59acfc" fill-opacity="1" stroke-opacity="1"/><path d="M1575,511L1780,685L1782,504Z" fill="#58aafe" stroke="#58aafe" fill-opacity="1" stroke-opacity="1"/><path d="M-171,671L-153,961L-35,755Z" fill="#ac9ea1" stroke="#ac9ea1" fill-opacity="1" stroke-opacity="1"/><path d="M132,606L-35,755L142,787Z" fill="#b9b8b4" stroke="#b9b8b4" fill-opacity="1" stroke-opacity="1"/><path d="M132,606L142,787L256,680Z" fill="#bdc4bd" stroke="#bdc4bd" fill-opacity="1" stroke-opacity="1"/><path d="M256,680L142,787L184,815Z" fill="#b2c2bf" stroke="#b2c2bf" fill-opacity="1" stroke-opacity="1"/><path d="M256,680L184,815L402,837Z" fill="#b0cac7" stroke="#b0cac7" fill-opacity="1" stroke-opacity="1"/><path d="M256,680L402,837L440,547Z" fill="#bed8cf" stroke="#bed8cf" fill-opacity="1" stroke-opacity="1"/><path d="M440,547L402,837L600,665Z" fill="#bfe5da" stroke="#bfe5da" fill-opacity="1" stroke-opacity="1"/><path d="M600,665L402,837L676,768Z" fill="#b1e5e0" stroke="#b1e5e0" fill-opacity="1" stroke-opacity="1"/><path d="M600,665L676,768L762,663Z" fill="#aee0e3" stroke="#aee0e3" fill-opacity="1" stroke-opacity="1"/><path d="M762,663L676,768L861,823Z" fill="#9dd9e5" stroke="#9dd9e5" fill-opacity="1" stroke-opacity="1"/><path d="M762,663L861,823L963,719Z" fill="#95d4e8" stroke="#95d4e8" fill-opacity="1" stroke-opacity="1"/><path d="M963,719L861,823L930,798Z" fill="#89cee9" stroke="#89cee9" fill-opacity="1" stroke-opacity="1"/><path d="M963,719L930,798L1088,724Z" fill="#86cbeb" stroke="#86cbeb" fill-opacity="1" stroke-opacity="1"/><path d="M1131,719L1088,724L1199,963Z" fill="#6ec0ef" stroke="#6ec0ef" fill-opacity="1" stroke-opacity="1"/><path d="M1131,719L1199,963L1261,889Z" fill="#60b9f1" stroke="#60b9f1" fill-opacity="1" stroke-opacity="1"/><path d="M1131,719L1261,889L1365,609Z" fill="#6cbcf2" stroke="#6cbcf2" fill-opacity="1" stroke-opacity="1"/><path d="M1365,609L1261,889L1456,889Z" fill="#58b3f5" stroke="#58b3f5" fill-opacity="1" stroke-opacity="1"/><path d="M1365,609L1456,889L1493,671Z" fill="#5bb2f7" stroke="#5bb2f7" fill-opacity="1" stroke-opacity="1"/><path d="M1493,671L1456,889L1749,838Z" fill="#43a6fa" stroke="#43a6fa" fill-opacity="1" stroke-opacity="1"/><path d="M1493,671L1749,838L1780,685Z" fill="#42a3fd" stroke="#42a3fd" fill-opacity="1" stroke-opacity="1"/><path d="M-35,755L-153,961L142,787Z" fill="#a6a8ab" stroke="#a6a8ab" fill-opacity="1" stroke-opacity="1"/><path d="M142,787L-153,961L155,1077Z" fill="#96a9b1" stroke="#96a9b1" fill-opacity="1" stroke-opacity="1"/><path d="M142,787L155,1077L184,815Z" fill="#9eb7bc" stroke="#9eb7bc" fill-opacity="1" stroke-opacity="1"/><path d="M184,815L155,1077L354,915Z" fill="#97bdc2" stroke="#97bdc2" fill-opacity="1" stroke-opacity="1"/><path d="M184,815L354,915L402,837Z" fill="#a4caca" stroke="#a4caca" fill-opacity="1" stroke-opacity="1"/><path d="M402,837L354,915L421,905Z" fill="#9fd1d2" stroke="#9fd1d2" fill-opacity="1" stroke-opacity="1"/><path d="M402,837L421,905L676,768Z" fill="#a7dfdc" stroke="#a7dfdc" fill-opacity="1" stroke-opacity="1"/><path d="M676,768L421,905L593,1067Z" fill="#99dce0" stroke="#99dce0" fill-opacity="1" stroke-opacity="1"/><path d="M676,768L593,1067L792,1055Z" fill="#84d3e3" stroke="#84d3e3" fill-opacity="1" stroke-opacity="1"/><path d="M676,768L792,1055L861,823Z" fill="#87d2e6" stroke="#87d2e6" fill-opacity="1" stroke-opacity="1"/><path d="M861,823L792,1055L930,966Z" fill="#74c9e8" stroke="#74c9e8" fill-opacity="1" stroke-opacity="1"/><path d="M861,823L930,966L930,798Z" fill="#7dcbe9" stroke="#7dcbe9" fill-opacity="1" stroke-opacity="1"/><path d="M930,798L930,966L1199,963Z" fill="#6ac2ec" stroke="#6ac2ec" fill-opacity="1" stroke-opacity="1"/><path d="M930,798L1199,963L1088,724Z" fill="#71c2ed" stroke="#71c2ed" fill-opacity="1" stroke-opacity="1"/><path d="M1261,889L1199,963L1294,954Z" fill="#4eb2f2" stroke="#4eb2f2" fill-opacity="1" stroke-opacity="1"/><path d="M1261,889L1294,954L1456,889Z" fill="#49aff4" stroke="#49aff4" fill-opacity="1" stroke-opacity="1"/><path d="M1456,889L1294,954L1482,949Z" fill="#3ea9f6" stroke="#3ea9f6" fill-opacity="1" stroke-opacity="1"/><path d="M1456,889L1482,949L1749,838Z" fill="#35a2fa" stroke="#35a2fa" fill-opacity="1" stroke-opacity="1"/><path d="M1749,838L1482,949L1696,999Z" fill="#279bfc" stroke="#279bfc" fill-opacity="1" stroke-opacity="1"/><path d="M155,1077L593,1067L354,915Z" fill="#8bc8cf" stroke="#8bc8cf" fill-opacity="1" stroke-opacity="1"/><path d="M354,915L593,1067L421,905Z" fill="#94d3d8" stroke="#94d3d8" fill-opacity="1" stroke-opacity="1"/><path d="M792,1055L1696,999L1199,963Z" fill="#46b0f2" stroke="#46b0f2" fill-opacity="1" stroke-opacity="1"/><path d="M792,1055L1199,963L930,966Z" fill="#62c0eb" stroke="#62c0eb" fill-opacity="1" stroke-opacity="1"/><path d="M1199,963L1696,999L1294,954Z" fill="#3aa7f6" stroke="#3aa7f6" fill-opacity="1" stroke-opacity="1"/><path d="M1294,954L1696,999L1482,949Z" fill="#31a2f8" stroke="#31a2f8" fill-opacity="1" stroke-opacity="1"/></g></svg>