<svg width="1600" height="799" xmlns="http://www.w3.org/2000/svg"><g><path d="M0,-12L-65,50L16,137Z" fill="#f8b857" stroke="#f8b857" fill-opacity="1" stroke-opacity="1"/><path d="M0,-12L16,137L95,-31Z" fill="#f8b957" stroke="#f8b957" fill-opacity="1" stroke-opacity="1"/><path d="M0,-12L95,-31L224,-67Z" fill="#f9b74c" stroke="#f9b74c" fill-opacity="1" stroke-opacity="1"/><path d="M0,-12L224,-67L606,-172Z" fill="#fabf5a" stroke="#fabf5a" fill-opacity="1" stroke-opacity="1"/><path d="M95,-31L16,137L278,145Z" fill="#f9c678" stroke="#f9c678" fill-opacity="1" stroke-opacity="1"/><path d="M95,-31L278,145L224,-67Z" fill="#f9c46e" stroke="#f9c46e" fill-opacity="1" stroke-opacity="1"/><path d="M224,-67L278,145L409,148Z" fill="#fad394" stroke="#fad394" fill-opacity="1" stroke-opacity="1"/><path d="M224,-67L409,148L507,-33Z" fill="#fad38d" stroke="#fad38d" fill-opacity="1" stroke-opacity="1"/><path d="M224,-67L507,-33L606,-172Z" fill="#fbcb74" stroke="#fbcb74" fill-opacity="1" stroke-opacity="1"/><path d="M507,-33L409,148L612,177Z" fill="#fbe6be" stroke="#fbe6be" fill-opacity="1" stroke-opacity="1"/><path d="M507,-33L612,177L783,-106Z" fill="#f2d4a1" stroke="#f2d4a1" fill-opacity="1" stroke-opacity="1"/><path d="M507,-33L783,-106L606,-172Z" fill="#f3c77a" stroke="#f3c77a" fill-opacity="1" stroke-opacity="1"/><path d="M606,-172L783,-106L1425,-41Z" fill="#d8a96b" stroke="#d8a96b" fill-opacity="1" stroke-opacity="1"/><path d="M606,-172L1425,-41L1711,-94Z" fill="#bc8b5c" stroke="#bc8b5c" fill-opacity="1" stroke-opacity="1"/><path d="M783,-106L612,177L797,139Z" fill="#ead1b0" stroke="#ead1b0" fill-opacity="1" stroke-opacity="1"/><path d="M783,-106L797,139L1038,-14Z" fill="#ddbc93" stroke="#ddbc93" fill-opacity="1" stroke-opacity="1"/><path d="M783,-106L1038,-14L1115,-10Z" fill="#d4ac7e" stroke="#d4ac7e" fill-opacity="1" stroke-opacity="1"/><path d="M783,-106L1115,-10L1425,-41Z" fill="#c99e74" stroke="#c99e74" fill-opacity="1" stroke-opacity="1"/><path d="M1038,-14L797,139L925,228Z" fill="#d9c4b6" stroke="#d9c4b6" fill-opacity="1" stroke-opacity="1"/><path d="M1038,-14L925,228L1077,116Z" fill="#d1baaf" stroke="#d1baaf" fill-opacity="1" stroke-opacity="1"/><path d="M1038,-14L1077,116L1125,77Z" fill="#cbae9b" stroke="#cbae9b" fill-opacity="1" stroke-opacity="1"/><path d="M1038,-14L1125,77L1115,-10Z" fill="#caa88c" stroke="#caa88c" fill-opacity="1" stroke-opacity="1"/><path d="M1115,-10L1125,77L1341,2Z" fill="#c19e89" stroke="#c19e89" fill-opacity="1" stroke-opacity="1"/><path d="M1115,-10L1341,2L1425,-41Z" fill="#b89077" stroke="#b89077" fill-opacity="1" stroke-opacity="1"/><path d="M1425,-41L1341,2L1366,223Z" fill="#b1918d" stroke="#b1918d" fill-opacity="1" stroke-opacity="1"/><path d="M1425,-41L1366,223L1608,19Z" fill="#a9888b" stroke="#a9888b" fill-opacity="1" stroke-opacity="1"/><path d="M1425,-41L1608,19L1620,-6Z" fill="#a2786d" stroke="#a2786d" fill-opacity="1" stroke-opacity="1"/><path d="M1425,-41L1620,-6L1711,-94Z" fill="#9f705e" stroke="#9f705e" fill-opacity="1" stroke-opacity="1"/><path d="M1620,-6L1608,19L1787,82Z" fill="#977075" stroke="#977075" fill-opacity="1" stroke-opacity="1"/><path d="M1620,-6L1787,82L1711,-94Z" fill="#946967" stroke="#946967" fill-opacity="1" stroke-opacity="1"/><path d="M-65,50L-176,305L16,137Z" fill="#f8c070" stroke="#f8c070" fill-opacity="1" stroke-opacity="1"/><path d="M16,137L-176,305L25,182Z" fill="#f8c785" stroke="#f8c785" fill-opacity="1" stroke-opacity="1"/><path d="M16,137L25,182L194,251Z" fill="#f9cf94" stroke="#f9cf94" fill-opacity="1" stroke-opacity="1"/><path d="M16,137L194,251L278,145Z" fill="#f9d49e" stroke="#f9d49e" fill-opacity="1" stroke-opacity="1"/><path d="M278,145L194,251L428,304Z" fill="#fae5c8" stroke="#fae5c8" fill-opacity="1" stroke-opacity="1"/><path d="M278,145L428,304L409,148Z" fill="#fae7c9" stroke="#fae7c9" fill-opacity="1" stroke-opacity="1"/><path d="M409,148L428,304L612,177Z" fill="#fbf1e0" stroke="#fbf1e0" fill-opacity="1" stroke-opacity="1"/><path d="M612,177L428,304L518,378Z" fill="#f9f7f8" stroke="#f9f7f8" fill-opacity="1" stroke-opacity="1"/><path d="M612,177L518,378L672,334Z" fill="#f1f0f7" stroke="#f1f0f7" fill-opacity="1" stroke-opacity="1"/><path d="M612,177L672,334L797,139Z" fill="#ede6e3" stroke="#ede6e3" fill-opacity="1" stroke-opacity="1"/><path d="M797,139L672,334L838,303Z" fill="#e6e3ed" stroke="#e6e3ed" fill-opacity="1" stroke-opacity="1"/><path d="M797,139L838,303L925,228Z" fill="#dfd7dd" stroke="#dfd7dd" fill-opacity="1" stroke-opacity="1"/><path d="M1077,116L925,228L1198,238Z" fill="#ccbec9" stroke="#ccbec9" fill-opacity="1" stroke-opacity="1"/><path d="M1077,116L1198,238L1125,77Z" fill="#c6b2b5" stroke="#c6b2b5" fill-opacity="1" stroke-opacity="1"/><path d="M1125,77L1198,238L1341,2Z" fill="#bfa5a4" stroke="#bfa5a4" fill-opacity="1" stroke-opacity="1"/><path d="M1341,2L1198,238L1366,223Z" fill="#b8a3b0" stroke="#b8a3b0" fill-opacity="1" stroke-opacity="1"/><path d="M1608,19L1366,223L1572,309Z" fill="#a591af" stroke="#a591af" fill-opacity="1" stroke-opacity="1"/><path d="M1608,19L1572,309L1787,82Z" fill="#987e99" stroke="#987e99" fill-opacity="1" stroke-opacity="1"/><path d="M1787,82L1572,309L1756,357Z" fill="#9486bd" stroke="#9486bd" fill-opacity="1" stroke-opacity="1"/><path d="M1787,82L1756,357L1770,638Z" fill="#8272bb" stroke="#8272bb" fill-opacity="1" stroke-opacity="1"/><path d="M-176,305L-94,1042L-100,607Z" fill="#c38a7b" stroke="#c38a7b" fill-opacity="1" stroke-opacity="1"/><path d="M-176,305L-100,607L-60,442Z" fill="#deaa85" stroke="#deaa85" fill-opacity="1" stroke-opacity="1"/><path d="M-176,305L-60,442L45,407Z" fill="#e8b990" stroke="#e8b990" fill-opacity="1" stroke-opacity="1"/><path d="M-176,305L45,407L25,182Z" fill="#f4c998" stroke="#f4c998" fill-opacity="1" stroke-opacity="1"/><path d="M25,182L45,407L194,251Z" fill="#f7d6ae" stroke="#f7d6ae" fill-opacity="1" stroke-opacity="1"/><path d="M194,251L45,407L277,464Z" fill="#eacdb9" stroke="#eacdb9" fill-opacity="1" stroke-opacity="1"/><path d="M194,251L277,464L428,304Z" fill="#f0ddd0" stroke="#f0ddd0" fill-opacity="1" stroke-opacity="1"/><path d="M428,304L277,464L518,378Z" fill="#ebdfe1" stroke="#ebdfe1" fill-opacity="1" stroke-opacity="1"/><path d="M672,334L518,378L710,446Z" fill="#e2def1" stroke="#e2def1" fill-opacity="1" stroke-opacity="1"/><path d="M672,334L710,446L838,303Z" fill="#dcd7ed" stroke="#dcd7ed" fill-opacity="1" stroke-opacity="1"/><path d="M838,303L710,446L885,383Z" fill="#d4cee9" stroke="#d4cee9" fill-opacity="1" stroke-opacity="1"/><path d="M838,303L885,383L925,228Z" fill="#d7d3e9" stroke="#d7d3e9" fill-opacity="1" stroke-opacity="1"/><path d="M925,228L885,383L1047,510Z" fill="#c8c1e2" stroke="#c8c1e2" fill-opacity="1" stroke-opacity="1"/><path d="M925,228L1047,510L1159,474Z" fill="#bbb3dd" stroke="#bbb3dd" fill-opacity="1" stroke-opacity="1"/><path d="M925,228L1159,474L1198,238Z" fill="#c3bdde" stroke="#c3bdde" fill-opacity="1" stroke-opacity="1"/><path d="M1198,238L1159,474L1291,368Z" fill="#b2a9d6" stroke="#b2a9d6" fill-opacity="1" stroke-opacity="1"/><path d="M1198,238L1291,368L1366,223Z" fill="#b8b0d6" stroke="#b8b0d6" fill-opacity="1" stroke-opacity="1"/><path d="M1366,223L1291,368L1446,384Z" fill="#aaa0d0" stroke="#aaa0d0" fill-opacity="1" stroke-opacity="1"/><path d="M1366,223L1446,384L1572,309Z" fill="#a499cd" stroke="#a499cd" fill-opacity="1" stroke-opacity="1"/><path d="M1572,309L1446,384L1720,520Z" fill="#8c7ec3" stroke="#8c7ec3" fill-opacity="1" stroke-opacity="1"/><path d="M1572,309L1720,520L1756,357Z" fill="#8475be" stroke="#8475be" fill-opacity="1" stroke-opacity="1"/><path d="M1756,357L1720,520L1770,638Z" fill="#705db6" stroke="#705db6" fill-opacity="1" stroke-opacity="1"/><path d="M-60,442L-100,607L34,594Z" fill="#d2a08d" stroke="#d2a08d" fill-opacity="1" stroke-opacity="1"/><path d="M-60,442L34,594L45,407Z" fill="#dbaf98" stroke="#dbaf98" fill-opacity="1" stroke-opacity="1"/><path d="M45,407L34,594L277,464Z" fill="#dab7ab" stroke="#dab7ab" fill-opacity="1" stroke-opacity="1"/><path d="M277,464L34,594L259,721Z" fill="#ccacb3" stroke="#ccacb3" fill-opacity="1" stroke-opacity="1"/><path d="M277,464L259,721L359,719Z" fill="#c7adc4" stroke="#c7adc4" fill-opacity="1" stroke-opacity="1"/><path d="M277,464L359,719L510,571Z" fill="#cfbcd4" stroke="#cfbcd4" fill-opacity="1" stroke-opacity="1"/><path d="M277,464L510,571L518,378Z" fill="#dfd3e2" stroke="#dfd3e2" fill-opacity="1" stroke-opacity="1"/><path d="M518,378L510,571L710,446Z" fill="#dcd7f1" stroke="#dcd7f1" fill-opacity="1" stroke-opacity="1"/><path d="M710,446L510,571L615,600Z" fill="#cfc8ec" stroke="#cfc8ec" fill-opacity="1" stroke-opacity="1"/><path d="M710,446L615,600L831,569Z" fill="#c5bde7" stroke="#c5bde7" fill-opacity="1" stroke-opacity="1"/><path d="M710,446L831,569L885,383Z" fill="#c7c0e6" stroke="#c7c0e6" fill-opacity="1" stroke-opacity="1"/><path d="M885,383L831,569L1047,510Z" fill="#bbb2df" stroke="#bbb2df" fill-opacity="1" stroke-opacity="1"/><path d="M1047,510L831,569L950,661Z" fill="#aca0da" stroke="#aca0da" fill-opacity="1" stroke-opacity="1"/><path d="M1047,510L950,661L1193,580Z" fill="#a194d4" stroke="#a194d4" fill-opacity="1" stroke-opacity="1"/><path d="M1047,510L1193,580L1159,474Z" fill="#a397d4" stroke="#a397d4" fill-opacity="1" stroke-opacity="1"/><path d="M1159,474L1193,580L1291,368Z" fill="#a397d2" stroke="#a397d2" fill-opacity="1" stroke-opacity="1"/><path d="M1291,368L1193,580L1291,619Z" fill="#988acd" stroke="#988acd" fill-opacity="1" stroke-opacity="1"/><path d="M1291,368L1291,619L1446,384Z" fill="#9a8dcc" stroke="#9a8dcc" fill-opacity="1" stroke-opacity="1"/><path d="M1446,384L1291,619L1549,641Z" fill="#8676c4" stroke="#8676c4" fill-opacity="1" stroke-opacity="1"/><path d="M1446,384L1549,641L1720,520Z" fill="#7e6dbe" stroke="#7e6dbe" fill-opacity="1" stroke-opacity="1"/><path d="M1720,520L1549,641L1770,638Z" fill="#6954b5" stroke="#6954b5" fill-opacity="1" stroke-opacity="1"/><path d="M-100,607L-94,1042L-55,755Z" fill="#ae747c" stroke="#ae747c" fill-opacity="1" stroke-opacity="1"/><path d="M-100,607L-55,755L34,594Z" fill="#c39089" stroke="#c39089" fill-opacity="1" stroke-opacity="1"/><path d="M34,594L-55,755L101,884Z" fill="#b78691" stroke="#b78691" fill-opacity="1" stroke-opacity="1"/><path d="M34,594L101,884L259,721Z" fill="#b990a3" stroke="#b990a3" fill-opacity="1" stroke-opacity="1"/><path d="M359,719L259,721L251,984Z" fill="#b091bb" stroke="#b091bb" fill-opacity="1" stroke-opacity="1"/><path d="M359,719L251,984L492,886Z" fill="#a88ec6" stroke="#a88ec6" fill-opacity="1" stroke-opacity="1"/><path d="M359,719L492,886L510,571Z" fill="#bcabdb" stroke="#bcabdb" fill-opacity="1" stroke-opacity="1"/><path d="M510,571L492,886L615,600Z" fill="#c1b7e9" stroke="#c1b7e9" fill-opacity="1" stroke-opacity="1"/><path d="M615,600L492,886L689,858Z" fill="#afa2e3" stroke="#afa2e3" fill-opacity="1" stroke-opacity="1"/><path d="M615,600L689,858L828,725Z" fill="#ad9fe0" stroke="#ad9fe0" fill-opacity="1" stroke-opacity="1"/><path d="M615,600L828,725L831,569Z" fill="#b5aae1" stroke="#b5aae1" fill-opacity="1" stroke-opacity="1"/><path d="M831,569L828,725L950,661Z" fill="#a99cdb" stroke="#a99cdb" fill-opacity="1" stroke-opacity="1"/><path d="M950,661L828,725L1057,864Z" fill="#9485d3" stroke="#9485d3" fill-opacity="1" stroke-opacity="1"/><path d="M950,661L1057,864L1140,775Z" fill="#8977ce" stroke="#8977ce" fill-opacity="1" stroke-opacity="1"/><path d="M950,661L1140,775L1193,580Z" fill="#9283cf" stroke="#9283cf" fill-opacity="1" stroke-opacity="1"/><path d="M1193,580L1140,775L1291,619Z" fill="#8a7aca" stroke="#8a7aca" fill-opacity="1" stroke-opacity="1"/><path d="M1291,619L1140,775L1281,802Z" fill="#7d6bc6" stroke="#7d6bc6" fill-opacity="1" stroke-opacity="1"/><path d="M1291,619L1281,802L1446,755Z" fill="#7562c1" stroke="#7562c1" fill-opacity="1" stroke-opacity="1"/><path d="M1291,619L1446,755L1549,641Z" fill="#7562bf" stroke="#7562bf" fill-opacity="1" stroke-opacity="1"/><path d="M1549,641L1446,755L1705,861Z" fill="#5e47b5" stroke="#5e47b5" fill-opacity="1" stroke-opacity="1"/><path d="M1549,641L1705,861L1770,638Z" fill="#5943b1" stroke="#5943b1" fill-opacity="1" stroke-opacity="1"/><path d="M1770,638L1705,861L1708,1079Z" fill="#4026a9" stroke="#4026a9" fill-opacity="1" stroke-opacity="1"/><path d="M-55,755L-94,1042L101,884Z" fill="#a26a83" stroke="#a26a83" fill-opacity="1" stroke-opacity="1"/><path d="M101,884L-94,1042L177,1032Z" fill="#96628d" stroke="#96628d" fill-opacity="1" stroke-opacity="1"/><path d="M101,884L177,1032L251,984Z" fill="#996ea1" stroke="#996ea1" fill-opacity="1" stroke-opacity="1"/><path d="M101,884L251,984L259,721Z" fill="#a781aa" stroke="#a781aa" fill-opacity="1" stroke-opacity="1"/><path d="M492,886L251,984L434,997Z" fill="#9c81c7" stroke="#9c81c7" fill-opacity="1" stroke-opacity="1"/><path d="M492,886L434,997L636,1002Z" fill="#9c8add" stroke="#9c8add" fill-opacity="1" stroke-opacity="1"/><path d="M492,886L636,1002L689,858Z" fill="#9c8bdd" stroke="#9c8bdd" fill-opacity="1" stroke-opacity="1"/><path d="M689,858L636,1002L745,1008Z" fill="#8f7cd7" stroke="#8f7cd7" fill-opacity="1" stroke-opacity="1"/><path d="M689,858L745,1008L828,725Z" fill="#9685d8" stroke="#9685d8" fill-opacity="1" stroke-opacity="1"/><path d="M828,725L745,1008L1057,864Z" fill="#8b78d2" stroke="#8b78d2" fill-opacity="1" stroke-opacity="1"/><path d="M1057,864L745,1008L1080,1078Z" fill="#735dc9" stroke="#735dc9" fill-opacity="1" stroke-opacity="1"/><path d="M1057,864L1080,1078L1150,947Z" fill="#6a53c3" stroke="#6a53c3" fill-opacity="1" stroke-opacity="1"/><path d="M1057,864L1150,947L1140,775Z" fill="#7662c6" stroke="#7662c6" fill-opacity="1" stroke-opacity="1"/><path d="M1140,775L1150,947L1281,802Z" fill="#725ec4" stroke="#725ec4" fill-opacity="1" stroke-opacity="1"/><path d="M1281,802L1150,947L1303,984Z" fill="#644dbe" stroke="#644dbe" fill-opacity="1" stroke-opacity="1"/><path d="M1281,802L1303,984L1446,755Z" fill="#644ebc" stroke="#644ebc" fill-opacity="1" stroke-opacity="1"/><path d="M1446,755L1303,984L1571,977Z" fill="#543bb5" stroke="#543bb5" fill-opacity="1" stroke-opacity="1"/><path d="M1446,755L1571,977L1705,861Z" fill="#4e34b0" stroke="#4e34b0" fill-opacity="1" stroke-opacity="1"/><path d="M1705,861L1571,977L1708,1079Z" fill="#371aa7" stroke="#371aa7" fill-opacity="1" stroke-opacity="1"/><path d="M-94,1042L1080,1078L177,1032Z" fill="#8f71c2" stroke="#8f71c2" fill-opacity="1" stroke-opacity="1"/><path d="M177,1032L1080,1078L636,1002Z" fill="#8975d6" stroke="#8975d6" fill-opacity="1" stroke-opacity="1"/><path d="M177,1032L636,1002L434,997Z" fill="#957ac9" stroke="#957ac9" fill-opacity="1" stroke-opacity="1"/><path d="M177,1032L434,997L251,984Z" fill="#9571b3" stroke="#9571b3" fill-opacity="1" stroke-opacity="1"/><path d="M636,1002L1080,1078L745,1008Z" fill="#7964ce" stroke="#7964ce" fill-opacity="1" stroke-opacity="1"/><path d="M1080,1078L1708,1079L1303,984Z" fill="#472cb3" stroke="#472cb3" fill-opacity="1" stroke-opacity="1"/><path d="M1080,1078L1303,984L1150,947Z" fill="#5d45bd" stroke="#5d45bd" fill-opacity="1" stroke-opacity="1"/><path d="M1303,984L1708,1079L1571,977Z" fill="#3d21ac" stroke="#3d21ac" fill-opacity="1" stroke-opacity="1"/></g></svg>