<svg width="1600" height="799" xmlns="http://www.w3.org/2000/svg"><g><path d="M-124,-83L-170,640L-25,223Z" fill="#f8c88c" stroke="#f8c88c" fill-opacity="1" stroke-opacity="1"/><path d="M-124,-83L-25,223L0,78Z" fill="#f8b756" stroke="#f8b756" fill-opacity="1" stroke-opacity="1"/><path d="M-124,-83L0,78L30,-118Z" fill="#f8ac33" stroke="#f8ac33" fill-opacity="1" stroke-opacity="1"/><path d="M30,-118L0,78L180,134Z" fill="#f9bc5d" stroke="#f9bc5d" fill-opacity="1" stroke-opacity="1"/><path d="M30,-118L180,134L323,-106Z" fill="#f9bd5b" stroke="#f9bd5b" fill-opacity="1" stroke-opacity="1"/><path d="M30,-118L323,-106L560,-148Z" fill="#fabd54" stroke="#fabd54" fill-opacity="1" stroke-opacity="1"/><path d="M323,-106L180,134L352,28Z" fill="#facb7e" stroke="#facb7e" fill-opacity="1" stroke-opacity="1"/><path d="M323,-106L352,28L431,-117Z" fill="#fac86f" stroke="#fac86f" fill-opacity="1" stroke-opacity="1"/><path d="M323,-106L431,-117L560,-148Z" fill="#fbc76b" stroke="#fbc76b" fill-opacity="1" stroke-opacity="1"/><path d="M431,-117L352,28L370,70Z" fill="#fad186" stroke="#fad186" fill-opacity="1" stroke-opacity="1"/><path d="M431,-117L370,70L560,-148Z" fill="#fbcf7e" stroke="#fbcf7e" fill-opacity="1" stroke-opacity="1"/><path d="M560,-148L370,70L718,44Z" fill="#fada9d" stroke="#fada9d" fill-opacity="1" stroke-opacity="1"/><path d="M560,-148L718,44L807,-114Z" fill="#edc481" stroke="#edc481" fill-opacity="1" stroke-opacity="1"/><path d="M560,-148L807,-114L1101,-159Z" fill="#e2b06e" stroke="#e2b06e" fill-opacity="1" stroke-opacity="1"/><path d="M560,-148L1101,-159L1390,-178Z" fill="#d19b64" stroke="#d19b64" fill-opacity="1" stroke-opacity="1"/><path d="M807,-114L718,44L771,88Z" fill="#e7c698" stroke="#e7c698" fill-opacity="1" stroke-opacity="1"/><path d="M807,-114L771,88L1028,-15Z" fill="#deba8d" stroke="#deba8d" fill-opacity="1" stroke-opacity="1"/><path d="M807,-114L1028,-15L1101,-159Z" fill="#d4a66c" stroke="#d4a66c" fill-opacity="1" stroke-opacity="1"/><path d="M1028,-15L771,88L998,150Z" fill="#d8bea7" stroke="#d8bea7" fill-opacity="1" stroke-opacity="1"/><path d="M1028,-15L998,150L1147,20Z" fill="#cdaf9a" stroke="#cdaf9a" fill-opacity="1" stroke-opacity="1"/><path d="M1028,-15L1147,20L1101,-159Z" fill="#caa075" stroke="#caa075" fill-opacity="1" stroke-opacity="1"/><path d="M1101,-159L1147,20L1390,-178Z" fill="#bf8e5d" stroke="#bf8e5d" fill-opacity="1" stroke-opacity="1"/><path d="M1390,-178L1147,20L1396,55Z" fill="#b78c70" stroke="#b78c70" fill-opacity="1" stroke-opacity="1"/><path d="M1390,-178L1396,55L1529,-119Z" fill="#ab7b5b" stroke="#ab7b5b" fill-opacity="1" stroke-opacity="1"/><path d="M1390,-178L1529,-119L1664,-93Z" fill="#a46c4b" stroke="#a46c4b" fill-opacity="1" stroke-opacity="1"/><path d="M1529,-119L1396,55L1543,60Z" fill="#a77f73" stroke="#a77f73" fill-opacity="1" stroke-opacity="1"/><path d="M1529,-119L1543,60L1664,-93Z" fill="#9f705e" stroke="#9f705e" fill-opacity="1" stroke-opacity="1"/><path d="M1664,-93L1543,60L1645,178Z" fill="#9c787d" stroke="#9c787d" fill-opacity="1" stroke-opacity="1"/><path d="M1664,-93L1645,178L1758,293Z" fill="#957994" stroke="#957994" fill-opacity="1" stroke-opacity="1"/><path d="M0,78L-25,223L180,134Z" fill="#f9c780" stroke="#f9c780" fill-opacity="1" stroke-opacity="1"/><path d="M180,134L-25,223L80,306Z" fill="#f9d29e" stroke="#f9d29e" fill-opacity="1" stroke-opacity="1"/><path d="M180,134L80,306L315,303Z" fill="#f9deba" stroke="#f9deba" fill-opacity="1" stroke-opacity="1"/><path d="M180,134L315,303L370,70Z" fill="#faddb1" stroke="#faddb1" fill-opacity="1" stroke-opacity="1"/><path d="M180,134L370,70L352,28Z" fill="#fad394" stroke="#fad394" fill-opacity="1" stroke-opacity="1"/><path d="M370,70L315,303L480,295Z" fill="#faebd4" stroke="#faebd4" fill-opacity="1" stroke-opacity="1"/><path d="M370,70L480,295L718,44Z" fill="#fbebce" stroke="#fbebce" fill-opacity="1" stroke-opacity="1"/><path d="M718,44L480,295L700,292Z" fill="#f2ebe3" stroke="#f2ebe3" fill-opacity="1" stroke-opacity="1"/><path d="M718,44L700,292L771,88Z" fill="#ead9c8" stroke="#ead9c8" fill-opacity="1" stroke-opacity="1"/><path d="M771,88L700,292L805,307Z" fill="#e7e1e4" stroke="#e7e1e4" fill-opacity="1" stroke-opacity="1"/><path d="M771,88L805,307L998,150Z" fill="#dfd2cf" stroke="#dfd2cf" fill-opacity="1" stroke-opacity="1"/><path d="M998,150L805,307L974,335Z" fill="#d9d4e7" stroke="#d9d4e7" fill-opacity="1" stroke-opacity="1"/><path d="M998,150L974,335L1103,272Z" fill="#d0c9df" stroke="#d0c9df" fill-opacity="1" stroke-opacity="1"/><path d="M998,150L1103,272L1147,20Z" fill="#cbb8b8" stroke="#cbb8b8" fill-opacity="1" stroke-opacity="1"/><path d="M1147,20L1103,272L1305,193Z" fill="#c2afb8" stroke="#c2afb8" fill-opacity="1" stroke-opacity="1"/><path d="M1147,20L1305,193L1396,55Z" fill="#b99d9b" stroke="#b99d9b" fill-opacity="1" stroke-opacity="1"/><path d="M1396,55L1305,193L1552,309Z" fill="#ad9bb5" stroke="#ad9bb5" fill-opacity="1" stroke-opacity="1"/><path d="M1396,55L1552,309L1543,60Z" fill="#a68ea2" stroke="#a68ea2" fill-opacity="1" stroke-opacity="1"/><path d="M1543,60L1552,309L1645,178Z" fill="#9f8bac" stroke="#9f8bac" fill-opacity="1" stroke-opacity="1"/><path d="M1645,178L1552,309L1758,293Z" fill="#998dc3" stroke="#998dc3" fill-opacity="1" stroke-opacity="1"/><path d="M-25,223L-170,640L-18,437Z" fill="#e1b18d" stroke="#e1b18d" fill-opacity="1" stroke-opacity="1"/><path d="M-25,223L-18,437L80,306Z" fill="#f1c99f" stroke="#f1c99f" fill-opacity="1" stroke-opacity="1"/><path d="M80,306L-18,437L95,484Z" fill="#e5bea3" stroke="#e5bea3" fill-opacity="1" stroke-opacity="1"/><path d="M80,306L95,484L181,446Z" fill="#e5c3ae" stroke="#e5c3ae" fill-opacity="1" stroke-opacity="1"/><path d="M80,306L181,446L315,303Z" fill="#eed2bd" stroke="#eed2bd" fill-opacity="1" stroke-opacity="1"/><path d="M315,303L181,446L476,453Z" fill="#e8d5d2" stroke="#e8d5d2" fill-opacity="1" stroke-opacity="1"/><path d="M315,303L476,453L480,295Z" fill="#efe5e5" stroke="#efe5e5" fill-opacity="1" stroke-opacity="1"/><path d="M480,295L476,453L606,437Z" fill="#eae5f4" stroke="#eae5f4" fill-opacity="1" stroke-opacity="1"/><path d="M480,295L606,437L700,292Z" fill="#ebe9f5" stroke="#ebe9f5" fill-opacity="1" stroke-opacity="1"/><path d="M700,292L606,437L854,457Z" fill="#d9d4ed" stroke="#d9d4ed" fill-opacity="1" stroke-opacity="1"/><path d="M700,292L854,457L805,307Z" fill="#d9d4eb" stroke="#d9d4eb" fill-opacity="1" stroke-opacity="1"/><path d="M805,307L854,457L974,335Z" fill="#cfc9e6" stroke="#cfc9e6" fill-opacity="1" stroke-opacity="1"/><path d="M974,335L854,457L1044,518Z" fill="#beb6e0" stroke="#beb6e0" fill-opacity="1" stroke-opacity="1"/><path d="M974,335L1044,518L1201,406Z" fill="#b7adda" stroke="#b7adda" fill-opacity="1" stroke-opacity="1"/><path d="M974,335L1201,406L1103,272Z" fill="#c0b9dd" stroke="#c0b9dd" fill-opacity="1" stroke-opacity="1"/><path d="M1103,272L1201,406L1305,193Z" fill="#bdb5da" stroke="#bdb5da" fill-opacity="1" stroke-opacity="1"/><path d="M1305,193L1201,406L1347,480Z" fill="#aca2d3" stroke="#aca2d3" fill-opacity="1" stroke-opacity="1"/><path d="M1305,193L1347,480L1552,309Z" fill="#a69cce" stroke="#a69cce" fill-opacity="1" stroke-opacity="1"/><path d="M1552,309L1347,480L1607,421Z" fill="#9386c7" stroke="#9386c7" fill-opacity="1" stroke-opacity="1"/><path d="M1552,309L1607,421L1758,293Z" fill="#9082c2" stroke="#9082c2" fill-opacity="1" stroke-opacity="1"/><path d="M1758,293L1607,421L1760,538Z" fill="#7f6fbc" stroke="#7f6fbc" fill-opacity="1" stroke-opacity="1"/><path d="M-18,437L-170,640L11,750Z" fill="#c99588" stroke="#c99588" fill-opacity="1" stroke-opacity="1"/><path d="M-18,437L11,750L95,484Z" fill="#d0a599" stroke="#d0a599" fill-opacity="1" stroke-opacity="1"/><path d="M95,484L11,750L155,595Z" fill="#caa1a1" stroke="#caa1a1" fill-opacity="1" stroke-opacity="1"/><path d="M95,484L155,595L181,446Z" fill="#d8b6ae" stroke="#d8b6ae" fill-opacity="1" stroke-opacity="1"/><path d="M181,446L155,595L314,602Z" fill="#d3b5b9" stroke="#d3b5b9" fill-opacity="1" stroke-opacity="1"/><path d="M181,446L314,602L476,453Z" fill="#dac5ce" stroke="#dac5ce" fill-opacity="1" stroke-opacity="1"/><path d="M476,453L314,602L532,574Z" fill="#d5c7e0" stroke="#d5c7e0" fill-opacity="1" stroke-opacity="1"/><path d="M476,453L532,574L606,437Z" fill="#dcd7f2" stroke="#dcd7f2" fill-opacity="1" stroke-opacity="1"/><path d="M606,437L532,574L643,550Z" fill="#d3ccee" stroke="#d3ccee" fill-opacity="1" stroke-opacity="1"/><path d="M606,437L643,550L854,457Z" fill="#cfc8ea" stroke="#cfc8ea" fill-opacity="1" stroke-opacity="1"/><path d="M854,457L643,550L793,700Z" fill="#bdb4e4" stroke="#bdb4e4" fill-opacity="1" stroke-opacity="1"/><path d="M854,457L793,700L966,645Z" fill="#afa4dd" stroke="#afa4dd" fill-opacity="1" stroke-opacity="1"/><path d="M854,457L966,645L1044,518Z" fill="#b1a6db" stroke="#b1a6db" fill-opacity="1" stroke-opacity="1"/><path d="M1044,518L966,645L1081,626Z" fill="#a295d6" stroke="#a295d6" fill-opacity="1" stroke-opacity="1"/><path d="M1044,518L1081,626L1201,406Z" fill="#a69ad5" stroke="#a69ad5" fill-opacity="1" stroke-opacity="1"/><path d="M1201,406L1081,626L1347,480Z" fill="#9f92d0" stroke="#9f92d0" fill-opacity="1" stroke-opacity="1"/><path d="M1347,480L1081,626L1386,603Z" fill="#9182cb" stroke="#9182cb" fill-opacity="1" stroke-opacity="1"/><path d="M1347,480L1386,603L1607,421Z" fill="#8b7bc5" stroke="#8b7bc5" fill-opacity="1" stroke-opacity="1"/><path d="M1607,421L1386,603L1647,566Z" fill="#7e6dbf" stroke="#7e6dbf" fill-opacity="1" stroke-opacity="1"/><path d="M1607,421L1647,566L1760,538Z" fill="#7664ba" stroke="#7664ba" fill-opacity="1" stroke-opacity="1"/><path d="M1760,538L1647,566L1748,821Z" fill="#5f4ab2" stroke="#5f4ab2" fill-opacity="1" stroke-opacity="1"/><path d="M-170,640L-139,921L-140,783Z" fill="#b17271" stroke="#b17271" fill-opacity="1" stroke-opacity="1"/><path d="M-170,640L-140,783L11,750Z" fill="#b97f7c" stroke="#b97f7c" fill-opacity="1" stroke-opacity="1"/><path d="M155,595L11,750L274,857Z" fill="#b991a5" stroke="#b991a5" fill-opacity="1" stroke-opacity="1"/><path d="M155,595L274,857L314,602Z" fill="#c0a1b9" stroke="#c0a1b9" fill-opacity="1" stroke-opacity="1"/><path d="M314,602L274,857L518,754Z" fill="#baa2cb" stroke="#baa2cb" fill-opacity="1" stroke-opacity="1"/><path d="M314,602L518,754L532,574Z" fill="#c7b8de" stroke="#c7b8de" fill-opacity="1" stroke-opacity="1"/><path d="M532,574L518,754L643,550Z" fill="#c7beeb" stroke="#c7beeb" fill-opacity="1" stroke-opacity="1"/><path d="M643,550L518,754L793,700Z" fill="#baafe5" stroke="#baafe5" fill-opacity="1" stroke-opacity="1"/><path d="M793,700L518,754L804,766Z" fill="#ab9edf" stroke="#ab9edf" fill-opacity="1" stroke-opacity="1"/><path d="M793,700L804,766L966,645Z" fill="#a395da" stroke="#a395da" fill-opacity="1" stroke-opacity="1"/><path d="M966,645L804,766L966,857Z" fill="#9787d5" stroke="#9787d5" fill-opacity="1" stroke-opacity="1"/><path d="M966,645L966,857L1081,626Z" fill="#9585d2" stroke="#9585d2" fill-opacity="1" stroke-opacity="1"/><path d="M1081,626L966,857L1186,869Z" fill="#8472cb" stroke="#8472cb" fill-opacity="1" stroke-opacity="1"/><path d="M1081,626L1186,869L1386,603Z" fill="#8372c8" stroke="#8372c8" fill-opacity="1" stroke-opacity="1"/><path d="M1386,603L1186,869L1414,852Z" fill="#705bbf" stroke="#705bbf" fill-opacity="1" stroke-opacity="1"/><path d="M1386,603L1414,852L1496,821Z" fill="#6953bb" stroke="#6953bb" fill-opacity="1" stroke-opacity="1"/><path d="M1386,603L1496,821L1565,708Z" fill="#6b56ba" stroke="#6b56ba" fill-opacity="1" stroke-opacity="1"/><path d="M1386,603L1565,708L1647,566Z" fill="#725fbc" stroke="#725fbc" fill-opacity="1" stroke-opacity="1"/><path d="M1565,708L1496,821L1748,821Z" fill="#563eb2" stroke="#563eb2" fill-opacity="1" stroke-opacity="1"/><path d="M1565,708L1748,821L1647,566Z" fill="#5e48b3" stroke="#5e48b3" fill-opacity="1" stroke-opacity="1"/><path d="M-140,783L-139,921L11,750Z" fill="#ac7179" stroke="#ac7179" fill-opacity="1" stroke-opacity="1"/><path d="M11,750L-139,921L120,1000Z" fill="#a36d85" stroke="#a36d85" fill-opacity="1" stroke-opacity="1"/><path d="M11,750L120,1000L274,857Z" fill="#a77a9e" stroke="#a77a9e" fill-opacity="1" stroke-opacity="1"/><path d="M274,857L120,1000L212,1023Z" fill="#9a71a6" stroke="#9a71a6" fill-opacity="1" stroke-opacity="1"/><path d="M274,857L212,1023L434,1070Z" fill="#9775b7" stroke="#9775b7" fill-opacity="1" stroke-opacity="1"/><path d="M274,857L434,1070L556,876Z" fill="#9f86cd" stroke="#9f86cd" fill-opacity="1" stroke-opacity="1"/><path d="M274,857L556,876L518,754Z" fill="#ae9ad6" stroke="#ae9ad6" fill-opacity="1" stroke-opacity="1"/><path d="M518,754L556,876L804,766Z" fill="#aa9ce1" stroke="#aa9ce1" fill-opacity="1" stroke-opacity="1"/><path d="M556,876L434,1070L673,1030Z" fill="#9684dc" stroke="#9684dc" fill-opacity="1" stroke-opacity="1"/><path d="M556,876L673,1030L727,1007Z" fill="#907ed8" stroke="#907ed8" fill-opacity="1" stroke-opacity="1"/><path d="M556,876L727,1007L804,766Z" fill="#9888da" stroke="#9888da" fill-opacity="1" stroke-opacity="1"/><path d="M804,766L727,1007L966,857Z" fill="#8d7bd4" stroke="#8d7bd4" fill-opacity="1" stroke-opacity="1"/><path d="M966,857L727,1007L1040,1028Z" fill="#7a66cc" stroke="#7a66cc" fill-opacity="1" stroke-opacity="1"/><path d="M966,857L1040,1028L1186,869Z" fill="#735ec6" stroke="#735ec6" fill-opacity="1" stroke-opacity="1"/><path d="M1186,869L1040,1028L1188,968Z" fill="#6751c1" stroke="#6751c1" fill-opacity="1" stroke-opacity="1"/><path d="M1186,869L1188,968L1299,917Z" fill="#654ebf" stroke="#654ebf" fill-opacity="1" stroke-opacity="1"/><path d="M1186,869L1299,917L1414,852Z" fill="#644dbc" stroke="#644dbc" fill-opacity="1" stroke-opacity="1"/><path d="M1414,852L1299,917L1595,1017Z" fill="#5137b4" stroke="#5137b4" fill-opacity="1" stroke-opacity="1"/><path d="M1414,852L1595,1017L1496,821Z" fill="#4f36b2" stroke="#4f36b2" fill-opacity="1" stroke-opacity="1"/><path d="M1496,821L1595,1017L1748,821Z" fill="#472dad" stroke="#472dad" fill-opacity="1" stroke-opacity="1"/><path d="M1748,821L1595,1017L1735,1076Z" fill="#3517a6" stroke="#3517a6" fill-opacity="1" stroke-opacity="1"/><path d="M434,1070L1735,1076L1040,1028Z" fill="#5f47c1" stroke="#5f47c1" fill-opacity="1" stroke-opacity="1"/><path d="M434,1070L1040,1028L673,1030Z" fill="#816cd2" stroke="#816cd2" fill-opacity="1" stroke-opacity="1"/><path d="M673,1030L1040,1028L727,1007Z" fill="#7b66cf" stroke="#7b66cf" fill-opacity="1" stroke-opacity="1"/><path d="M1040,1028L1735,1076L1595,1017Z" fill="#4023ae" stroke="#4023ae" fill-opacity="1" stroke-opacity="1"/><path d="M1040,1028L1595,1017L1188,968Z" fill="#553bb9" stroke="#553bb9" fill-opacity="1" stroke-opacity="1"/><path d="M1188,968L1595,1017L1299,917Z" fill="#5239b6" stroke="#5239b6" fill-opacity="1" stroke-opacity="1"/></g></svg>