<svg width="1600" height="799" xmlns="http://www.w3.org/2000/svg"><g><path d="M-24,-141L-90,90L83,34Z" fill="#e94158" stroke="#e94158" fill-opacity="1" stroke-opacity="1"/><path d="M-24,-141L83,34L74,-139Z" fill="#ed305c" stroke="#ed305c" fill-opacity="1" stroke-opacity="1"/><path d="M-24,-141L74,-139L1002,-168Z" fill="#fd566b" stroke="#fd566b" fill-opacity="1" stroke-opacity="1"/><path d="M74,-139L83,34L224,-101Z" fill="#f44058" stroke="#f44058" fill-opacity="1" stroke-opacity="1"/><path d="M74,-139L224,-101L464,-78Z" fill="#fb4860" stroke="#fb4860" fill-opacity="1" stroke-opacity="1"/><path d="M74,-139L464,-78L1002,-168Z" fill="#fe6d7c" stroke="#fe6d7c" fill-opacity="1" stroke-opacity="1"/><path d="M224,-101L83,34L312,4Z" fill="#fa5a55" stroke="#fa5a55" fill-opacity="1" stroke-opacity="1"/><path d="M224,-101L312,4L464,-78Z" fill="#fd6662" stroke="#fd6662" fill-opacity="1" stroke-opacity="1"/><path d="M464,-78L312,4L400,35Z" fill="#fe7d65" stroke="#fe7d65" fill-opacity="1" stroke-opacity="1"/><path d="M464,-78L400,35L650,56Z" fill="#fe9371" stroke="#fe9371" fill-opacity="1" stroke-opacity="1"/><path d="M464,-78L650,56L707,-61Z" fill="#fe9382" stroke="#fe9382" fill-opacity="1" stroke-opacity="1"/><path d="M464,-78L707,-61L1002,-168Z" fill="#fd8495" stroke="#fd8495" fill-opacity="1" stroke-opacity="1"/><path d="M707,-61L650,56L786,-63Z" fill="#ff9e90" stroke="#ff9e90" fill-opacity="1" stroke-opacity="1"/><path d="M707,-61L786,-63L1002,-168Z" fill="#f68389" stroke="#f68389" fill-opacity="1" stroke-opacity="1"/><path d="M786,-63L650,56L870,157Z" fill="#fbb384" stroke="#fbb384" fill-opacity="1" stroke-opacity="1"/><path d="M786,-63L870,157L1094,28Z" fill="#eeab79" stroke="#eeab79" fill-opacity="1" stroke-opacity="1"/><path d="M786,-63L1094,28L1002,-168Z" fill="#e68583" stroke="#e68583" fill-opacity="1" stroke-opacity="1"/><path d="M1002,-168L1094,28L1216,-25Z" fill="#cd7f86" stroke="#cd7f86" fill-opacity="1" stroke-opacity="1"/><path d="M1002,-168L1216,-25L1423,-149Z" fill="#b8658b" stroke="#b8658b" fill-opacity="1" stroke-opacity="1"/><path d="M1002,-168L1423,-149L1773,-134Z" fill="#9b4898" stroke="#9b4898" fill-opacity="1" stroke-opacity="1"/><path d="M1216,-25L1094,28L1315,133Z" fill="#ba977e" stroke="#ba977e" fill-opacity="1" stroke-opacity="1"/><path d="M1216,-25L1315,133L1448,-49Z" fill="#a67f86" stroke="#a67f86" fill-opacity="1" stroke-opacity="1"/><path d="M1216,-25L1448,-49L1423,-149Z" fill="#a15c90" stroke="#a15c90" fill-opacity="1" stroke-opacity="1"/><path d="M1423,-149L1448,-49L1773,-134Z" fill="#85329f" stroke="#85329f" fill-opacity="1" stroke-opacity="1"/><path d="M1448,-49L1315,133L1548,66Z" fill="#97778b" stroke="#97778b" fill-opacity="1" stroke-opacity="1"/><path d="M1448,-49L1548,66L1773,-134Z" fill="#80419c" stroke="#80419c" fill-opacity="1" stroke-opacity="1"/><path d="M1773,-134L1548,66L1717,76Z" fill="#7f409f" stroke="#7f409f" fill-opacity="1" stroke-opacity="1"/><path d="M1773,-134L1717,76L1766,281Z" fill="#804b9e" stroke="#804b9e" fill-opacity="1" stroke-opacity="1"/><path d="M-90,90L-117,362L-21,315Z" fill="#e4927a" stroke="#e4927a" fill-opacity="1" stroke-opacity="1"/><path d="M-90,90L-21,315L105,270Z" fill="#ea936f" stroke="#ea936f" fill-opacity="1" stroke-opacity="1"/><path d="M-90,90L105,270L83,34Z" fill="#ed7757" stroke="#ed7757" fill-opacity="1" stroke-opacity="1"/><path d="M83,34L105,270L239,215Z" fill="#f7985b" stroke="#f7985b" fill-opacity="1" stroke-opacity="1"/><path d="M83,34L239,215L312,4Z" fill="#fb7c4d" stroke="#fb7c4d" fill-opacity="1" stroke-opacity="1"/><path d="M312,4L239,215L400,35Z" fill="#fd9056" stroke="#fd9056" fill-opacity="1" stroke-opacity="1"/><path d="M400,35L239,215L482,260Z" fill="#febe6b" stroke="#febe6b" fill-opacity="1" stroke-opacity="1"/><path d="M400,35L482,260L650,56Z" fill="#ffba71" stroke="#ffba71" fill-opacity="1" stroke-opacity="1"/><path d="M650,56L482,260L591,323Z" fill="#ffe58f" stroke="#ffe58f" fill-opacity="1" stroke-opacity="1"/><path d="M650,56L591,323L784,322Z" fill="#fff3a4" stroke="#fff3a4" fill-opacity="1" stroke-opacity="1"/><path d="M650,56L784,322L870,157Z" fill="#fbe693" stroke="#fbe693" fill-opacity="1" stroke-opacity="1"/><path d="M870,157L784,322L968,178Z" fill="#f4ee93" stroke="#f4ee93" fill-opacity="1" stroke-opacity="1"/><path d="M870,157L968,178L1094,28Z" fill="#e4c47e" stroke="#e4c47e" fill-opacity="1" stroke-opacity="1"/><path d="M968,178L784,322L1003,209Z" fill="#eef098" stroke="#eef098" fill-opacity="1" stroke-opacity="1"/><path d="M968,178L1003,209L1094,28Z" fill="#ddc883" stroke="#ddc883" fill-opacity="1" stroke-opacity="1"/><path d="M1094,28L1003,209L1171,249Z" fill="#d1ce89" stroke="#d1ce89" fill-opacity="1" stroke-opacity="1"/><path d="M1094,28L1171,249L1315,133Z" fill="#bdbb84" stroke="#bdbb84" fill-opacity="1" stroke-opacity="1"/><path d="M1315,133L1171,249L1335,355Z" fill="#aed6a2" stroke="#aed6a2" fill-opacity="1" stroke-opacity="1"/><path d="M1315,133L1335,355L1458,402Z" fill="#a0ccb9" stroke="#a0ccb9" fill-opacity="1" stroke-opacity="1"/><path d="M1315,133L1458,402L1578,349Z" fill="#95bfbe" stroke="#95bfbe" fill-opacity="1" stroke-opacity="1"/><path d="M1315,133L1578,349L1548,66Z" fill="#90a49e" stroke="#90a49e" fill-opacity="1" stroke-opacity="1"/><path d="M1548,66L1578,349L1717,76Z" fill="#8086a3" stroke="#8086a3" fill-opacity="1" stroke-opacity="1"/><path d="M1717,76L1578,349L1766,281Z" fill="#8090bb" stroke="#8090bb" fill-opacity="1" stroke-opacity="1"/><path d="M-21,315L-117,362L7,586Z" fill="#e6998a" stroke="#e6998a" fill-opacity="1" stroke-opacity="1"/><path d="M-21,315L7,586L131,452Z" fill="#eca481" stroke="#eca481" fill-opacity="1" stroke-opacity="1"/><path d="M-21,315L131,452L105,270Z" fill="#f0a894" stroke="#f0a894" fill-opacity="1" stroke-opacity="1"/><path d="M105,270L131,452L208,474Z" fill="#f7b289" stroke="#f7b289" fill-opacity="1" stroke-opacity="1"/><path d="M105,270L208,474L239,215Z" fill="#fab788" stroke="#fab788" fill-opacity="1" stroke-opacity="1"/><path d="M239,215L208,474L416,446Z" fill="#fdca97" stroke="#fdca97" fill-opacity="1" stroke-opacity="1"/><path d="M239,215L416,446L482,260Z" fill="#feda95" stroke="#feda95" fill-opacity="1" stroke-opacity="1"/><path d="M482,260L416,446L591,323Z" fill="#ffebaf" stroke="#ffebaf" fill-opacity="1" stroke-opacity="1"/><path d="M591,323L416,446L670,509Z" fill="#fff2a9" stroke="#fff2a9" fill-opacity="1" stroke-opacity="1"/><path d="M591,323L670,509L784,322Z" fill="#fffdc5" stroke="#fffdc5" fill-opacity="1" stroke-opacity="1"/><path d="M784,322L670,509L867,438Z" fill="#fbfdb9" stroke="#fbfdb9" fill-opacity="1" stroke-opacity="1"/><path d="M784,322L867,438L1007,368Z" fill="#f3fab9" stroke="#f3fab9" fill-opacity="1" stroke-opacity="1"/><path d="M784,322L1007,368L1003,209Z" fill="#ecf7ac" stroke="#ecf7ac" fill-opacity="1" stroke-opacity="1"/><path d="M1003,209L1007,368L1171,249Z" fill="#d6efa8" stroke="#d6efa8" fill-opacity="1" stroke-opacity="1"/><path d="M1171,249L1007,368L1243,443Z" fill="#c7e9c4" stroke="#c7e9c4" fill-opacity="1" stroke-opacity="1"/><path d="M1171,249L1243,443L1335,355Z" fill="#b2e0c3" stroke="#b2e0c3" fill-opacity="1" stroke-opacity="1"/><path d="M1335,355L1243,443L1368,439Z" fill="#a8d5bb" stroke="#a8d5bb" fill-opacity="1" stroke-opacity="1"/><path d="M1335,355L1368,439L1458,402Z" fill="#9ec9c3" stroke="#9ec9c3" fill-opacity="1" stroke-opacity="1"/><path d="M1578,349L1458,402L1631,451Z" fill="#85aece" stroke="#85aece" fill-opacity="1" stroke-opacity="1"/><path d="M1578,349L1631,451L1766,281Z" fill="#809ddf" stroke="#809ddf" fill-opacity="1" stroke-opacity="1"/><path d="M1766,281L1631,451L1725,607Z" fill="#7f95cc" stroke="#7f95cc" fill-opacity="1" stroke-opacity="1"/><path d="M1766,281L1725,607L1693,1076Z" fill="#3179db" stroke="#3179db" fill-opacity="1" stroke-opacity="1"/><path d="M-117,362L-135,703L7,586Z" fill="#c1918d" stroke="#c1918d" fill-opacity="1" stroke-opacity="1"/><path d="M131,452L7,586L208,474Z" fill="#e3ae83" stroke="#e3ae83" fill-opacity="1" stroke-opacity="1"/><path d="M208,474L7,586L232,710Z" fill="#c3ab85" stroke="#c3ab85" fill-opacity="1" stroke-opacity="1"/><path d="M208,474L232,710L457,647Z" fill="#bfc28e" stroke="#bfc28e" fill-opacity="1" stroke-opacity="1"/><path d="M208,474L457,647L416,446Z" fill="#e8d792" stroke="#e8d792" fill-opacity="1" stroke-opacity="1"/><path d="M416,446L457,647L670,509Z" fill="#e5eda6" stroke="#e5eda6" fill-opacity="1" stroke-opacity="1"/><path d="M670,509L457,647L559,710Z" fill="#bce6ac" stroke="#bce6ac" fill-opacity="1" stroke-opacity="1"/><path d="M670,509L559,710L749,714Z" fill="#b4e6be" stroke="#b4e6be" fill-opacity="1" stroke-opacity="1"/><path d="M670,509L749,714L867,438Z" fill="#d8fbbc" stroke="#d8fbbc" fill-opacity="1" stroke-opacity="1"/><path d="M867,438L749,714L1068,542Z" fill="#c9f5ae" stroke="#c9f5ae" fill-opacity="1" stroke-opacity="1"/><path d="M867,438L1068,542L1007,368Z" fill="#e2f4aa" stroke="#e2f4aa" fill-opacity="1" stroke-opacity="1"/><path d="M1007,368L1068,542L1243,443Z" fill="#ccebad" stroke="#ccebad" fill-opacity="1" stroke-opacity="1"/><path d="M1243,443L1068,542L1199,664Z" fill="#a0e4b5" stroke="#a0e4b5" fill-opacity="1" stroke-opacity="1"/><path d="M1243,443L1199,664L1359,654Z" fill="#7cd6b7" stroke="#7cd6b7" fill-opacity="1" stroke-opacity="1"/><path d="M1243,443L1359,654L1368,439Z" fill="#94d4b9" stroke="#94d4b9" fill-opacity="1" stroke-opacity="1"/><path d="M1368,439L1359,654L1568,639Z" fill="#69bcc2" stroke="#69bcc2" fill-opacity="1" stroke-opacity="1"/><path d="M1368,439L1568,639L1458,402Z" fill="#85bdc0" stroke="#85bdc0" fill-opacity="1" stroke-opacity="1"/><path d="M1458,402L1568,639L1631,451Z" fill="#76afc7" stroke="#76afc7" fill-opacity="1" stroke-opacity="1"/><path d="M1631,451L1568,639L1725,607Z" fill="#579cd0" stroke="#579cd0" fill-opacity="1" stroke-opacity="1"/><path d="M-135,703L-50,965L-45,800Z" fill="#643baa" stroke="#643baa" fill-opacity="1" stroke-opacity="1"/><path d="M-135,703L-45,800L7,586Z" fill="#886e98" stroke="#886e98" fill-opacity="1" stroke-opacity="1"/><path d="M7,586L-45,800L48,845Z" fill="#7d649e" stroke="#7d649e" fill-opacity="1" stroke-opacity="1"/><path d="M7,586L48,845L232,710Z" fill="#907b96" stroke="#907b96" fill-opacity="1" stroke-opacity="1"/><path d="M232,710L48,845L279,870Z" fill="#7a63a2" stroke="#7a63a2" fill-opacity="1" stroke-opacity="1"/><path d="M232,710L279,870L424,848Z" fill="#7e7aad" stroke="#7e7aad" fill-opacity="1" stroke-opacity="1"/><path d="M232,710L424,848L457,647Z" fill="#94a1a7" stroke="#94a1a7" fill-opacity="1" stroke-opacity="1"/><path d="M457,647L424,848L559,710Z" fill="#94b0b4" stroke="#94b0b4" fill-opacity="1" stroke-opacity="1"/><path d="M559,710L424,848L591,851Z" fill="#7f9cc4" stroke="#7f9cc4" fill-opacity="1" stroke-opacity="1"/><path d="M559,710L591,851L749,714Z" fill="#8cb7cc" stroke="#8cb7cc" fill-opacity="1" stroke-opacity="1"/><path d="M749,714L591,851L785,762Z" fill="#86b7da" stroke="#86b7da" fill-opacity="1" stroke-opacity="1"/><path d="M749,714L785,762L1068,542Z" fill="#9fdbb9" stroke="#9fdbb9" fill-opacity="1" stroke-opacity="1"/><path d="M1068,542L785,762L1067,864Z" fill="#7ec1c2" stroke="#7ec1c2" fill-opacity="1" stroke-opacity="1"/><path d="M1068,542L1067,864L1199,664Z" fill="#72c4c0" stroke="#72c4c0" fill-opacity="1" stroke-opacity="1"/><path d="M1199,664L1067,864L1231,867Z" fill="#4396d1" stroke="#4396d1" fill-opacity="1" stroke-opacity="1"/><path d="M1199,664L1231,867L1359,654Z" fill="#48a8c8" stroke="#48a8c8" fill-opacity="1" stroke-opacity="1"/><path d="M1359,654L1231,867L1287,884Z" fill="#2c87d5" stroke="#2c87d5" fill-opacity="1" stroke-opacity="1"/><path d="M1359,654L1287,884L1482,732Z" fill="#2e8bd4" stroke="#2e8bd4" fill-opacity="1" stroke-opacity="1"/><path d="M1359,654L1482,732L1568,639Z" fill="#3c9bcd" stroke="#3c9bcd" fill-opacity="1" stroke-opacity="1"/><path d="M1568,639L1482,732L1690,742Z" fill="#227ed9" stroke="#227ed9" fill-opacity="1" stroke-opacity="1"/><path d="M1568,639L1690,742L1725,607Z" fill="#2e81d8" stroke="#2e81d8" fill-opacity="1" stroke-opacity="1"/><path d="M1725,607L1690,742L1693,1076Z" fill="#0042f1" stroke="#0042f1" fill-opacity="1" stroke-opacity="1"/><path d="M-45,800L-50,965L48,845Z" fill="#6930a8" stroke="#6930a8" fill-opacity="1" stroke-opacity="1"/><path d="M48,845L-50,965L49,1013Z" fill="#6c21a7" stroke="#6c21a7" fill-opacity="1" stroke-opacity="1"/><path d="M48,845L49,1013L279,870Z" fill="#7633a3" stroke="#7633a3" fill-opacity="1" stroke-opacity="1"/><path d="M279,870L49,1013L278,1017Z" fill="#7b3ba3" stroke="#7b3ba3" fill-opacity="1" stroke-opacity="1"/><path d="M279,870L278,1017L424,848Z" fill="#7e55ae" stroke="#7e55ae" fill-opacity="1" stroke-opacity="1"/><path d="M424,848L278,1017L460,1035Z" fill="#7f5cb4" stroke="#7f5cb4" fill-opacity="1" stroke-opacity="1"/><path d="M424,848L460,1035L591,851Z" fill="#7f6dc0" stroke="#7f6dc0" fill-opacity="1" stroke-opacity="1"/><path d="M591,851L460,1035L645,1032Z" fill="#7f73ca" stroke="#7f73ca" fill-opacity="1" stroke-opacity="1"/><path d="M591,851L645,1032L795,964Z" fill="#807dda" stroke="#807dda" fill-opacity="1" stroke-opacity="1"/><path d="M591,851L795,964L785,762Z" fill="#7f96de" stroke="#7f96de" fill-opacity="1" stroke-opacity="1"/><path d="M785,762L795,964L1067,864Z" fill="#7490cc" stroke="#7490cc" fill-opacity="1" stroke-opacity="1"/><path d="M1067,864L795,964L950,1024Z" fill="#6b77cd" stroke="#6b77cd" fill-opacity="1" stroke-opacity="1"/><path d="M1067,864L950,1024L1128,972Z" fill="#5970d1" stroke="#5970d1" fill-opacity="1" stroke-opacity="1"/><path d="M1067,864L1128,972L1231,867Z" fill="#4770d2" stroke="#4770d2" fill-opacity="1" stroke-opacity="1"/><path d="M1231,867L1128,972L1287,884Z" fill="#3968d2" stroke="#3968d2" fill-opacity="1" stroke-opacity="1"/><path d="M1287,884L1128,972L1370,1009Z" fill="#315ed3" stroke="#315ed3" fill-opacity="1" stroke-opacity="1"/><path d="M1287,884L1370,1009L1499,983Z" fill="#1f4adc" stroke="#1f4adc" fill-opacity="1" stroke-opacity="1"/><path d="M1287,884L1499,983L1482,732Z" fill="#1959de" stroke="#1959de" fill-opacity="1" stroke-opacity="1"/><path d="M1482,732L1499,983L1690,742Z" fill="#0655e7" stroke="#0655e7" fill-opacity="1" stroke-opacity="1"/><path d="M1690,742L1499,983L1693,1076Z" fill="#0023ec" stroke="#0023ec" fill-opacity="1" stroke-opacity="1"/><path d="M49,1013L460,1035L278,1017Z" fill="#7c46a8" stroke="#7c46a8" fill-opacity="1" stroke-opacity="1"/><path d="M460,1035L1693,1076L645,1032Z" fill="#6c78cd" stroke="#6c78cd" fill-opacity="1" stroke-opacity="1"/><path d="M645,1032L1693,1076L950,1024Z" fill="#506dd2" stroke="#506dd2" fill-opacity="1" stroke-opacity="1"/><path d="M645,1032L950,1024L795,964Z" fill="#7a7dd6" stroke="#7a7dd6" fill-opacity="1" stroke-opacity="1"/><path d="M950,1024L1693,1076L1370,1009Z" fill="#2652d9" stroke="#2652d9" fill-opacity="1" stroke-opacity="1"/><path d="M950,1024L1370,1009L1128,972Z" fill="#4668d2" stroke="#4668d2" fill-opacity="1" stroke-opacity="1"/><path d="M1370,1009L1693,1076L1499,983Z" fill="#0b34e5" stroke="#0b34e5" fill-opacity="1" stroke-opacity="1"/></g></svg>