<svg width="1600" height="799" xmlns="http://www.w3.org/2000/svg"><g><path d="M-118,-110L-164,904L-111,305Z" fill="#b89b7c" stroke="#b89b7c" fill-opacity="1" stroke-opacity="1"/><path d="M-118,-110L-111,305L-90,95Z" fill="#be7d34" stroke="#be7d34" fill-opacity="1" stroke-opacity="1"/><path d="M-118,-110L-90,95L72,-89Z" fill="#ac570b" stroke="#ac570b" fill-opacity="1" stroke-opacity="1"/><path d="M-118,-110L72,-89L314,-173Z" fill="#a84b1b" stroke="#a84b1b" fill-opacity="1" stroke-opacity="1"/><path d="M72,-89L-90,95L135,83Z" fill="#bf7b2f" stroke="#bf7b2f" fill-opacity="1" stroke-opacity="1"/><path d="M72,-89L135,83L314,-173Z" fill="#bb6f28" stroke="#bb6f28" fill-opacity="1" stroke-opacity="1"/><path d="M314,-173L135,83L187,139Z" fill="#cc9046" stroke="#cc9046" fill-opacity="1" stroke-opacity="1"/><path d="M314,-173L187,139L483,-48Z" fill="#ce9148" stroke="#ce9148" fill-opacity="1" stroke-opacity="1"/><path d="M314,-173L483,-48L832,-179Z" fill="#c27c69" stroke="#c27c69" fill-opacity="1" stroke-opacity="1"/><path d="M483,-48L187,139L500,111Z" fill="#e1b975" stroke="#e1b975" fill-opacity="1" stroke-opacity="1"/><path d="M483,-48L500,111L656,-30Z" fill="#ddb17f" stroke="#ddb17f" fill-opacity="1" stroke-opacity="1"/><path d="M483,-48L656,-30L832,-179Z" fill="#cb9479" stroke="#cb9479" fill-opacity="1" stroke-opacity="1"/><path d="M656,-30L500,111L678,108Z" fill="#e8c99d" stroke="#e8c99d" fill-opacity="1" stroke-opacity="1"/><path d="M656,-30L678,108L966,75Z" fill="#d0bf94" stroke="#d0bf94" fill-opacity="1" stroke-opacity="1"/><path d="M656,-30L966,75L832,-179Z" fill="#b5996e" stroke="#b5996e" fill-opacity="1" stroke-opacity="1"/><path d="M832,-179L966,75L1060,-85Z" fill="#9a8a61" stroke="#9a8a61" fill-opacity="1" stroke-opacity="1"/><path d="M832,-179L1060,-85L1330,-131Z" fill="#756353" stroke="#756353" fill-opacity="1" stroke-opacity="1"/><path d="M1060,-85L966,75L1125,172Z" fill="#9baa7a" stroke="#9baa7a" fill-opacity="1" stroke-opacity="1"/><path d="M1060,-85L1125,172L1216,-51Z" fill="#839161" stroke="#839161" fill-opacity="1" stroke-opacity="1"/><path d="M1060,-85L1216,-51L1330,-131Z" fill="#636543" stroke="#636543" fill-opacity="1" stroke-opacity="1"/><path d="M1216,-51L1125,172L1342,122Z" fill="#7da06e" stroke="#7da06e" fill-opacity="1" stroke-opacity="1"/><path d="M1216,-51L1342,122L1330,-131Z" fill="#607341" stroke="#607341" fill-opacity="1" stroke-opacity="1"/><path d="M1330,-131L1342,122L1528,-7Z" fill="#626d39" stroke="#626d39" fill-opacity="1" stroke-opacity="1"/><path d="M1330,-131L1528,-7L1698,-73Z" fill="#57481b" stroke="#57481b" fill-opacity="1" stroke-opacity="1"/><path d="M1528,-7L1342,122L1475,148Z" fill="#738955" stroke="#738955" fill-opacity="1" stroke-opacity="1"/><path d="M1528,-7L1475,148L1635,3Z" fill="#6c703a" stroke="#6c703a" fill-opacity="1" stroke-opacity="1"/><path d="M1528,-7L1635,3L1698,-73Z" fill="#5f4c17" stroke="#5f4c17" fill-opacity="1" stroke-opacity="1"/><path d="M1698,-73L1635,3L1773,229Z" fill="#6d6029" stroke="#6d6029" fill-opacity="1" stroke-opacity="1"/><path d="M-90,95L-111,305L130,335Z" fill="#d1a771" stroke="#d1a771" fill-opacity="1" stroke-opacity="1"/><path d="M-90,95L130,335L187,222Z" fill="#d9b476" stroke="#d9b476" fill-opacity="1" stroke-opacity="1"/><path d="M-90,95L187,222L135,83Z" fill="#d5a65a" stroke="#d5a65a" fill-opacity="1" stroke-opacity="1"/><path d="M135,83L187,222L187,139Z" fill="#e0b96e" stroke="#e0b96e" fill-opacity="1" stroke-opacity="1"/><path d="M187,139L187,222L490,198Z" fill="#ecd28d" stroke="#ecd28d" fill-opacity="1" stroke-opacity="1"/><path d="M187,139L490,198L500,111Z" fill="#f0d793" stroke="#f0d793" fill-opacity="1" stroke-opacity="1"/><path d="M500,111L490,198L678,108Z" fill="#f4e0ae" stroke="#f4e0ae" fill-opacity="1" stroke-opacity="1"/><path d="M678,108L490,198L638,272Z" fill="#f9eec9" stroke="#f9eec9" fill-opacity="1" stroke-opacity="1"/><path d="M678,108L638,272L722,153Z" fill="#f3edc8" stroke="#f3edc8" fill-opacity="1" stroke-opacity="1"/><path d="M678,108L722,153L966,75Z" fill="#d7d3a8" stroke="#d7d3a8" fill-opacity="1" stroke-opacity="1"/><path d="M722,153L638,272L766,278Z" fill="#eeefd8" stroke="#eeefd8" fill-opacity="1" stroke-opacity="1"/><path d="M722,153L766,278L913,222Z" fill="#dde9cb" stroke="#dde9cb" fill-opacity="1" stroke-opacity="1"/><path d="M722,153L913,222L966,75Z" fill="#cfddaf" stroke="#cfddaf" fill-opacity="1" stroke-opacity="1"/><path d="M966,75L913,222L1125,172Z" fill="#b7d4a5" stroke="#b7d4a5" fill-opacity="1" stroke-opacity="1"/><path d="M1125,172L913,222L1181,447Z" fill="#a9d7c5" stroke="#a9d7c5" fill-opacity="1" stroke-opacity="1"/><path d="M1125,172L1181,447L1260,222Z" fill="#92cab7" stroke="#92cab7" fill-opacity="1" stroke-opacity="1"/><path d="M1125,172L1260,222L1342,122Z" fill="#88bb8c" stroke="#88bb8c" fill-opacity="1" stroke-opacity="1"/><path d="M1342,122L1260,222L1300,207Z" fill="#80b689" stroke="#80b689" fill-opacity="1" stroke-opacity="1"/><path d="M1342,122L1300,207L1475,148Z" fill="#80ab77" stroke="#80ab77" fill-opacity="1" stroke-opacity="1"/><path d="M1475,148L1300,207L1474,263Z" fill="#80aa82" stroke="#80aa82" fill-opacity="1" stroke-opacity="1"/><path d="M1475,148L1474,263L1773,229Z" fill="#809971" stroke="#809971" fill-opacity="1" stroke-opacity="1"/><path d="M1475,148L1773,229L1635,3Z" fill="#7a834c" stroke="#7a834c" fill-opacity="1" stroke-opacity="1"/><path d="M-111,305L-164,904L-111,518Z" fill="#717e57" stroke="#717e57" fill-opacity="1" stroke-opacity="1"/><path d="M-111,305L-111,518L133,380Z" fill="#b6a982" stroke="#b6a982" fill-opacity="1" stroke-opacity="1"/><path d="M-111,305L133,380L130,335Z" fill="#d1b793" stroke="#d1b793" fill-opacity="1" stroke-opacity="1"/><path d="M130,335L133,380L306,419Z" fill="#d1cba6" stroke="#d1cba6" fill-opacity="1" stroke-opacity="1"/><path d="M130,335L306,419L187,222Z" fill="#e3d0ac" stroke="#e3d0ac" fill-opacity="1" stroke-opacity="1"/><path d="M187,222L306,419L490,198Z" fill="#f0deb3" stroke="#f0deb3" fill-opacity="1" stroke-opacity="1"/><path d="M490,198L306,419L460,487Z" fill="#e3e7cd" stroke="#e3e7cd" fill-opacity="1" stroke-opacity="1"/><path d="M490,198L460,487L638,272Z" fill="#f6f1e6" stroke="#f6f1e6" fill-opacity="1" stroke-opacity="1"/><path d="M638,272L460,487L635,457Z" fill="#ddf3e8" stroke="#ddf3e8" fill-opacity="1" stroke-opacity="1"/><path d="M638,272L635,457L750,449Z" fill="#dcf6f2" stroke="#dcf6f2" fill-opacity="1" stroke-opacity="1"/><path d="M638,272L750,449L766,278Z" fill="#e7f5f3" stroke="#e7f5f3" fill-opacity="1" stroke-opacity="1"/><path d="M766,278L750,449L913,222Z" fill="#dbf0eb" stroke="#dbf0eb" fill-opacity="1" stroke-opacity="1"/><path d="M913,222L750,449L979,517Z" fill="#b6e9e1" stroke="#b6e9e1" fill-opacity="1" stroke-opacity="1"/><path d="M913,222L979,517L1181,447Z" fill="#9addd2" stroke="#9addd2" fill-opacity="1" stroke-opacity="1"/><path d="M1260,222L1181,447L1323,472Z" fill="#72c3b6" stroke="#72c3b6" fill-opacity="1" stroke-opacity="1"/><path d="M1260,222L1323,472L1300,207Z" fill="#80bfb0" stroke="#80bfb0" fill-opacity="1" stroke-opacity="1"/><path d="M1300,207L1323,472L1474,263Z" fill="#80b8ac" stroke="#80b8ac" fill-opacity="1" stroke-opacity="1"/><path d="M1474,263L1323,472L1560,409Z" fill="#6cad9e" stroke="#6cad9e" fill-opacity="1" stroke-opacity="1"/><path d="M1474,263L1560,409L1679,392Z" fill="#74a191" stroke="#74a191" fill-opacity="1" stroke-opacity="1"/><path d="M1474,263L1679,392L1773,229Z" fill="#809883" stroke="#809883" fill-opacity="1" stroke-opacity="1"/><path d="M1773,229L1679,392L1771,775Z" fill="#518a74" stroke="#518a74" fill-opacity="1" stroke-opacity="1"/><path d="M-111,518L-164,904L-103,758Z" fill="#48552a" stroke="#48552a" fill-opacity="1" stroke-opacity="1"/><path d="M-111,518L-103,758L-68,677Z" fill="#586f40" stroke="#586f40" fill-opacity="1" stroke-opacity="1"/><path d="M-111,518L-68,677L160,645Z" fill="#6e8657" stroke="#6e8657" fill-opacity="1" stroke-opacity="1"/><path d="M-111,518L160,645L133,380Z" fill="#98ab7f" stroke="#98ab7f" fill-opacity="1" stroke-opacity="1"/><path d="M133,380L160,645L289,579Z" fill="#9dba8e" stroke="#9dba8e" fill-opacity="1" stroke-opacity="1"/><path d="M133,380L289,579L306,419Z" fill="#bbd1a7" stroke="#bbd1a7" fill-opacity="1" stroke-opacity="1"/><path d="M306,419L289,579L460,487Z" fill="#b7dab3" stroke="#b7dab3" fill-opacity="1" stroke-opacity="1"/><path d="M460,487L289,579L416,646Z" fill="#9dc8a4" stroke="#9dc8a4" fill-opacity="1" stroke-opacity="1"/><path d="M460,487L416,646L689,617Z" fill="#9dcfb9" stroke="#9dcfb9" fill-opacity="1" stroke-opacity="1"/><path d="M460,487L689,617L635,457Z" fill="#b6e7d9" stroke="#b6e7d9" fill-opacity="1" stroke-opacity="1"/><path d="M635,457L689,617L750,449Z" fill="#b3ebe1" stroke="#b3ebe1" fill-opacity="1" stroke-opacity="1"/><path d="M750,449L689,617L771,585Z" fill="#9bdcd1" stroke="#9bdcd1" fill-opacity="1" stroke-opacity="1"/><path d="M750,449L771,585L979,517Z" fill="#95dfd3" stroke="#95dfd3" fill-opacity="1" stroke-opacity="1"/><path d="M979,517L771,585L925,612Z" fill="#77cdbe" stroke="#77cdbe" fill-opacity="1" stroke-opacity="1"/><path d="M979,517L925,612L1110,669Z" fill="#57bcab" stroke="#57bcab" fill-opacity="1" stroke-opacity="1"/><path d="M979,517L1110,669L1181,447Z" fill="#5ac1b0" stroke="#5ac1b0" fill-opacity="1" stroke-opacity="1"/><path d="M1181,447L1110,669L1323,472Z" fill="#49b8a6" stroke="#49b8a6" fill-opacity="1" stroke-opacity="1"/><path d="M1323,472L1110,669L1356,710Z" fill="#1e9a85" stroke="#1e9a85" fill-opacity="1" stroke-opacity="1"/><path d="M1323,472L1356,710L1508,611Z" fill="#21907a" stroke="#21907a" fill-opacity="1" stroke-opacity="1"/><path d="M1323,472L1508,611L1560,409Z" fill="#46a48f" stroke="#46a48f" fill-opacity="1" stroke-opacity="1"/><path d="M1560,409L1508,611L1679,392Z" fill="#4f9c86" stroke="#4f9c86" fill-opacity="1" stroke-opacity="1"/><path d="M1679,392L1508,611L1634,713Z" fill="#2a7f67" stroke="#2a7f67" fill-opacity="1" stroke-opacity="1"/><path d="M1679,392L1634,713L1771,775Z" fill="#16674c" stroke="#16674c" fill-opacity="1" stroke-opacity="1"/><path d="M-68,677L-103,758L132,889Z" fill="#525926" stroke="#525926" fill-opacity="1" stroke-opacity="1"/><path d="M-68,677L132,889L160,645Z" fill="#5a713f" stroke="#5a713f" fill-opacity="1" stroke-opacity="1"/><path d="M160,645L132,889L343,898Z" fill="#66713e" stroke="#66713e" fill-opacity="1" stroke-opacity="1"/><path d="M160,645L343,898L410,812Z" fill="#6e8654" stroke="#6e8654" fill-opacity="1" stroke-opacity="1"/><path d="M160,645L410,812L289,579Z" fill="#70a172" stroke="#70a172" fill-opacity="1" stroke-opacity="1"/><path d="M289,579L410,812L416,646Z" fill="#75a980" stroke="#75a980" fill-opacity="1" stroke-opacity="1"/><path d="M416,646L410,812L542,782Z" fill="#749e7c" stroke="#749e7c" fill-opacity="1" stroke-opacity="1"/><path d="M416,646L542,782L689,617Z" fill="#7ab7a1" stroke="#7ab7a1" fill-opacity="1" stroke-opacity="1"/><path d="M689,617L542,782L859,801Z" fill="#70ad9e" stroke="#70ad9e" fill-opacity="1" stroke-opacity="1"/><path d="M689,617L859,801L771,585Z" fill="#69baab" stroke="#69baab" fill-opacity="1" stroke-opacity="1"/><path d="M771,585L859,801L925,612Z" fill="#5cb5a5" stroke="#5cb5a5" fill-opacity="1" stroke-opacity="1"/><path d="M925,612L859,801L935,838Z" fill="#4a9b88" stroke="#4a9b88" fill-opacity="1" stroke-opacity="1"/><path d="M925,612L935,838L1110,669Z" fill="#3aa08d" stroke="#3aa08d" fill-opacity="1" stroke-opacity="1"/><path d="M1110,669L935,838L1143,923Z" fill="#2c7c64" stroke="#2c7c64" fill-opacity="1" stroke-opacity="1"/><path d="M1110,669L1143,923L1240,804Z" fill="#18735b" stroke="#18735b" fill-opacity="1" stroke-opacity="1"/><path d="M1110,669L1240,804L1356,710Z" fill="#0a7f67" stroke="#0a7f67" fill-opacity="1" stroke-opacity="1"/><path d="M1356,710L1240,804L1289,833Z" fill="#006950" stroke="#006950" fill-opacity="1" stroke-opacity="1"/><path d="M1356,710L1289,833L1493,861Z" fill="#005b40" stroke="#005b40" fill-opacity="1" stroke-opacity="1"/><path d="M1356,710L1493,861L1508,611Z" fill="#00664d" stroke="#00664d" fill-opacity="1" stroke-opacity="1"/><path d="M1508,611L1493,861L1634,713Z" fill="#005b41" stroke="#005b41" fill-opacity="1" stroke-opacity="1"/><path d="M1634,713L1493,861L1630,947Z" fill="#00381a" stroke="#00381a" fill-opacity="1" stroke-opacity="1"/><path d="M1634,713L1630,947L1771,775Z" fill="#003617" stroke="#003617" fill-opacity="1" stroke-opacity="1"/><path d="M-103,758L-164,904L132,889Z" fill="#4f3f0b" stroke="#4f3f0b" fill-opacity="1" stroke-opacity="1"/><path d="M132,889L-164,904L131,1063Z" fill="#563612" stroke="#563612" fill-opacity="1" stroke-opacity="1"/><path d="M132,889L131,1063L319,971Z" fill="#654e2b" stroke="#654e2b" fill-opacity="1" stroke-opacity="1"/><path d="M132,889L319,971L343,898Z" fill="#6b5b36" stroke="#6b5b36" fill-opacity="1" stroke-opacity="1"/><path d="M343,898L319,971L521,1072Z" fill="#72674d" stroke="#72674d" fill-opacity="1" stroke-opacity="1"/><path d="M343,898L521,1072L410,812Z" fill="#736a52" stroke="#736a52" fill-opacity="1" stroke-opacity="1"/><path d="M410,812L521,1072L586,1039Z" fill="#767062" stroke="#767062" fill-opacity="1" stroke-opacity="1"/><path d="M410,812L586,1039L542,782Z" fill="#767f63" stroke="#767f63" fill-opacity="1" stroke-opacity="1"/><path d="M542,782L586,1039L859,801Z" fill="#778879" stroke="#778879" fill-opacity="1" stroke-opacity="1"/><path d="M859,801L586,1039L919,936Z" fill="#60736f" stroke="#60736f" fill-opacity="1" stroke-opacity="1"/><path d="M859,801L919,936L935,838Z" fill="#4a7e68" stroke="#4a7e68" fill-opacity="1" stroke-opacity="1"/><path d="M935,838L919,936L1143,923Z" fill="#396b5c" stroke="#396b5c" fill-opacity="1" stroke-opacity="1"/><path d="M1240,804L1143,923L1289,833Z" fill="#0c5e44" stroke="#0c5e44" fill-opacity="1" stroke-opacity="1"/><path d="M1289,833L1143,923L1389,1078Z" fill="#02433a" stroke="#02433a" fill-opacity="1" stroke-opacity="1"/><path d="M1289,833L1389,1078L1467,930Z" fill="#00372c" stroke="#00372c" fill-opacity="1" stroke-opacity="1"/><path d="M1289,833L1467,930L1493,861Z" fill="#004228" stroke="#004228" fill-opacity="1" stroke-opacity="1"/><path d="M1493,861L1467,930L1630,947Z" fill="#002b1a" stroke="#002b1a" fill-opacity="1" stroke-opacity="1"/><path d="M131,1063L521,1072L319,971Z" fill="#70623f" stroke="#70623f" fill-opacity="1" stroke-opacity="1"/><path d="M521,1072L1389,1078L889,1039Z" fill="#456863" stroke="#456863" fill-opacity="1" stroke-opacity="1"/><path d="M521,1072L889,1039L586,1039Z" fill="#767979" stroke="#767979" fill-opacity="1" stroke-opacity="1"/><path d="M586,1039L889,1039L919,936Z" fill="#5e716e" stroke="#5e716e" fill-opacity="1" stroke-opacity="1"/><path d="M889,1039L1389,1078L1143,923Z" fill="#1c524a" stroke="#1c524a" fill-opacity="1" stroke-opacity="1"/><path d="M889,1039L1143,923L919,936Z" fill="#3c645e" stroke="#3c645e" fill-opacity="1" stroke-opacity="1"/><path d="M1389,1078L1630,947L1467,930Z" fill="#002b1e" stroke="#002b1e" fill-opacity="1" stroke-opacity="1"/></g></svg>