<svg width="1600" height="799" xmlns="http://www.w3.org/2000/svg"><g><path d="M-21,-56L-38,31L65,169Z" fill="#fffbfd" stroke="#fffbfd" fill-opacity="1" stroke-opacity="1"/><path d="M-21,-56L65,169L64,-158Z" fill="#fdf9fc" stroke="#fdf9fc" fill-opacity="1" stroke-opacity="1"/><path d="M64,-158L65,169L274,170Z" fill="#f8f3f9" stroke="#f8f3f9" fill-opacity="1" stroke-opacity="1"/><path d="M64,-158L274,170L280,-162Z" fill="#f4eff7" stroke="#f4eff7" fill-opacity="1" stroke-opacity="1"/><path d="M280,-162L274,170L484,-5Z" fill="#e9e9f3" stroke="#e9e9f3" fill-opacity="1" stroke-opacity="1"/><path d="M280,-162L484,-5L697,-44Z" fill="#d8e1ef" stroke="#d8e1ef" fill-opacity="1" stroke-opacity="1"/><path d="M280,-162L697,-44L1070,-151Z" fill="#b8d6e8" stroke="#b8d6e8" fill-opacity="1" stroke-opacity="1"/><path d="M484,-5L274,170L498,69Z" fill="#e0e5f1" stroke="#e0e5f1" fill-opacity="1" stroke-opacity="1"/><path d="M484,-5L498,69L697,-44Z" fill="#ceddec" stroke="#ceddec" fill-opacity="1" stroke-opacity="1"/><path d="M697,-44L498,69L700,104Z" fill="#c1d9ea" stroke="#c1d9ea" fill-opacity="1" stroke-opacity="1"/><path d="M697,-44L700,104L748,8Z" fill="#b3d4e7" stroke="#b3d4e7" fill-opacity="1" stroke-opacity="1"/><path d="M697,-44L748,8L801,-12Z" fill="#aed2e6" stroke="#aed2e6" fill-opacity="1" stroke-opacity="1"/><path d="M697,-44L801,-12L1070,-151Z" fill="#9fcae1" stroke="#9fcae1" fill-opacity="1" stroke-opacity="1"/><path d="M801,-12L748,8L700,104Z" fill="#aed2e6" stroke="#aed2e6" fill-opacity="1" stroke-opacity="1"/><path d="M801,-12L700,104L929,172Z" fill="#a6cde3" stroke="#a6cde3" fill-opacity="1" stroke-opacity="1"/><path d="M801,-12L929,172L1108,-46Z" fill="#92c5d7" stroke="#92c5d7" fill-opacity="1" stroke-opacity="1"/><path d="M801,-12L1108,-46L1070,-151Z" fill="#8cc3d0" stroke="#8cc3d0" fill-opacity="1" stroke-opacity="1"/><path d="M1070,-151L1108,-46L1331,-124Z" fill="#80bab7" stroke="#80bab7" fill-opacity="1" stroke-opacity="1"/><path d="M1070,-151L1331,-124L1782,-135Z" fill="#80a69d" stroke="#80a69d" fill-opacity="1" stroke-opacity="1"/><path d="M1108,-46L929,172L1184,100Z" fill="#81c0c4" stroke="#81c0c4" fill-opacity="1" stroke-opacity="1"/><path d="M1108,-46L1184,100L1331,-124Z" fill="#80b8b1" stroke="#80b8b1" fill-opacity="1" stroke-opacity="1"/><path d="M1331,-124L1184,100L1396,143Z" fill="#80afa6" stroke="#80afa6" fill-opacity="1" stroke-opacity="1"/><path d="M1331,-124L1396,143L1457,-11Z" fill="#80a69d" stroke="#80a69d" fill-opacity="1" stroke-opacity="1"/><path d="M1331,-124L1457,-11L1782,-135Z" fill="#809891" stroke="#809891" fill-opacity="1" stroke-opacity="1"/><path d="M1457,-11L1396,143L1534,151Z" fill="#809e97" stroke="#809e97" fill-opacity="1" stroke-opacity="1"/><path d="M1457,-11L1534,151L1796,99Z" fill="#80908a" stroke="#80908a" fill-opacity="1" stroke-opacity="1"/><path d="M1457,-11L1796,99L1782,-135Z" fill="#808782" stroke="#808782" fill-opacity="1" stroke-opacity="1"/><path d="M-38,31L-127,532L-12,246Z" fill="#e1efff" stroke="#e1efff" fill-opacity="1" stroke-opacity="1"/><path d="M-38,31L-12,246L22,181Z" fill="#fdfafe" stroke="#fdfafe" fill-opacity="1" stroke-opacity="1"/><path d="M-38,31L22,181L65,169Z" fill="#fdf9fd" stroke="#fdf9fd" fill-opacity="1" stroke-opacity="1"/><path d="M65,169L22,181L-12,246Z" fill="#f4f4fc" stroke="#f4f4fc" fill-opacity="1" stroke-opacity="1"/><path d="M65,169L-12,246L206,206Z" fill="#efeffb" stroke="#efeffb" fill-opacity="1" stroke-opacity="1"/><path d="M65,169L206,206L274,170Z" fill="#f1edf8" stroke="#f1edf8" fill-opacity="1" stroke-opacity="1"/><path d="M274,170L206,206L243,386Z" fill="#d8e0f6" stroke="#d8e0f6" fill-opacity="1" stroke-opacity="1"/><path d="M274,170L243,386L387,202Z" fill="#d4def4" stroke="#d4def4" fill-opacity="1" stroke-opacity="1"/><path d="M274,170L387,202L498,69Z" fill="#e2e5f2" stroke="#e2e5f2" fill-opacity="1" stroke-opacity="1"/><path d="M498,69L387,202L586,375Z" fill="#cad9ef" stroke="#cad9ef" fill-opacity="1" stroke-opacity="1"/><path d="M498,69L586,375L683,302Z" fill="#b1cfeb" stroke="#b1cfeb" fill-opacity="1" stroke-opacity="1"/><path d="M498,69L683,302L700,104Z" fill="#c0d6ea" stroke="#c0d6ea" fill-opacity="1" stroke-opacity="1"/><path d="M700,104L683,302L929,172Z" fill="#a3cbe5" stroke="#a3cbe5" fill-opacity="1" stroke-opacity="1"/><path d="M929,172L683,302L807,358Z" fill="#85bde3" stroke="#85bde3" fill-opacity="1" stroke-opacity="1"/><path d="M929,172L807,358L825,362Z" fill="#76b7e0" stroke="#76b7e0" fill-opacity="1" stroke-opacity="1"/><path d="M929,172L825,362L949,294Z" fill="#78b7dd" stroke="#78b7dd" fill-opacity="1" stroke-opacity="1"/><path d="M929,172L949,294L1184,100Z" fill="#81becc" stroke="#81becc" fill-opacity="1" stroke-opacity="1"/><path d="M1184,100L949,294L1234,257Z" fill="#72b4bd" stroke="#72b4bd" fill-opacity="1" stroke-opacity="1"/><path d="M1184,100L1234,257L1396,143Z" fill="#7db0aa" stroke="#7db0aa" fill-opacity="1" stroke-opacity="1"/><path d="M1396,143L1234,257L1343,255Z" fill="#71a5a4" stroke="#71a5a4" fill-opacity="1" stroke-opacity="1"/><path d="M1396,143L1343,255L1534,151Z" fill="#7b9f9b" stroke="#7b9f9b" fill-opacity="1" stroke-opacity="1"/><path d="M1534,151L1343,255L1560,325Z" fill="#6a9195" stroke="#6a9195" fill-opacity="1" stroke-opacity="1"/><path d="M1534,151L1560,325L1670,239Z" fill="#6c868a" stroke="#6c868a" fill-opacity="1" stroke-opacity="1"/><path d="M1534,151L1670,239L1796,99Z" fill="#7d8683" stroke="#7d8683" fill-opacity="1" stroke-opacity="1"/><path d="M1796,99L1670,239L1674,361Z" fill="#6d7980" stroke="#6d7980" fill-opacity="1" stroke-opacity="1"/><path d="M1796,99L1674,361L1697,552Z" fill="#466a7d" stroke="#466a7d" fill-opacity="1" stroke-opacity="1"/><path d="M1796,99L1697,552L1772,767Z" fill="#1c5368" stroke="#1c5368" fill-opacity="1" stroke-opacity="1"/><path d="M1796,99L1772,767L1767,982Z" fill="#124237" stroke="#124237" fill-opacity="1" stroke-opacity="1"/><path d="M-12,246L-127,532L171,540Z" fill="#a1d2f0" stroke="#a1d2f0" fill-opacity="1" stroke-opacity="1"/><path d="M-12,246L171,540L243,386Z" fill="#aad2f2" stroke="#aad2f2" fill-opacity="1" stroke-opacity="1"/><path d="M-12,246L243,386L206,206Z" fill="#d5e2f8" stroke="#d5e2f8" fill-opacity="1" stroke-opacity="1"/><path d="M387,202L243,386L381,425Z" fill="#afd1f0" stroke="#afd1f0" fill-opacity="1" stroke-opacity="1"/><path d="M387,202L381,425L586,375Z" fill="#a3cbed" stroke="#a3cbed" fill-opacity="1" stroke-opacity="1"/><path d="M683,302L586,375L807,358Z" fill="#79bce4" stroke="#79bce4" fill-opacity="1" stroke-opacity="1"/><path d="M807,358L586,375L773,597Z" fill="#52aada" stroke="#52aada" fill-opacity="1" stroke-opacity="1"/><path d="M807,358L773,597L825,362Z" fill="#49a5d7" stroke="#49a5d7" fill-opacity="1" stroke-opacity="1"/><path d="M949,294L825,362L1001,504Z" fill="#49a6d3" stroke="#49a6d3" fill-opacity="1" stroke-opacity="1"/><path d="M949,294L1001,504L1254,420Z" fill="#2e9dbc" stroke="#2e9dbc" fill-opacity="1" stroke-opacity="1"/><path d="M949,294L1254,420L1234,257Z" fill="#4ca5b7" stroke="#4ca5b7" fill-opacity="1" stroke-opacity="1"/><path d="M1234,257L1254,420L1343,255Z" fill="#519da7" stroke="#519da7" fill-opacity="1" stroke-opacity="1"/><path d="M1343,255L1254,420L1405,376Z" fill="#40929f" stroke="#40929f" fill-opacity="1" stroke-opacity="1"/><path d="M1343,255L1405,376L1560,325Z" fill="#4e8b97" stroke="#4e8b97" fill-opacity="1" stroke-opacity="1"/><path d="M1560,325L1405,376L1544,383Z" fill="#3c7e8e" stroke="#3c7e8e" fill-opacity="1" stroke-opacity="1"/><path d="M1560,325L1544,383L1674,361Z" fill="#3e7686" stroke="#3e7686" fill-opacity="1" stroke-opacity="1"/><path d="M1560,325L1674,361L1670,239Z" fill="#527884" stroke="#527884" fill-opacity="1" stroke-opacity="1"/><path d="M-127,532L-15,970L-77,684Z" fill="#91a49b" stroke="#91a49b" fill-opacity="1" stroke-opacity="1"/><path d="M-127,532L-77,684L168,599Z" fill="#91bfb9" stroke="#91bfb9" fill-opacity="1" stroke-opacity="1"/><path d="M-127,532L168,599L171,540Z" fill="#8dc1c6" stroke="#8dc1c6" fill-opacity="1" stroke-opacity="1"/><path d="M171,540L168,599L331,607Z" fill="#84b5b9" stroke="#84b5b9" fill-opacity="1" stroke-opacity="1"/><path d="M171,540L331,607L243,386Z" fill="#86bdd0" stroke="#86bdd0" fill-opacity="1" stroke-opacity="1"/><path d="M243,386L331,607L381,425Z" fill="#87bedc" stroke="#87bedc" fill-opacity="1" stroke-opacity="1"/><path d="M381,425L331,607L494,664Z" fill="#74afb9" stroke="#74afb9" fill-opacity="1" stroke-opacity="1"/><path d="M381,425L494,664L586,375Z" fill="#72b3d2" stroke="#72b3d2" fill-opacity="1" stroke-opacity="1"/><path d="M586,375L494,664L551,663Z" fill="#63a6b4" stroke="#63a6b4" fill-opacity="1" stroke-opacity="1"/><path d="M586,375L551,663L773,597Z" fill="#52a4b8" stroke="#52a4b8" fill-opacity="1" stroke-opacity="1"/><path d="M825,362L773,597L950,576Z" fill="#369abb" stroke="#369abb" fill-opacity="1" stroke-opacity="1"/><path d="M825,362L950,576L1001,504Z" fill="#3099c0" stroke="#3099c0" fill-opacity="1" stroke-opacity="1"/><path d="M1001,504L950,576L1135,752Z" fill="#188484" stroke="#188484" fill-opacity="1" stroke-opacity="1"/><path d="M1001,504L1135,752L1220,682Z" fill="#13786d" stroke="#13786d" fill-opacity="1" stroke-opacity="1"/><path d="M1001,504L1220,682L1254,420Z" fill="#12888a" stroke="#12888a" fill-opacity="1" stroke-opacity="1"/><path d="M1254,420L1220,682L1303,665Z" fill="#127a6b" stroke="#127a6b" fill-opacity="1" stroke-opacity="1"/><path d="M1254,420L1303,665L1485,620Z" fill="#127369" stroke="#127369" fill-opacity="1" stroke-opacity="1"/><path d="M1254,420L1485,620L1405,376Z" fill="#1c7b87" stroke="#1c7b87" fill-opacity="1" stroke-opacity="1"/><path d="M1405,376L1485,620L1544,383Z" fill="#1e7282" stroke="#1e7282" fill-opacity="1" stroke-opacity="1"/><path d="M1544,383L1485,620L1697,552Z" fill="#156163" stroke="#156163" fill-opacity="1" stroke-opacity="1"/><path d="M1544,383L1697,552L1674,361Z" fill="#256479" stroke="#256479" fill-opacity="1" stroke-opacity="1"/><path d="M-77,684L-15,970L-39,752Z" fill="#91908a" stroke="#91908a" fill-opacity="1" stroke-opacity="1"/><path d="M-77,684L-39,752L118,727Z" fill="#91a29b" stroke="#91a29b" fill-opacity="1" stroke-opacity="1"/><path d="M-77,684L118,727L168,599Z" fill="#8eaca5" stroke="#8eaca5" fill-opacity="1" stroke-opacity="1"/><path d="M168,599L118,727L331,607Z" fill="#86aaa7" stroke="#86aaa7" fill-opacity="1" stroke-opacity="1"/><path d="M331,607L118,727L351,818Z" fill="#819594" stroke="#819594" fill-opacity="1" stroke-opacity="1"/><path d="M331,607L351,818L376,794Z" fill="#7a8b8c" stroke="#7a8b8c" fill-opacity="1" stroke-opacity="1"/><path d="M331,607L376,794L494,664Z" fill="#749597" stroke="#749597" fill-opacity="1" stroke-opacity="1"/><path d="M494,664L376,794L551,663Z" fill="#6c8d91" stroke="#6c8d91" fill-opacity="1" stroke-opacity="1"/><path d="M551,663L376,794L629,972Z" fill="#666f77" stroke="#666f77" fill-opacity="1" stroke-opacity="1"/><path d="M551,663L629,972L702,889Z" fill="#54616c" stroke="#54616c" fill-opacity="1" stroke-opacity="1"/><path d="M551,663L702,889L773,597Z" fill="#4c7f87" stroke="#4c7f87" fill-opacity="1" stroke-opacity="1"/><path d="M773,597L702,889L924,829Z" fill="#396876" stroke="#396876" fill-opacity="1" stroke-opacity="1"/><path d="M773,597L924,829L950,576Z" fill="#2e7d8b" stroke="#2e7d8b" fill-opacity="1" stroke-opacity="1"/><path d="M950,576L924,829L1135,752Z" fill="#1c6a6d" stroke="#1c6a6d" fill-opacity="1" stroke-opacity="1"/><path d="M1220,682L1135,752L1295,888Z" fill="#125142" stroke="#125142" fill-opacity="1" stroke-opacity="1"/><path d="M1220,682L1295,888L1303,665Z" fill="#125442" stroke="#125442" fill-opacity="1" stroke-opacity="1"/><path d="M1303,665L1295,888L1482,854Z" fill="#123b2b" stroke="#123b2b" fill-opacity="1" stroke-opacity="1"/><path d="M1303,665L1482,854L1485,620Z" fill="#124c3b" stroke="#124c3b" fill-opacity="1" stroke-opacity="1"/><path d="M1485,620L1482,854L1772,767Z" fill="#123223" stroke="#123223" fill-opacity="1" stroke-opacity="1"/><path d="M1485,620L1772,767L1697,552Z" fill="#124534" stroke="#124534" fill-opacity="1" stroke-opacity="1"/><path d="M-39,752L-15,970L118,727Z" fill="#908884" stroke="#908884" fill-opacity="1" stroke-opacity="1"/><path d="M118,727L-15,970L87,1070Z" fill="#8e787c" stroke="#8e787c" fill-opacity="1" stroke-opacity="1"/><path d="M118,727L87,1070L351,818Z" fill="#877178" stroke="#877178" fill-opacity="1" stroke-opacity="1"/><path d="M351,818L87,1070L280,1075Z" fill="#836e77" stroke="#836e77" fill-opacity="1" stroke-opacity="1"/><path d="M351,818L280,1075L428,1074Z" fill="#7a6973" stroke="#7a6973" fill-opacity="1" stroke-opacity="1"/><path d="M351,818L428,1074L376,794Z" fill="#766772" stroke="#766772" fill-opacity="1" stroke-opacity="1"/><path d="M376,794L428,1074L629,972Z" fill="#6b626f" stroke="#6b626f" fill-opacity="1" stroke-opacity="1"/><path d="M702,889L629,972L856,1057Z" fill="#435367" stroke="#435367" fill-opacity="1" stroke-opacity="1"/><path d="M702,889L856,1057L891,885Z" fill="#374d63" stroke="#374d63" fill-opacity="1" stroke-opacity="1"/><path d="M702,889L891,885L924,829Z" fill="#344c62" stroke="#344c62" fill-opacity="1" stroke-opacity="1"/><path d="M891,885L856,1057L1025,1077Z" fill="#28475b" stroke="#28475b" fill-opacity="1" stroke-opacity="1"/><path d="M891,885L1025,1077L924,829Z" fill="#244657" stroke="#244657" fill-opacity="1" stroke-opacity="1"/><path d="M924,829L1025,1077L1135,752Z" fill="#18424b" stroke="#18424b" fill-opacity="1" stroke-opacity="1"/><path d="M1135,752L1025,1077L1295,888Z" fill="#133c3a" stroke="#133c3a" fill-opacity="1" stroke-opacity="1"/><path d="M1295,888L1025,1077L1247,1062Z" fill="#123a34" stroke="#123a34" fill-opacity="1" stroke-opacity="1"/><path d="M1295,888L1247,1062L1329,1032Z" fill="#123128" stroke="#123128" fill-opacity="1" stroke-opacity="1"/><path d="M1295,888L1329,1032L1482,854Z" fill="#122921" stroke="#122921" fill-opacity="1" stroke-opacity="1"/><path d="M1482,854L1329,1032L1502,1029Z" fill="#12221a" stroke="#12221a" fill-opacity="1" stroke-opacity="1"/><path d="M1482,854L1502,1029L1767,982Z" fill="#12120b" stroke="#12120b" fill-opacity="1" stroke-opacity="1"/><path d="M1482,854L1767,982L1772,767Z" fill="#120902" stroke="#120902" fill-opacity="1" stroke-opacity="1"/><path d="M280,1075L1025,1077L428,1074Z" fill="#5d5c6c" stroke="#5d5c6c" fill-opacity="1" stroke-opacity="1"/><path d="M428,1074L1025,1077L856,1057Z" fill="#3d5165" stroke="#3d5165" fill-opacity="1" stroke-opacity="1"/><path d="M428,1074L856,1057L629,972Z" fill="#52596a" stroke="#52596a" fill-opacity="1" stroke-opacity="1"/><path d="M1247,1062L1502,1029L1329,1032Z" fill="#122a21" stroke="#122a21" fill-opacity="1" stroke-opacity="1"/></g></svg>