<svg width="1600" height="799" xmlns="http://www.w3.org/2000/svg"><g><path d="M-154,-47L-140,497L-79,101Z" fill="#b7564d" stroke="#b7564d" fill-opacity="1" stroke-opacity="1"/><path d="M-154,-47L-79,101L12,76Z" fill="#b31d4a" stroke="#b31d4a" fill-opacity="1" stroke-opacity="1"/><path d="M-154,-47L12,76L75,-124Z" fill="#9b0944" stroke="#9b0944" fill-opacity="1" stroke-opacity="1"/><path d="M75,-124L12,76L187,163Z" fill="#d03050" stroke="#d03050" fill-opacity="1" stroke-opacity="1"/><path d="M75,-124L187,163L373,45Z" fill="#dc434f" stroke="#dc434f" fill-opacity="1" stroke-opacity="1"/><path d="M75,-124L373,45L315,-161Z" fill="#b03141" stroke="#b03141" fill-opacity="1" stroke-opacity="1"/><path d="M315,-161L373,45L396,-52Z" fill="#c1494a" stroke="#c1494a" fill-opacity="1" stroke-opacity="1"/><path d="M315,-161L396,-52L667,-104Z" fill="#ad5b50" stroke="#ad5b50" fill-opacity="1" stroke-opacity="1"/><path d="M315,-161L667,-104L790,-162Z" fill="#9d715f" stroke="#9d715f" fill-opacity="1" stroke-opacity="1"/><path d="M396,-52L373,45L542,212Z" fill="#fc7b5f" stroke="#fc7b5f" fill-opacity="1" stroke-opacity="1"/><path d="M396,-52L542,212L709,111Z" fill="#fe976f" stroke="#fe976f" fill-opacity="1" stroke-opacity="1"/><path d="M396,-52L709,111L667,-104Z" fill="#d67f6d" stroke="#d67f6d" fill-opacity="1" stroke-opacity="1"/><path d="M667,-104L709,111L790,-162Z" fill="#c68380" stroke="#c68380" fill-opacity="1" stroke-opacity="1"/><path d="M790,-162L709,111L843,174Z" fill="#ec9a84" stroke="#ec9a84" fill-opacity="1" stroke-opacity="1"/><path d="M790,-162L843,174L1064,-28Z" fill="#c98974" stroke="#c98974" fill-opacity="1" stroke-opacity="1"/><path d="M790,-162L1064,-28L1208,-101Z" fill="#876f6f" stroke="#876f6f" fill-opacity="1" stroke-opacity="1"/><path d="M790,-162L1208,-101L1414,-145Z" fill="#59646b" stroke="#59646b" fill-opacity="1" stroke-opacity="1"/><path d="M1064,-28L843,174L1063,78Z" fill="#da9780" stroke="#da9780" fill-opacity="1" stroke-opacity="1"/><path d="M1064,-28L1063,78L1150,8Z" fill="#ab7e7c" stroke="#ab7e7c" fill-opacity="1" stroke-opacity="1"/><path d="M1064,-28L1150,8L1208,-101Z" fill="#846a75" stroke="#846a75" fill-opacity="1" stroke-opacity="1"/><path d="M1208,-101L1150,8L1408,35Z" fill="#785b7f" stroke="#785b7f" fill-opacity="1" stroke-opacity="1"/><path d="M1208,-101L1408,35L1414,-145Z" fill="#5c3e7b" stroke="#5c3e7b" fill-opacity="1" stroke-opacity="1"/><path d="M1414,-145L1408,35L1484,-108Z" fill="#692c72" stroke="#692c72" fill-opacity="1" stroke-opacity="1"/><path d="M1414,-145L1484,-108L1650,-78Z" fill="#651c67" stroke="#651c67" fill-opacity="1" stroke-opacity="1"/><path d="M1484,-108L1408,35L1610,21Z" fill="#8c2c72" stroke="#8c2c72" fill-opacity="1" stroke-opacity="1"/><path d="M1484,-108L1610,21L1650,-78Z" fill="#871166" stroke="#871166" fill-opacity="1" stroke-opacity="1"/><path d="M1650,-78L1610,21L1697,16Z" fill="#a50f64" stroke="#a50f64" fill-opacity="1" stroke-opacity="1"/><path d="M-79,101L-140,497L-39,270Z" fill="#be7f70" stroke="#be7f70" fill-opacity="1" stroke-opacity="1"/><path d="M-79,101L-39,270L12,76Z" fill="#c84349" stroke="#c84349" fill-opacity="1" stroke-opacity="1"/><path d="M12,76L-39,270L86,233Z" fill="#d25f56" stroke="#d25f56" fill-opacity="1" stroke-opacity="1"/><path d="M12,76L86,233L187,163Z" fill="#e15c50" stroke="#e15c50" fill-opacity="1" stroke-opacity="1"/><path d="M187,163L86,233L260,301Z" fill="#ee9165" stroke="#ee9165" fill-opacity="1" stroke-opacity="1"/><path d="M187,163L260,301L398,263Z" fill="#f9a564" stroke="#f9a564" fill-opacity="1" stroke-opacity="1"/><path d="M187,163L398,263L373,45Z" fill="#fb8450" stroke="#fb8450" fill-opacity="1" stroke-opacity="1"/><path d="M373,45L398,263L542,212Z" fill="#fea760" stroke="#fea760" fill-opacity="1" stroke-opacity="1"/><path d="M709,111L542,212L797,264Z" fill="#ffd68c" stroke="#ffd68c" fill-opacity="1" stroke-opacity="1"/><path d="M709,111L797,264L843,174Z" fill="#fad389" stroke="#fad389" fill-opacity="1" stroke-opacity="1"/><path d="M843,174L797,264L1039,383Z" fill="#eff39a" stroke="#eff39a" fill-opacity="1" stroke-opacity="1"/><path d="M843,174L1039,383L1071,352Z" fill="#dcf1a9" stroke="#dcf1a9" fill-opacity="1" stroke-opacity="1"/><path d="M843,174L1071,352L1063,78Z" fill="#dacf87" stroke="#dacf87" fill-opacity="1" stroke-opacity="1"/><path d="M1063,78L1071,352L1245,260Z" fill="#bcd090" stroke="#bcd090" fill-opacity="1" stroke-opacity="1"/><path d="M1063,78L1245,260L1288,211Z" fill="#acaf87" stroke="#acaf87" fill-opacity="1" stroke-opacity="1"/><path d="M1063,78L1288,211L1150,8Z" fill="#b29080" stroke="#b29080" fill-opacity="1" stroke-opacity="1"/><path d="M1150,8L1288,211L1408,35Z" fill="#9d738b" stroke="#9d738b" fill-opacity="1" stroke-opacity="1"/><path d="M1408,35L1288,211L1562,334Z" fill="#a98988" stroke="#a98988" fill-opacity="1" stroke-opacity="1"/><path d="M1408,35L1562,334L1610,21Z" fill="#ba5574" stroke="#ba5574" fill-opacity="1" stroke-opacity="1"/><path d="M1610,21L1562,334L1748,198Z" fill="#cb5972" stroke="#cb5972" fill-opacity="1" stroke-opacity="1"/><path d="M1610,21L1748,198L1697,16Z" fill="#d1276a" stroke="#d1276a" fill-opacity="1" stroke-opacity="1"/><path d="M-39,270L-140,497L109,443Z" fill="#ca8085" stroke="#ca8085" fill-opacity="1" stroke-opacity="1"/><path d="M-39,270L109,443L86,233Z" fill="#d98b81" stroke="#d98b81" fill-opacity="1" stroke-opacity="1"/><path d="M86,233L109,443L235,363Z" fill="#ea9e93" stroke="#ea9e93" fill-opacity="1" stroke-opacity="1"/><path d="M86,233L235,363L260,301Z" fill="#efa77c" stroke="#efa77c" fill-opacity="1" stroke-opacity="1"/><path d="M260,301L235,363L398,263Z" fill="#fab87d" stroke="#fab87d" fill-opacity="1" stroke-opacity="1"/><path d="M398,263L235,363L476,523Z" fill="#fcc895" stroke="#fcc895" fill-opacity="1" stroke-opacity="1"/><path d="M398,263L476,523L610,437Z" fill="#fee19d" stroke="#fee19d" fill-opacity="1" stroke-opacity="1"/><path d="M398,263L610,437L542,212Z" fill="#ffe595" stroke="#ffe595" fill-opacity="1" stroke-opacity="1"/><path d="M542,212L610,437L797,264Z" fill="#fff7ab" stroke="#fff7ab" fill-opacity="1" stroke-opacity="1"/><path d="M797,264L610,437L877,535Z" fill="#fcfebd" stroke="#fcfebd" fill-opacity="1" stroke-opacity="1"/><path d="M797,264L877,535L1039,383Z" fill="#ecf8b6" stroke="#ecf8b6" fill-opacity="1" stroke-opacity="1"/><path d="M1071,352L1039,383L1094,537Z" fill="#c9eab1" stroke="#c9eab1" fill-opacity="1" stroke-opacity="1"/><path d="M1071,352L1094,537L1332,468Z" fill="#ace0af" stroke="#ace0af" fill-opacity="1" stroke-opacity="1"/><path d="M1071,352L1332,468L1245,260Z" fill="#a9d6c8" stroke="#a9d6c8" fill-opacity="1" stroke-opacity="1"/><path d="M1245,260L1332,468L1288,211Z" fill="#9cc8ba" stroke="#9cc8ba" fill-opacity="1" stroke-opacity="1"/><path d="M1288,211L1332,468L1562,334Z" fill="#a6b3be" stroke="#a6b3be" fill-opacity="1" stroke-opacity="1"/><path d="M1562,334L1332,468L1521,503Z" fill="#b1a4ab" stroke="#b1a4ab" fill-opacity="1" stroke-opacity="1"/><path d="M1562,334L1521,503L1697,522Z" fill="#be8ca1" stroke="#be8ca1" fill-opacity="1" stroke-opacity="1"/><path d="M1562,334L1697,522L1748,198Z" fill="#cf80aa" stroke="#cf80aa" fill-opacity="1" stroke-opacity="1"/><path d="M1748,198L1697,522L1776,890Z" fill="#b07b99" stroke="#b07b99" fill-opacity="1" stroke-opacity="1"/><path d="M-140,497L-81,925L-88,790Z" fill="#782a7b" stroke="#782a7b" fill-opacity="1" stroke-opacity="1"/><path d="M-140,497L-88,790L-23,571Z" fill="#6b6288" stroke="#6b6288" fill-opacity="1" stroke-opacity="1"/><path d="M-140,497L-23,571L109,443Z" fill="#b38082" stroke="#b38082" fill-opacity="1" stroke-opacity="1"/><path d="M109,443L-23,571L159,640Z" fill="#ac8a87" stroke="#ac8a87" fill-opacity="1" stroke-opacity="1"/><path d="M109,443L159,640L230,547Z" fill="#bf9c89" stroke="#bf9c89" fill-opacity="1" stroke-opacity="1"/><path d="M109,443L230,547L235,363Z" fill="#eaa682" stroke="#eaa682" fill-opacity="1" stroke-opacity="1"/><path d="M235,363L230,547L476,523Z" fill="#ecbb83" stroke="#ecbb83" fill-opacity="1" stroke-opacity="1"/><path d="M476,523L230,547L402,619Z" fill="#c4bf8c" stroke="#c4bf8c" fill-opacity="1" stroke-opacity="1"/><path d="M476,523L402,619L569,589Z" fill="#bed39a" stroke="#bed39a" fill-opacity="1" stroke-opacity="1"/><path d="M476,523L569,589L610,437Z" fill="#e1e9a3" stroke="#e1e9a3" fill-opacity="1" stroke-opacity="1"/><path d="M610,437L569,589L772,696Z" fill="#c0ecb4" stroke="#c0ecb4" fill-opacity="1" stroke-opacity="1"/><path d="M610,437L772,696L877,535Z" fill="#c9f6bf" stroke="#c9f6bf" fill-opacity="1" stroke-opacity="1"/><path d="M877,535L772,696L1003,564Z" fill="#a6e5b3" stroke="#a6e5b3" fill-opacity="1" stroke-opacity="1"/><path d="M877,535L1003,564L1039,383Z" fill="#caf2b1" stroke="#caf2b1" fill-opacity="1" stroke-opacity="1"/><path d="M1039,383L1003,564L1094,537Z" fill="#baecb3" stroke="#baecb3" fill-opacity="1" stroke-opacity="1"/><path d="M1094,537L1003,564L1177,665Z" fill="#7ed8b7" stroke="#7ed8b7" fill-opacity="1" stroke-opacity="1"/><path d="M1094,537L1177,665L1264,661Z" fill="#5cbfbe" stroke="#5cbfbe" fill-opacity="1" stroke-opacity="1"/><path d="M1094,537L1264,661L1332,468Z" fill="#72ccbb" stroke="#72ccbb" fill-opacity="1" stroke-opacity="1"/><path d="M1332,468L1264,661L1521,503Z" fill="#74b1bb" stroke="#74b1bb" fill-opacity="1" stroke-opacity="1"/><path d="M1521,503L1264,661L1448,774Z" fill="#4a85c4" stroke="#4a85c4" fill-opacity="1" stroke-opacity="1"/><path d="M1521,503L1448,774L1627,654Z" fill="#5d6fb9" stroke="#5d6fb9" fill-opacity="1" stroke-opacity="1"/><path d="M1521,503L1627,654L1697,522Z" fill="#907fa5" stroke="#907fa5" fill-opacity="1" stroke-opacity="1"/><path d="M1697,522L1627,654L1776,890Z" fill="#7e41a3" stroke="#7e41a3" fill-opacity="1" stroke-opacity="1"/><path d="M-23,571L-88,790L159,640Z" fill="#754f8f" stroke="#754f8f" fill-opacity="1" stroke-opacity="1"/><path d="M159,640L-88,790L143,798Z" fill="#9b3781" stroke="#9b3781" fill-opacity="1" stroke-opacity="1"/><path d="M159,640L143,798L229,727Z" fill="#a55588" stroke="#a55588" fill-opacity="1" stroke-opacity="1"/><path d="M159,640L229,727L230,547Z" fill="#958293" stroke="#958293" fill-opacity="1" stroke-opacity="1"/><path d="M230,547L229,727L402,619Z" fill="#a1928e" stroke="#a1928e" fill-opacity="1" stroke-opacity="1"/><path d="M402,619L229,727L487,871Z" fill="#b97288" stroke="#b97288" fill-opacity="1" stroke-opacity="1"/><path d="M402,619L487,871L569,589Z" fill="#ab9ea0" stroke="#ab9ea0" fill-opacity="1" stroke-opacity="1"/><path d="M569,589L487,871L638,815Z" fill="#c38d9d" stroke="#c38d9d" fill-opacity="1" stroke-opacity="1"/><path d="M569,589L638,815L772,696Z" fill="#aeb4ba" stroke="#aeb4ba" fill-opacity="1" stroke-opacity="1"/><path d="M772,696L638,815L872,864Z" fill="#cd8fad" stroke="#cd8fad" fill-opacity="1" stroke-opacity="1"/><path d="M772,696L872,864L1003,564Z" fill="#a3b1b1" stroke="#a3b1b1" fill-opacity="1" stroke-opacity="1"/><path d="M1003,564L872,864L994,897Z" fill="#ac8ca6" stroke="#ac8ca6" fill-opacity="1" stroke-opacity="1"/><path d="M1003,564L994,897L1177,665Z" fill="#7ea3b7" stroke="#7ea3b7" fill-opacity="1" stroke-opacity="1"/><path d="M1177,665L994,897L1254,853Z" fill="#8d6da2" stroke="#8d6da2" fill-opacity="1" stroke-opacity="1"/><path d="M1177,665L1254,853L1264,661Z" fill="#5f83b9" stroke="#5f83b9" fill-opacity="1" stroke-opacity="1"/><path d="M1264,661L1254,853L1387,865Z" fill="#6b56b0" stroke="#6b56b0" fill-opacity="1" stroke-opacity="1"/><path d="M1264,661L1387,865L1448,774Z" fill="#6855b1" stroke="#6855b1" fill-opacity="1" stroke-opacity="1"/><path d="M1617,696L1627,654L1448,774Z" fill="#714aac" stroke="#714aac" fill-opacity="1" stroke-opacity="1"/><path d="M1617,696L1448,774L1693,933Z" fill="#961a95" stroke="#961a95" fill-opacity="1" stroke-opacity="1"/><path d="M1617,696L1693,933L1776,890Z" fill="#b50082" stroke="#b50082" fill-opacity="1" stroke-opacity="1"/><path d="M1617,696L1776,890L1627,654Z" fill="#902699" stroke="#902699" fill-opacity="1" stroke-opacity="1"/><path d="M-88,790L-81,925L143,798Z" fill="#ae0069" stroke="#ae0069" fill-opacity="1" stroke-opacity="1"/><path d="M143,798L-81,925L20,1010Z" fill="#d0065a" stroke="#d0065a" fill-opacity="1" stroke-opacity="1"/><path d="M143,798L20,1010L219,1065Z" fill="#e71b54" stroke="#e71b54" fill-opacity="1" stroke-opacity="1"/><path d="M143,798L219,1065L384,943Z" fill="#f53056" stroke="#f53056" fill-opacity="1" stroke-opacity="1"/><path d="M143,798L384,943L229,727Z" fill="#d1326f" stroke="#d1326f" fill-opacity="1" stroke-opacity="1"/><path d="M229,727L384,943L487,871Z" fill="#e14870" stroke="#e14870" fill-opacity="1" stroke-opacity="1"/><path d="M487,871L384,943L616,901Z" fill="#f86172" stroke="#f86172" fill-opacity="1" stroke-opacity="1"/><path d="M487,871L616,901L638,815Z" fill="#e97088" stroke="#e97088" fill-opacity="1" stroke-opacity="1"/><path d="M638,815L616,901L872,864Z" fill="#e97e9f" stroke="#e97e9f" fill-opacity="1" stroke-opacity="1"/><path d="M872,864L616,901L844,973Z" fill="#f77e91" stroke="#f77e91" fill-opacity="1" stroke-opacity="1"/><path d="M872,864L844,973L994,897Z" fill="#e97886" stroke="#e97886" fill-opacity="1" stroke-opacity="1"/><path d="M994,897L844,973L967,1060Z" fill="#e67678" stroke="#e67678" fill-opacity="1" stroke-opacity="1"/><path d="M994,897L967,1060L1095,1059Z" fill="#d56f75" stroke="#d56f75" fill-opacity="1" stroke-opacity="1"/><path d="M994,897L1095,1059L1254,853Z" fill="#be6685" stroke="#be6685" fill-opacity="1" stroke-opacity="1"/><path d="M1254,853L1095,1059L1433,945Z" fill="#a14e89" stroke="#a14e89" fill-opacity="1" stroke-opacity="1"/><path d="M1254,853L1433,945L1387,865Z" fill="#943b97" stroke="#943b97" fill-opacity="1" stroke-opacity="1"/><path d="M1387,865L1433,945L1448,774Z" fill="#932e97" stroke="#932e97" fill-opacity="1" stroke-opacity="1"/><path d="M1448,774L1433,945L1693,933Z" fill="#ab1a89" stroke="#ab1a89" fill-opacity="1" stroke-opacity="1"/><path d="M1776,890L1693,933L1600,1022Z" fill="#d2006b" stroke="#d2006b" fill-opacity="1" stroke-opacity="1"/><path d="M219,1065L967,1060L844,973Z" fill="#ff7a74" stroke="#ff7a74" fill-opacity="1" stroke-opacity="1"/><path d="M219,1065L844,973L616,901Z" fill="#ff6c6b" stroke="#ff6c6b" fill-opacity="1" stroke-opacity="1"/><path d="M219,1065L616,901L384,943Z" fill="#fd5159" stroke="#fd5159" fill-opacity="1" stroke-opacity="1"/><path d="M1095,1059L1600,1022L1433,945Z" fill="#a3377b" stroke="#a3377b" fill-opacity="1" stroke-opacity="1"/><path d="M1433,945L1600,1022L1693,933Z" fill="#c11072" stroke="#c11072" fill-opacity="1" stroke-opacity="1"/></g></svg>