<svg width="1600" height="799" xmlns="http://www.w3.org/2000/svg"><g><path d="M-110,-36L-132,619L-115,382Z" fill="#cb8083" stroke="#cb8083" fill-opacity="1" stroke-opacity="1"/><path d="M-110,-36L-115,382L-111,295Z" fill="#cc6e69" stroke="#cc6e69" fill-opacity="1" stroke-opacity="1"/><path d="M-110,-36L-111,295L-73,37Z" fill="#c8423e" stroke="#c8423e" fill-opacity="1" stroke-opacity="1"/><path d="M-110,-36L-73,37L88,-153Z" fill="#b8051f" stroke="#b8051f" fill-opacity="1" stroke-opacity="1"/><path d="M88,-153L-73,37L26,171Z" fill="#c82a35" stroke="#c82a35" fill-opacity="1" stroke-opacity="1"/><path d="M88,-153L26,171L189,177Z" fill="#d9534a" stroke="#d9534a" fill-opacity="1" stroke-opacity="1"/><path d="M88,-153L189,177L339,-27Z" fill="#db4944" stroke="#db4944" fill-opacity="1" stroke-opacity="1"/><path d="M88,-153L339,-27L430,-168Z" fill="#d04835" stroke="#d04835" fill-opacity="1" stroke-opacity="1"/><path d="M339,-27L189,177L457,118Z" fill="#f28c6c" stroke="#f28c6c" fill-opacity="1" stroke-opacity="1"/><path d="M339,-27L457,118L554,-37Z" fill="#ea7b72" stroke="#ea7b72" fill-opacity="1" stroke-opacity="1"/><path d="M339,-27L554,-37L430,-168Z" fill="#da6059" stroke="#da6059" fill-opacity="1" stroke-opacity="1"/><path d="M430,-168L554,-37L783,-66Z" fill="#d76e69" stroke="#d76e69" fill-opacity="1" stroke-opacity="1"/><path d="M430,-168L783,-66L1105,-123Z" fill="#c9706f" stroke="#c9706f" fill-opacity="1" stroke-opacity="1"/><path d="M430,-168L1105,-123L1343,-126Z" fill="#af5b5b" stroke="#af5b5b" fill-opacity="1" stroke-opacity="1"/><path d="M554,-37L457,118L671,7Z" fill="#ec8e86" stroke="#ec8e86" fill-opacity="1" stroke-opacity="1"/><path d="M554,-37L671,7L783,-66Z" fill="#dc717c" stroke="#dc717c" fill-opacity="1" stroke-opacity="1"/><path d="M783,-66L671,7L827,5Z" fill="#d97983" stroke="#d97983" fill-opacity="1" stroke-opacity="1"/><path d="M783,-66L827,5L907,-61Z" fill="#cf6b7b" stroke="#cf6b7b" fill-opacity="1" stroke-opacity="1"/><path d="M783,-66L907,-61L1105,-123Z" fill="#bb5f64" stroke="#bb5f64" fill-opacity="1" stroke-opacity="1"/><path d="M907,-61L827,5L996,92Z" fill="#ce797e" stroke="#ce797e" fill-opacity="1" stroke-opacity="1"/><path d="M907,-61L996,92L1105,-123Z" fill="#ba5867" stroke="#ba5867" fill-opacity="1" stroke-opacity="1"/><path d="M1105,-123L996,92L1223,70Z" fill="#b35f63" stroke="#b35f63" fill-opacity="1" stroke-opacity="1"/><path d="M1105,-123L1223,70L1343,-126Z" fill="#973641" stroke="#973641" fill-opacity="1" stroke-opacity="1"/><path d="M1343,-126L1223,70L1420,42Z" fill="#903640" stroke="#903640" fill-opacity="1" stroke-opacity="1"/><path d="M1343,-126L1420,42L1471,-9Z" fill="#811e2e" stroke="#811e2e" fill-opacity="1" stroke-opacity="1"/><path d="M1343,-126L1471,-9L1775,-68Z" fill="#6a0b13" stroke="#6a0b13" fill-opacity="1" stroke-opacity="1"/><path d="M1471,-9L1420,42L1492,35Z" fill="#823134" stroke="#823134" fill-opacity="1" stroke-opacity="1"/><path d="M1471,-9L1492,35L1775,-68Z" fill="#6b0e1a" stroke="#6b0e1a" fill-opacity="1" stroke-opacity="1"/><path d="M1775,-68L1492,35L1661,141Z" fill="#702323" stroke="#702323" fill-opacity="1" stroke-opacity="1"/><path d="M1775,-68L1661,141L1751,203Z" fill="#793e31" stroke="#793e31" fill-opacity="1" stroke-opacity="1"/><path d="M1775,-68L1751,203L1793,707Z" fill="#808078" stroke="#808078" fill-opacity="1" stroke-opacity="1"/><path d="M-73,37L-111,295L26,171Z" fill="#d35f5a" stroke="#d35f5a" fill-opacity="1" stroke-opacity="1"/><path d="M26,171L-111,295L33,237Z" fill="#d77d7c" stroke="#d77d7c" fill-opacity="1" stroke-opacity="1"/><path d="M26,171L33,237L189,177Z" fill="#e28575" stroke="#e28575" fill-opacity="1" stroke-opacity="1"/><path d="M189,177L33,237L230,396Z" fill="#eaac9c" stroke="#eaac9c" fill-opacity="1" stroke-opacity="1"/><path d="M189,177L230,396L312,307Z" fill="#f5c0a7" stroke="#f5c0a7" fill-opacity="1" stroke-opacity="1"/><path d="M189,177L312,307L430,214Z" fill="#f8c0a1" stroke="#f8c0a1" fill-opacity="1" stroke-opacity="1"/><path d="M189,177L430,214L457,118Z" fill="#fab28e" stroke="#fab28e" fill-opacity="1" stroke-opacity="1"/><path d="M457,118L430,214L654,259Z" fill="#fed3b8" stroke="#fed3b8" fill-opacity="1" stroke-opacity="1"/><path d="M457,118L654,259L671,7Z" fill="#fabea0" stroke="#fabea0" fill-opacity="1" stroke-opacity="1"/><path d="M671,7L654,259L733,204Z" fill="#f6c9b0" stroke="#f6c9b0" fill-opacity="1" stroke-opacity="1"/><path d="M671,7L733,204L827,5Z" fill="#e9a499" stroke="#e9a499" fill-opacity="1" stroke-opacity="1"/><path d="M827,5L733,204L970,236Z" fill="#eac1ac" stroke="#eac1ac" fill-opacity="1" stroke-opacity="1"/><path d="M827,5L970,236L996,92Z" fill="#dba694" stroke="#dba694" fill-opacity="1" stroke-opacity="1"/><path d="M996,92L970,236L1219,298Z" fill="#cdb9aa" stroke="#cdb9aa" fill-opacity="1" stroke-opacity="1"/><path d="M996,92L1219,298L1223,70Z" fill="#c19a85" stroke="#c19a85" fill-opacity="1" stroke-opacity="1"/><path d="M1223,70L1219,298L1361,207Z" fill="#b09685" stroke="#b09685" fill-opacity="1" stroke-opacity="1"/><path d="M1223,70L1361,207L1420,42Z" fill="#a26c5b" stroke="#a26c5b" fill-opacity="1" stroke-opacity="1"/><path d="M1420,42L1361,207L1492,35Z" fill="#93594b" stroke="#93594b" fill-opacity="1" stroke-opacity="1"/><path d="M1492,35L1361,207L1468,324Z" fill="#977d6b" stroke="#977d6b" fill-opacity="1" stroke-opacity="1"/><path d="M1492,35L1468,324L1661,141Z" fill="#896753" stroke="#896753" fill-opacity="1" stroke-opacity="1"/><path d="M1661,141L1468,324L1751,203Z" fill="#807163" stroke="#807163" fill-opacity="1" stroke-opacity="1"/><path d="M-111,295L-115,382L33,237Z" fill="#d18088" stroke="#d18088" fill-opacity="1" stroke-opacity="1"/><path d="M33,237L-115,382L95,481Z" fill="#d98d94" stroke="#d98d94" fill-opacity="1" stroke-opacity="1"/><path d="M33,237L95,481L230,396Z" fill="#e6a5a0" stroke="#e6a5a0" fill-opacity="1" stroke-opacity="1"/><path d="M312,307L230,396L362,533Z" fill="#f5c7b4" stroke="#f5c7b4" fill-opacity="1" stroke-opacity="1"/><path d="M312,307L362,533L474,552Z" fill="#e9c5b5" stroke="#e9c5b5" fill-opacity="1" stroke-opacity="1"/><path d="M312,307L474,552L430,214Z" fill="#fbdac8" stroke="#fbdac8" fill-opacity="1" stroke-opacity="1"/><path d="M430,214L474,552L682,406Z" fill="#feede2" stroke="#feede2" fill-opacity="1" stroke-opacity="1"/><path d="M430,214L682,406L654,259Z" fill="#fbeedf" stroke="#fbeedf" fill-opacity="1" stroke-opacity="1"/><path d="M654,259L682,406L733,204Z" fill="#f6efe3" stroke="#f6efe3" fill-opacity="1" stroke-opacity="1"/><path d="M733,204L682,406L970,236Z" fill="#f0f0e8" stroke="#f0f0e8" fill-opacity="1" stroke-opacity="1"/><path d="M970,236L682,406L824,516Z" fill="#ececeb" stroke="#ececeb" fill-opacity="1" stroke-opacity="1"/><path d="M970,236L824,516L997,523Z" fill="#d7d7d7" stroke="#d7d7d7" fill-opacity="1" stroke-opacity="1"/><path d="M970,236L997,523L1219,298Z" fill="#cdcdca" stroke="#cdcdca" fill-opacity="1" stroke-opacity="1"/><path d="M1219,298L997,523L1176,526Z" fill="#b6b6b6" stroke="#b6b6b6" fill-opacity="1" stroke-opacity="1"/><path d="M1219,298L1176,526L1357,386Z" fill="#b1b1b1" stroke="#b1b1b1" fill-opacity="1" stroke-opacity="1"/><path d="M1219,298L1357,386L1361,207Z" fill="#a9a9a2" stroke="#a9a9a2" fill-opacity="1" stroke-opacity="1"/><path d="M1361,207L1357,386L1468,324Z" fill="#9d9d97" stroke="#9d9d97" fill-opacity="1" stroke-opacity="1"/><path d="M1468,324L1357,386L1583,478Z" fill="#939393" stroke="#939393" fill-opacity="1" stroke-opacity="1"/><path d="M1468,324L1583,478L1751,203Z" fill="#80807c" stroke="#80807c" fill-opacity="1" stroke-opacity="1"/><path d="M1751,203L1583,478L1761,507Z" fill="#808080" stroke="#808080" fill-opacity="1" stroke-opacity="1"/><path d="M1751,203L1761,507L1793,707Z" fill="#6c6c6c" stroke="#6c6c6c" fill-opacity="1" stroke-opacity="1"/><path d="M-115,382L-132,619L95,481Z" fill="#b96776" stroke="#b96776" fill-opacity="1" stroke-opacity="1"/><path d="M95,481L-132,619L46,684Z" fill="#a0535c" stroke="#a0535c" fill-opacity="1" stroke-opacity="1"/><path d="M95,481L46,684L248,622Z" fill="#ae6d69" stroke="#ae6d69" fill-opacity="1" stroke-opacity="1"/><path d="M95,481L248,622L230,396Z" fill="#d3998d" stroke="#d3998d" fill-opacity="1" stroke-opacity="1"/><path d="M230,396L248,622L362,533Z" fill="#d8a793" stroke="#d8a793" fill-opacity="1" stroke-opacity="1"/><path d="M362,533L248,622L474,552Z" fill="#c9a292" stroke="#c9a292" fill-opacity="1" stroke-opacity="1"/><path d="M682,406L474,552L604,697Z" fill="#d0c3bb" stroke="#d0c3bb" fill-opacity="1" stroke-opacity="1"/><path d="M682,406L604,697L824,516Z" fill="#cec8c4" stroke="#cec8c4" fill-opacity="1" stroke-opacity="1"/><path d="M824,516L604,697L859,645Z" fill="#b0adac" stroke="#b0adac" fill-opacity="1" stroke-opacity="1"/><path d="M824,516L859,645L997,523Z" fill="#b5b5b5" stroke="#b5b5b5" fill-opacity="1" stroke-opacity="1"/><path d="M997,523L859,645L964,700Z" fill="#9a9a9a" stroke="#9a9a9a" fill-opacity="1" stroke-opacity="1"/><path d="M997,523L964,700L1111,680Z" fill="#8b8b8b" stroke="#8b8b8b" fill-opacity="1" stroke-opacity="1"/><path d="M997,523L1111,680L1176,526Z" fill="#959595" stroke="#959595" fill-opacity="1" stroke-opacity="1"/><path d="M1176,526L1111,680L1131,728Z" fill="#777777" stroke="#777777" fill-opacity="1" stroke-opacity="1"/><path d="M1176,526L1131,728L1400,598Z" fill="#737373" stroke="#737373" fill-opacity="1" stroke-opacity="1"/><path d="M1176,526L1400,598L1357,386Z" fill="#8d8d8d" stroke="#8d8d8d" fill-opacity="1" stroke-opacity="1"/><path d="M1357,386L1400,598L1583,478Z" fill="#7e7e7e" stroke="#7e7e7e" fill-opacity="1" stroke-opacity="1"/><path d="M1583,478L1400,598L1552,695Z" fill="#555555" stroke="#555555" fill-opacity="1" stroke-opacity="1"/><path d="M1583,478L1552,695L1761,507Z" fill="#525252" stroke="#525252" fill-opacity="1" stroke-opacity="1"/><path d="M1761,507L1552,695L1793,707Z" fill="#383838" stroke="#383838" fill-opacity="1" stroke-opacity="1"/><path d="M-132,619L-106,999L-26,870Z" fill="#4f000d" stroke="#4f000d" fill-opacity="1" stroke-opacity="1"/><path d="M-132,619L-26,870L18,805Z" fill="#600f1d" stroke="#600f1d" fill-opacity="1" stroke-opacity="1"/><path d="M-132,619L18,805L46,684Z" fill="#782935" stroke="#782935" fill-opacity="1" stroke-opacity="1"/><path d="M46,684L18,805L217,831Z" fill="#6d2a29" stroke="#6d2a29" fill-opacity="1" stroke-opacity="1"/><path d="M46,684L217,831L248,622Z" fill="#8b4f46" stroke="#8b4f46" fill-opacity="1" stroke-opacity="1"/><path d="M248,622L217,831L400,881Z" fill="#80513d" stroke="#80513d" fill-opacity="1" stroke-opacity="1"/><path d="M248,622L400,881L474,552Z" fill="#a27d6d" stroke="#a27d6d" fill-opacity="1" stroke-opacity="1"/><path d="M474,552L400,881L604,697Z" fill="#9d877b" stroke="#9d877b" fill-opacity="1" stroke-opacity="1"/><path d="M604,697L400,881L582,856Z" fill="#7f6d63" stroke="#7f6d63" fill-opacity="1" stroke-opacity="1"/><path d="M604,697L582,856L767,802Z" fill="#7e746f" stroke="#7e746f" fill-opacity="1" stroke-opacity="1"/><path d="M604,697L767,802L859,645Z" fill="#918d8b" stroke="#918d8b" fill-opacity="1" stroke-opacity="1"/><path d="M859,645L767,802L964,700Z" fill="#858585" stroke="#858585" fill-opacity="1" stroke-opacity="1"/><path d="M964,700L767,802L1052,863Z" fill="#646464" stroke="#646464" fill-opacity="1" stroke-opacity="1"/><path d="M964,700L1052,863L1131,728Z" fill="#5c5c5c" stroke="#5c5c5c" fill-opacity="1" stroke-opacity="1"/><path d="M964,700L1131,728L1111,680Z" fill="#6e6e6e" stroke="#6e6e6e" fill-opacity="1" stroke-opacity="1"/><path d="M1400,598L1131,728L1356,769Z" fill="#4f4f4f" stroke="#4f4f4f" fill-opacity="1" stroke-opacity="1"/><path d="M1400,598L1356,769L1552,695Z" fill="#3f3f3f" stroke="#3f3f3f" fill-opacity="1" stroke-opacity="1"/><path d="M1552,695L1356,769L1563,733Z" fill="#282828" stroke="#282828" fill-opacity="1" stroke-opacity="1"/><path d="M1552,695L1563,733L1793,707Z" fill="#1f1f1f" stroke="#1f1f1f" fill-opacity="1" stroke-opacity="1"/><path d="M1793,707L1563,733L1697,810Z" fill="#121212" stroke="#121212" fill-opacity="1" stroke-opacity="1"/><path d="M1793,707L1697,810L1675,952Z" fill="#000000" stroke="#000000" fill-opacity="1" stroke-opacity="1"/><path d="M-26,870L-106,999L42,951Z" fill="#560613" stroke="#560613" fill-opacity="1" stroke-opacity="1"/><path d="M-26,870L42,951L18,805Z" fill="#5b0f17" stroke="#5b0f17" fill-opacity="1" stroke-opacity="1"/><path d="M18,805L42,951L217,831Z" fill="#64201f" stroke="#64201f" fill-opacity="1" stroke-opacity="1"/><path d="M217,831L42,951L221,1065Z" fill="#6c2e26" stroke="#6c2e26" fill-opacity="1" stroke-opacity="1"/><path d="M217,831L221,1065L400,881Z" fill="#784734" stroke="#784734" fill-opacity="1" stroke-opacity="1"/><path d="M400,881L221,1065L420,983Z" fill="#7a5140" stroke="#7a5140" fill-opacity="1" stroke-opacity="1"/><path d="M400,881L420,983L582,856Z" fill="#7d6457" stroke="#7d6457" fill-opacity="1" stroke-opacity="1"/><path d="M582,856L420,983L692,940Z" fill="#7d6e65" stroke="#7d6e65" fill-opacity="1" stroke-opacity="1"/><path d="M582,856L692,940L767,802Z" fill="#776f6b" stroke="#776f6b" fill-opacity="1" stroke-opacity="1"/><path d="M767,802L692,940L756,935Z" fill="#74706d" stroke="#74706d" fill-opacity="1" stroke-opacity="1"/><path d="M767,802L756,935L1035,934Z" fill="#696969" stroke="#696969" fill-opacity="1" stroke-opacity="1"/><path d="M767,802L1035,934L1052,863Z" fill="#5c5c5c" stroke="#5c5c5c" fill-opacity="1" stroke-opacity="1"/><path d="M1052,863L1035,934L1231,955Z" fill="#474747" stroke="#474747" fill-opacity="1" stroke-opacity="1"/><path d="M1052,863L1231,955L1131,728Z" fill="#434343" stroke="#434343" fill-opacity="1" stroke-opacity="1"/><path d="M1131,728L1231,955L1356,769Z" fill="#343434" stroke="#343434" fill-opacity="1" stroke-opacity="1"/><path d="M1356,769L1231,955L1412,936Z" fill="#272727" stroke="#272727" fill-opacity="1" stroke-opacity="1"/><path d="M1356,769L1412,936L1563,733Z" fill="#171717" stroke="#171717" fill-opacity="1" stroke-opacity="1"/><path d="M1563,733L1412,936L1675,952Z" fill="#080808" stroke="#080808" fill-opacity="1" stroke-opacity="1"/><path d="M1563,733L1675,952L1697,810Z" fill="#000000" stroke="#000000" fill-opacity="1" stroke-opacity="1"/><path d="M-106,999L221,1065L42,951Z" fill="#5f171b" stroke="#5f171b" fill-opacity="1" stroke-opacity="1"/><path d="M221,1065L1606,1059L1035,934Z" fill="#5c5c5c" stroke="#5c5c5c" fill-opacity="1" stroke-opacity="1"/><path d="M221,1065L1035,934L756,935Z" fill="#776f6a" stroke="#776f6a" fill-opacity="1" stroke-opacity="1"/><path d="M221,1065L756,935L692,940Z" fill="#7d6e65" stroke="#7d6e65" fill-opacity="1" stroke-opacity="1"/><path d="M221,1065L692,940L420,983Z" fill="#7c6053" stroke="#7c6053" fill-opacity="1" stroke-opacity="1"/><path d="M1035,934L1606,1059L1231,955Z" fill="#2d2d2d" stroke="#2d2d2d" fill-opacity="1" stroke-opacity="1"/><path d="M1231,955L1606,1059L1412,936Z" fill="#1b1b1b" stroke="#1b1b1b" fill-opacity="1" stroke-opacity="1"/><path d="M1412,936L1606,1059L1675,952Z" fill="#060606" stroke="#060606" fill-opacity="1" stroke-opacity="1"/></g></svg>