<svg width="1600" height="799" xmlns="http://www.w3.org/2000/svg"><g><path d="M-94,-159L-172,473L-102,16Z" fill="#5a2f69" stroke="#5a2f69" fill-opacity="1" stroke-opacity="1"/><path d="M-94,-159L-102,16L144,-140Z" fill="#1d0023" stroke="#1d0023" fill-opacity="1" stroke-opacity="1"/><path d="M-94,-159L144,-140L581,-143Z" fill="#43254b" stroke="#43254b" fill-opacity="1" stroke-opacity="1"/><path d="M-94,-159L581,-143L834,-142Z" fill="#625368" stroke="#625368" fill-opacity="1" stroke-opacity="1"/><path d="M-94,-159L834,-142L1480,-142Z" fill="#7a7b7a" stroke="#7a7b7a" fill-opacity="1" stroke-opacity="1"/><path d="M144,-140L-102,16L146,155Z" fill="#560d63" stroke="#560d63" fill-opacity="1" stroke-opacity="1"/><path d="M144,-140L146,155L198,139Z" fill="#7a2b88" stroke="#7a2b88" fill-opacity="1" stroke-opacity="1"/><path d="M144,-140L198,139L254,-119Z" fill="#562263" stroke="#562263" fill-opacity="1" stroke-opacity="1"/><path d="M144,-140L254,-119L581,-143Z" fill="#523f5a" stroke="#523f5a" fill-opacity="1" stroke-opacity="1"/><path d="M254,-119L198,139L499,131Z" fill="#8d4f9c" stroke="#8d4f9c" fill-opacity="1" stroke-opacity="1"/><path d="M254,-119L499,131L536,-91Z" fill="#7a5287" stroke="#7a5287" fill-opacity="1" stroke-opacity="1"/><path d="M254,-119L536,-91L581,-143Z" fill="#64566a" stroke="#64566a" fill-opacity="1" stroke-opacity="1"/><path d="M536,-91L499,131L655,174Z" fill="#b780c0" stroke="#b780c0" fill-opacity="1" stroke-opacity="1"/><path d="M536,-91L655,174L830,27Z" fill="#af82b6" stroke="#af82b6" fill-opacity="1" stroke-opacity="1"/><path d="M536,-91L830,27L581,-143Z" fill="#7e7284" stroke="#7e7284" fill-opacity="1" stroke-opacity="1"/><path d="M581,-143L830,27L834,-142Z" fill="#7a7b7e" stroke="#7a7b7e" fill-opacity="1" stroke-opacity="1"/><path d="M834,-142L830,27L905,-98Z" fill="#747978" stroke="#747978" fill-opacity="1" stroke-opacity="1"/><path d="M834,-142L905,-98L1112,-70Z" fill="#5f735c" stroke="#5f735c" fill-opacity="1" stroke-opacity="1"/><path d="M834,-142L1112,-70L1480,-142Z" fill="#335b35" stroke="#335b35" fill-opacity="1" stroke-opacity="1"/><path d="M905,-98L830,27L936,146Z" fill="#9b7f9f" stroke="#9b7f9f" fill-opacity="1" stroke-opacity="1"/><path d="M905,-98L936,146L1112,-70Z" fill="#7c707f" stroke="#7c707f" fill-opacity="1" stroke-opacity="1"/><path d="M1112,-70L936,146L1193,85Z" fill="#817788" stroke="#817788" fill-opacity="1" stroke-opacity="1"/><path d="M1112,-70L1193,85L1289,-77Z" fill="#43514f" stroke="#43514f" fill-opacity="1" stroke-opacity="1"/><path d="M1112,-70L1289,-77L1480,-142Z" fill="#113f1e" stroke="#113f1e" fill-opacity="1" stroke-opacity="1"/><path d="M1289,-77L1193,85L1294,78Z" fill="#4c505d" stroke="#4c505d" fill-opacity="1" stroke-opacity="1"/><path d="M1289,-77L1294,78L1554,60Z" fill="#36374b" stroke="#36374b" fill-opacity="1" stroke-opacity="1"/><path d="M1289,-77L1554,60L1480,-142Z" fill="#102523" stroke="#102523" fill-opacity="1" stroke-opacity="1"/><path d="M1480,-142L1554,60L1650,-51Z" fill="#120f1b" stroke="#120f1b" fill-opacity="1" stroke-opacity="1"/><path d="M1650,-51L1554,60L1701,174Z" fill="#421749" stroke="#421749" fill-opacity="1" stroke-opacity="1"/><path d="M-102,16L-172,473L-25,189Z" fill="#83668f" stroke="#83668f" fill-opacity="1" stroke-opacity="1"/><path d="M-102,16L-25,189L24,182Z" fill="#703980" stroke="#703980" fill-opacity="1" stroke-opacity="1"/><path d="M-102,16L24,182L146,155Z" fill="#773687" stroke="#773687" fill-opacity="1" stroke-opacity="1"/><path d="M146,155L24,182L189,244Z" fill="#a26ab1" stroke="#a26ab1" fill-opacity="1" stroke-opacity="1"/><path d="M146,155L189,244L198,139Z" fill="#a66fb6" stroke="#a66fb6" fill-opacity="1" stroke-opacity="1"/><path d="M198,139L189,244L432,313Z" fill="#c19cd0" stroke="#c19cd0" fill-opacity="1" stroke-opacity="1"/><path d="M198,139L432,313L499,131Z" fill="#c4a0d5" stroke="#c4a0d5" fill-opacity="1" stroke-opacity="1"/><path d="M499,131L432,313L595,318Z" fill="#e4cfeb" stroke="#e4cfeb" fill-opacity="1" stroke-opacity="1"/><path d="M499,131L595,318L655,174Z" fill="#e4c8ed" stroke="#e4c8ed" fill-opacity="1" stroke-opacity="1"/><path d="M655,174L595,318L829,262Z" fill="#f3e7f7" stroke="#f3e7f7" fill-opacity="1" stroke-opacity="1"/><path d="M655,174L829,262L830,27Z" fill="#d5c1df" stroke="#d5c1df" fill-opacity="1" stroke-opacity="1"/><path d="M830,27L829,262L936,146Z" fill="#c9bbd1" stroke="#c9bbd1" fill-opacity="1" stroke-opacity="1"/><path d="M936,146L829,262L950,283Z" fill="#dddde0" stroke="#dddde0" fill-opacity="1" stroke-opacity="1"/><path d="M936,146L950,283L1126,273Z" fill="#ccd7cf" stroke="#ccd7cf" fill-opacity="1" stroke-opacity="1"/><path d="M936,146L1126,273L1193,85Z" fill="#a4b0ae" stroke="#a4b0ae" fill-opacity="1" stroke-opacity="1"/><path d="M1193,85L1126,273L1318,239Z" fill="#90a8a0" stroke="#90a8a0" fill-opacity="1" stroke-opacity="1"/><path d="M1193,85L1318,239L1294,78Z" fill="#6f8084" stroke="#6f8084" fill-opacity="1" stroke-opacity="1"/><path d="M1294,78L1318,239L1554,60Z" fill="#5c6674" stroke="#5c6674" fill-opacity="1" stroke-opacity="1"/><path d="M1554,60L1318,239L1553,345Z" fill="#738086" stroke="#738086" fill-opacity="1" stroke-opacity="1"/><path d="M1554,60L1553,345L1673,286Z" fill="#76717c" stroke="#76717c" fill-opacity="1" stroke-opacity="1"/><path d="M1554,60L1673,286L1701,174Z" fill="#65506f" stroke="#65506f" fill-opacity="1" stroke-opacity="1"/><path d="M1701,174L1673,286L1684,491Z" fill="#807f80" stroke="#807f80" fill-opacity="1" stroke-opacity="1"/><path d="M1701,174L1684,491L1754,712Z" fill="#778075" stroke="#778075" fill-opacity="1" stroke-opacity="1"/><path d="M-25,189L-172,473L50,403Z" fill="#97809c" stroke="#97809c" fill-opacity="1" stroke-opacity="1"/><path d="M-25,189L50,403L24,182Z" fill="#9d75a6" stroke="#9d75a6" fill-opacity="1" stroke-opacity="1"/><path d="M24,182L50,403L189,244Z" fill="#ae86b5" stroke="#ae86b5" fill-opacity="1" stroke-opacity="1"/><path d="M189,244L50,403L295,407Z" fill="#bf9dc6" stroke="#bf9dc6" fill-opacity="1" stroke-opacity="1"/><path d="M189,244L295,407L432,313Z" fill="#cebad7" stroke="#cebad7" fill-opacity="1" stroke-opacity="1"/><path d="M432,313L295,407L498,413Z" fill="#ddcde3" stroke="#ddcde3" fill-opacity="1" stroke-opacity="1"/><path d="M432,313L498,413L595,318Z" fill="#eadeed" stroke="#eadeed" fill-opacity="1" stroke-opacity="1"/><path d="M595,318L498,413L698,528Z" fill="#f4ecf4" stroke="#f4ecf4" fill-opacity="1" stroke-opacity="1"/><path d="M595,318L698,528L829,262Z" fill="#faf9fa" stroke="#faf9fa" fill-opacity="1" stroke-opacity="1"/><path d="M829,262L698,528L860,490Z" fill="#f4faf1" stroke="#f4faf1" fill-opacity="1" stroke-opacity="1"/><path d="M829,262L860,490L950,283Z" fill="#ebf7e8" stroke="#ebf7e8" fill-opacity="1" stroke-opacity="1"/><path d="M950,283L860,490L952,477Z" fill="#e4f4e0" stroke="#e4f4e0" fill-opacity="1" stroke-opacity="1"/><path d="M950,283L952,477L1126,273Z" fill="#d4edd1" stroke="#d4edd1" fill-opacity="1" stroke-opacity="1"/><path d="M1126,273L952,477L1234,540Z" fill="#bce0bc" stroke="#bce0bc" fill-opacity="1" stroke-opacity="1"/><path d="M1126,273L1234,540L1351,489Z" fill="#9dc9a4" stroke="#9dc9a4" fill-opacity="1" stroke-opacity="1"/><path d="M1126,273L1351,489L1318,239Z" fill="#97c3a2" stroke="#97c3a2" fill-opacity="1" stroke-opacity="1"/><path d="M1318,239L1351,489L1553,345Z" fill="#84aa92" stroke="#84aa92" fill-opacity="1" stroke-opacity="1"/><path d="M1553,345L1351,489L1498,474Z" fill="#809f8b" stroke="#809f8b" fill-opacity="1" stroke-opacity="1"/><path d="M1553,345L1498,474L1684,491Z" fill="#7f8c7f" stroke="#7f8c7f" fill-opacity="1" stroke-opacity="1"/><path d="M1553,345L1684,491L1673,286Z" fill="#808180" stroke="#808180" fill-opacity="1" stroke-opacity="1"/><path d="M-172,473L-103,943L-26,698Z" fill="#133228" stroke="#133228" fill-opacity="1" stroke-opacity="1"/><path d="M-172,473L-26,698L50,403Z" fill="#707a73" stroke="#707a73" fill-opacity="1" stroke-opacity="1"/><path d="M50,403L-26,698L191,584Z" fill="#6f7977" stroke="#6f7977" fill-opacity="1" stroke-opacity="1"/><path d="M50,403L191,584L295,407Z" fill="#b39db8" stroke="#b39db8" fill-opacity="1" stroke-opacity="1"/><path d="M295,407L191,584L521,555Z" fill="#b2bdb7" stroke="#b2bdb7" fill-opacity="1" stroke-opacity="1"/><path d="M295,407L521,555L498,413Z" fill="#d8d3dc" stroke="#d8d3dc" fill-opacity="1" stroke-opacity="1"/><path d="M498,413L521,555L552,557Z" fill="#cfe0cf" stroke="#cfe0cf" fill-opacity="1" stroke-opacity="1"/><path d="M498,413L552,557L698,528Z" fill="#daead8" stroke="#daead8" fill-opacity="1" stroke-opacity="1"/><path d="M698,528L552,557L526,761Z" fill="#99c4a2" stroke="#99c4a2" fill-opacity="1" stroke-opacity="1"/><path d="M698,528L526,761L831,640Z" fill="#90c39e" stroke="#90c39e" fill-opacity="1" stroke-opacity="1"/><path d="M698,528L831,640L860,490Z" fill="#bcebbc" stroke="#bcebbc" fill-opacity="1" stroke-opacity="1"/><path d="M860,490L831,640L952,477Z" fill="#bdeeba" stroke="#bdeeba" fill-opacity="1" stroke-opacity="1"/><path d="M952,477L831,640L1023,705Z" fill="#8ad08f" stroke="#8ad08f" fill-opacity="1" stroke-opacity="1"/><path d="M952,477L1023,705L1234,540Z" fill="#80d082" stroke="#80d082" fill-opacity="1" stroke-opacity="1"/><path d="M1234,540L1023,705L1237,677Z" fill="#45a556" stroke="#45a556" fill-opacity="1" stroke-opacity="1"/><path d="M1234,540L1237,677L1363,599Z" fill="#3e9f51" stroke="#3e9f51" fill-opacity="1" stroke-opacity="1"/><path d="M1234,540L1363,599L1351,489Z" fill="#5baf69" stroke="#5baf69" fill-opacity="1" stroke-opacity="1"/><path d="M1351,489L1363,599L1498,474Z" fill="#60a76c" stroke="#60a76c" fill-opacity="1" stroke-opacity="1"/><path d="M1498,474L1363,599L1594,698Z" fill="#318041" stroke="#318041" fill-opacity="1" stroke-opacity="1"/><path d="M1498,474L1594,698L1684,491Z" fill="#477a48" stroke="#477a48" fill-opacity="1" stroke-opacity="1"/><path d="M1684,491L1594,698L1754,712Z" fill="#1c5128" stroke="#1c5128" fill-opacity="1" stroke-opacity="1"/><path d="M-26,698L-103,943L-8,727Z" fill="#180e21" stroke="#180e21" fill-opacity="1" stroke-opacity="1"/><path d="M-26,698L-8,727L110,697Z" fill="#293440" stroke="#293440" fill-opacity="1" stroke-opacity="1"/><path d="M-26,698L110,697L191,584Z" fill="#415257" stroke="#415257" fill-opacity="1" stroke-opacity="1"/><path d="M110,697L-8,727L128,832Z" fill="#2e2941" stroke="#2e2941" fill-opacity="1" stroke-opacity="1"/><path d="M110,697L128,832L249,778Z" fill="#3d304d" stroke="#3d304d" fill-opacity="1" stroke-opacity="1"/><path d="M110,697L249,778L191,584Z" fill="#495861" stroke="#495861" fill-opacity="1" stroke-opacity="1"/><path d="M191,584L249,778L521,555Z" fill="#6a8c7f" stroke="#6a8c7f" fill-opacity="1" stroke-opacity="1"/><path d="M521,555L249,778L526,761Z" fill="#68867f" stroke="#68867f" fill-opacity="1" stroke-opacity="1"/><path d="M521,555L526,761L552,557Z" fill="#8eb79b" stroke="#8eb79b" fill-opacity="1" stroke-opacity="1"/><path d="M831,640L526,761L582,856Z" fill="#779084" stroke="#779084" fill-opacity="1" stroke-opacity="1"/><path d="M831,640L582,856L817,847Z" fill="#7a8c80" stroke="#7a8c80" fill-opacity="1" stroke-opacity="1"/><path d="M831,640L817,847L1023,705Z" fill="#6a9d77" stroke="#6a9d77" fill-opacity="1" stroke-opacity="1"/><path d="M1023,705L817,847L1061,882Z" fill="#5c7559" stroke="#5c7559" fill-opacity="1" stroke-opacity="1"/><path d="M1023,705L1061,882L1256,776Z" fill="#3a6e41" stroke="#3a6e41" fill-opacity="1" stroke-opacity="1"/><path d="M1023,705L1256,776L1237,677Z" fill="#2d8143" stroke="#2d8143" fill-opacity="1" stroke-opacity="1"/><path d="M1237,677L1256,776L1363,599Z" fill="#1d7b39" stroke="#1d7b39" fill-opacity="1" stroke-opacity="1"/><path d="M1363,599L1256,776L1434,867Z" fill="#0a5425" stroke="#0a5425" fill-opacity="1" stroke-opacity="1"/><path d="M1363,599L1434,867L1544,762Z" fill="#01451c" stroke="#01451c" fill-opacity="1" stroke-opacity="1"/><path d="M1363,599L1544,762L1594,698Z" fill="#0a5423" stroke="#0a5423" fill-opacity="1" stroke-opacity="1"/><path d="M1594,698L1544,762L1690,762Z" fill="#00290f" stroke="#00290f" fill-opacity="1" stroke-opacity="1"/><path d="M1594,698L1690,762L1754,712Z" fill="#012a12" stroke="#012a12" fill-opacity="1" stroke-opacity="1"/><path d="M1754,712L1690,762L1705,937Z" fill="#000802" stroke="#000802" fill-opacity="1" stroke-opacity="1"/><path d="M-8,727L-103,943L128,832Z" fill="#210127" stroke="#210127" fill-opacity="1" stroke-opacity="1"/><path d="M128,832L-103,943L129,1043Z" fill="#2a0830" stroke="#2a0830" fill-opacity="1" stroke-opacity="1"/><path d="M128,832L129,1043L266,1011Z" fill="#3f1c46" stroke="#3f1c46" fill-opacity="1" stroke-opacity="1"/><path d="M128,832L266,1011L249,778Z" fill="#44264b" stroke="#44264b" fill-opacity="1" stroke-opacity="1"/><path d="M249,778L266,1011L477,931Z" fill="#523f5b" stroke="#523f5b" fill-opacity="1" stroke-opacity="1"/><path d="M249,778L477,931L526,761Z" fill="#5f4f65" stroke="#5f4f65" fill-opacity="1" stroke-opacity="1"/><path d="M526,761L477,931L582,856Z" fill="#6d6270" stroke="#6d6270" fill-opacity="1" stroke-opacity="1"/><path d="M582,856L477,931L581,928Z" fill="#6f6571" stroke="#6f6571" fill-opacity="1" stroke-opacity="1"/><path d="M582,856L581,928L817,847Z" fill="#787478" stroke="#787478" fill-opacity="1" stroke-opacity="1"/><path d="M817,847L581,928L788,1017Z" fill="#7c7c7c" stroke="#7c7c7c" fill-opacity="1" stroke-opacity="1"/><path d="M817,847L788,1017L1006,969Z" fill="#6d786a" stroke="#6d786a" fill-opacity="1" stroke-opacity="1"/><path d="M817,847L1006,969L1061,882Z" fill="#5d725a" stroke="#5d725a" fill-opacity="1" stroke-opacity="1"/><path d="M1061,882L1006,969L1186,990Z" fill="#426442" stroke="#426442" fill-opacity="1" stroke-opacity="1"/><path d="M1061,882L1186,990L1256,776Z" fill="#2c5730" stroke="#2c5730" fill-opacity="1" stroke-opacity="1"/><path d="M1256,776L1186,990L1434,867Z" fill="#113f1e" stroke="#113f1e" fill-opacity="1" stroke-opacity="1"/><path d="M1434,867L1186,990L1437,975Z" fill="#0a3518" stroke="#0a3518" fill-opacity="1" stroke-opacity="1"/><path d="M1434,867L1437,975L1448,905Z" fill="#02250f" stroke="#02250f" fill-opacity="1" stroke-opacity="1"/><path d="M1434,867L1448,905L1544,762Z" fill="#001f0c" stroke="#001f0c" fill-opacity="1" stroke-opacity="1"/><path d="M1544,762L1448,905L1705,937Z" fill="#000e03" stroke="#000e03" fill-opacity="1" stroke-opacity="1"/><path d="M1544,762L1705,937L1690,762Z" fill="#000100" stroke="#000100" fill-opacity="1" stroke-opacity="1"/><path d="M129,1043L788,1017L266,1011Z" fill="#5b4b63" stroke="#5b4b63" fill-opacity="1" stroke-opacity="1"/><path d="M266,1011L788,1017L477,931Z" fill="#6b5f6e" stroke="#6b5f6e" fill-opacity="1" stroke-opacity="1"/><path d="M477,931L788,1017L581,928Z" fill="#766e76" stroke="#766e76" fill-opacity="1" stroke-opacity="1"/><path d="M788,1017L1437,975L1186,990Z" fill="#345b37" stroke="#345b37" fill-opacity="1" stroke-opacity="1"/><path d="M788,1017L1186,990L1006,969Z" fill="#587055" stroke="#587055" fill-opacity="1" stroke-opacity="1"/><path d="M1437,975L1705,937L1448,905Z" fill="#001506" stroke="#001506" fill-opacity="1" stroke-opacity="1"/></g></svg>