<svg width="1600" height="799" xmlns="http://www.w3.org/2000/svg"><g><path d="M-112,-19L-107,808L-99,196Z" fill="#b1f0ec" stroke="#b1f0ec" fill-opacity="1" stroke-opacity="1"/><path d="M-112,-19L-99,196L-38,159Z" fill="#fdffe0" stroke="#fdffe0" fill-opacity="1" stroke-opacity="1"/><path d="M-112,-19L-38,159L123,-62Z" fill="#ffffe7" stroke="#ffffe7" fill-opacity="1" stroke-opacity="1"/><path d="M-112,-19L123,-62L331,-169Z" fill="#f9fddf" stroke="#f9fddf" fill-opacity="1" stroke-opacity="1"/><path d="M123,-62L-38,159L147,161Z" fill="#fbfece" stroke="#fbfece" fill-opacity="1" stroke-opacity="1"/><path d="M123,-62L147,161L214,145Z" fill="#f7fcc6" stroke="#f7fcc6" fill-opacity="1" stroke-opacity="1"/><path d="M123,-62L214,145L331,-169Z" fill="#f1fad9" stroke="#f1fad9" fill-opacity="1" stroke-opacity="1"/><path d="M331,-169L214,145L466,59Z" fill="#e5f5d7" stroke="#e5f5d7" fill-opacity="1" stroke-opacity="1"/><path d="M331,-169L466,59L511,-110Z" fill="#d3eedb" stroke="#d3eedb" fill-opacity="1" stroke-opacity="1"/><path d="M331,-169L511,-110L987,-148Z" fill="#b2e1df" stroke="#b2e1df" fill-opacity="1" stroke-opacity="1"/><path d="M331,-169L987,-148L1377,-139Z" fill="#8ec7df" stroke="#8ec7df" fill-opacity="1" stroke-opacity="1"/><path d="M511,-110L466,59L726,-41Z" fill="#b9e4de" stroke="#b9e4de" fill-opacity="1" stroke-opacity="1"/><path d="M511,-110L726,-41L719,-60Z" fill="#abdfe0" stroke="#abdfe0" fill-opacity="1" stroke-opacity="1"/><path d="M511,-110L719,-60L987,-148Z" fill="#9dd8e1" stroke="#9dd8e1" fill-opacity="1" stroke-opacity="1"/><path d="M719,-60L726,-41L892,24Z" fill="#99d4e1" stroke="#99d4e1" fill-opacity="1" stroke-opacity="1"/><path d="M719,-60L892,24L987,-148Z" fill="#91cbe0" stroke="#91cbe0" fill-opacity="1" stroke-opacity="1"/><path d="M726,-41L466,59L651,138Z" fill="#b1e1d2" stroke="#b1e1d2" fill-opacity="1" stroke-opacity="1"/><path d="M726,-41L651,138L807,187Z" fill="#9ed9cc" stroke="#9ed9cc" fill-opacity="1" stroke-opacity="1"/><path d="M726,-41L807,187L892,24Z" fill="#96d1d3" stroke="#96d1d3" fill-opacity="1" stroke-opacity="1"/><path d="M987,-148L892,24L1169,-108Z" fill="#90b6d7" stroke="#90b6d7" fill-opacity="1" stroke-opacity="1"/><path d="M987,-148L1169,-108L1377,-139Z" fill="#92a2ce" stroke="#92a2ce" fill-opacity="1" stroke-opacity="1"/><path d="M1169,-108L892,24L1211,4Z" fill="#91acd2" stroke="#91acd2" fill-opacity="1" stroke-opacity="1"/><path d="M1169,-108L1211,4L1377,-139Z" fill="#9299c8" stroke="#9299c8" fill-opacity="1" stroke-opacity="1"/><path d="M1377,-139L1211,4L1352,70Z" fill="#8d95be" stroke="#8d95be" fill-opacity="1" stroke-opacity="1"/><path d="M1377,-139L1352,70L1486,-56Z" fill="#858faf" stroke="#858faf" fill-opacity="1" stroke-opacity="1"/><path d="M1377,-139L1486,-56L1651,-50Z" fill="#80899e" stroke="#80899e" fill-opacity="1" stroke-opacity="1"/><path d="M1486,-56L1352,70L1561,167Z" fill="#808b95" stroke="#808b95" fill-opacity="1" stroke-opacity="1"/><path d="M1486,-56L1561,167L1651,-50Z" fill="#80858e" stroke="#80858e" fill-opacity="1" stroke-opacity="1"/><path d="M1651,-50L1561,167L1742,70Z" fill="#808076" stroke="#808076" fill-opacity="1" stroke-opacity="1"/><path d="M-38,159L-99,196L85,230Z" fill="#eefedb" stroke="#eefedb" fill-opacity="1" stroke-opacity="1"/><path d="M-38,159L85,230L147,161Z" fill="#f0fdd1" stroke="#f0fdd1" fill-opacity="1" stroke-opacity="1"/><path d="M147,161L85,230L192,253Z" fill="#ddfaca" stroke="#ddfaca" fill-opacity="1" stroke-opacity="1"/><path d="M147,161L192,253L214,145Z" fill="#e8fbc5" stroke="#e8fbc5" fill-opacity="1" stroke-opacity="1"/><path d="M214,145L192,253L456,207Z" fill="#d6f6c6" stroke="#d6f6c6" fill-opacity="1" stroke-opacity="1"/><path d="M214,145L456,207L466,59Z" fill="#daf2c5" stroke="#daf2c5" fill-opacity="1" stroke-opacity="1"/><path d="M466,59L456,207L651,138Z" fill="#bde7c8" stroke="#bde7c8" fill-opacity="1" stroke-opacity="1"/><path d="M651,138L456,207L714,333Z" fill="#92dfcd" stroke="#92dfcd" fill-opacity="1" stroke-opacity="1"/><path d="M651,138L714,333L807,187Z" fill="#82d7d0" stroke="#82d7d0" fill-opacity="1" stroke-opacity="1"/><path d="M892,24L807,187L955,132Z" fill="#8cc9ca" stroke="#8cc9ca" fill-opacity="1" stroke-opacity="1"/><path d="M892,24L955,132L1211,4Z" fill="#90b6ca" stroke="#90b6ca" fill-opacity="1" stroke-opacity="1"/><path d="M955,132L807,187L1029,245Z" fill="#81c2c9" stroke="#81c2c9" fill-opacity="1" stroke-opacity="1"/><path d="M955,132L1029,245L1130,263Z" fill="#76b1c3" stroke="#76b1c3" fill-opacity="1" stroke-opacity="1"/><path d="M955,132L1130,263L1211,4Z" fill="#8dabbd" stroke="#8dabbd" fill-opacity="1" stroke-opacity="1"/><path d="M1211,4L1130,263L1352,70Z" fill="#909bb5" stroke="#909bb5" fill-opacity="1" stroke-opacity="1"/><path d="M1352,70L1130,263L1359,291Z" fill="#7896b1" stroke="#7896b1" fill-opacity="1" stroke-opacity="1"/><path d="M1352,70L1359,291L1441,237Z" fill="#73909f" stroke="#73909f" fill-opacity="1" stroke-opacity="1"/><path d="M1352,70L1441,237L1561,167Z" fill="#7a8c92" stroke="#7a8c92" fill-opacity="1" stroke-opacity="1"/><path d="M1561,167L1441,237L1646,251Z" fill="#638484" stroke="#638484" fill-opacity="1" stroke-opacity="1"/><path d="M1561,167L1646,251L1742,70Z" fill="#788071" stroke="#788071" fill-opacity="1" stroke-opacity="1"/><path d="M1742,70L1646,251L1788,519Z" fill="#467971" stroke="#467971" fill-opacity="1" stroke-opacity="1"/><path d="M-99,196L-107,808L-52,705Z" fill="#95add5" stroke="#95add5" fill-opacity="1" stroke-opacity="1"/><path d="M-99,196L-52,705L-6,445Z" fill="#91d5e4" stroke="#91d5e4" fill-opacity="1" stroke-opacity="1"/><path d="M-99,196L-6,445L85,230Z" fill="#c1f6df" stroke="#c1f6df" fill-opacity="1" stroke-opacity="1"/><path d="M85,230L-6,445L128,371Z" fill="#a5ecd9" stroke="#a5ecd9" fill-opacity="1" stroke-opacity="1"/><path d="M85,230L128,371L192,253Z" fill="#bdf5ce" stroke="#bdf5ce" fill-opacity="1" stroke-opacity="1"/><path d="M192,253L128,371L241,376Z" fill="#a5eccc" stroke="#a5eccc" fill-opacity="1" stroke-opacity="1"/><path d="M192,253L241,376L456,207Z" fill="#b1f0ca" stroke="#b1f0ca" fill-opacity="1" stroke-opacity="1"/><path d="M456,207L241,376L485,502Z" fill="#81ddd0" stroke="#81ddd0" fill-opacity="1" stroke-opacity="1"/><path d="M456,207L485,502L714,333Z" fill="#66d3d3" stroke="#66d3d3" fill-opacity="1" stroke-opacity="1"/><path d="M714,333L485,502L669,467Z" fill="#44bad3" stroke="#44bad3" fill-opacity="1" stroke-opacity="1"/><path d="M714,333L669,467L834,519Z" fill="#30b0d4" stroke="#30b0d4" fill-opacity="1" stroke-opacity="1"/><path d="M714,333L834,519L1029,245Z" fill="#36b6d5" stroke="#36b6d5" fill-opacity="1" stroke-opacity="1"/><path d="M714,333L1029,245L807,187Z" fill="#64c8d0" stroke="#64c8d0" fill-opacity="1" stroke-opacity="1"/><path d="M1029,245L834,519L1015,499Z" fill="#279bce" stroke="#279bce" fill-opacity="1" stroke-opacity="1"/><path d="M1029,245L1015,499L1111,426Z" fill="#2f95c9" stroke="#2f95c9" fill-opacity="1" stroke-opacity="1"/><path d="M1029,245L1111,426L1130,263Z" fill="#4aa0c5" stroke="#4aa0c5" fill-opacity="1" stroke-opacity="1"/><path d="M1130,263L1111,426L1340,378Z" fill="#398dc2" stroke="#398dc2" fill-opacity="1" stroke-opacity="1"/><path d="M1130,263L1340,378L1359,291Z" fill="#498cb7" stroke="#498cb7" fill-opacity="1" stroke-opacity="1"/><path d="M1359,291L1340,378L1441,237Z" fill="#4486a5" stroke="#4486a5" fill-opacity="1" stroke-opacity="1"/><path d="M1441,237L1340,378L1556,456Z" fill="#28799d" stroke="#28799d" fill-opacity="1" stroke-opacity="1"/><path d="M1441,237L1556,456L1646,251Z" fill="#387a8a" stroke="#387a8a" fill-opacity="1" stroke-opacity="1"/><path d="M1646,251L1556,456L1788,519Z" fill="#1a5f77" stroke="#1a5f77" fill-opacity="1" stroke-opacity="1"/><path d="M-6,445L-52,705L173,557Z" fill="#93adc7" stroke="#93adc7" fill-opacity="1" stroke-opacity="1"/><path d="M-6,445L173,557L128,371Z" fill="#8dd0d2" stroke="#8dd0d2" fill-opacity="1" stroke-opacity="1"/><path d="M128,371L173,557L241,376Z" fill="#8ad5cc" stroke="#8ad5cc" fill-opacity="1" stroke-opacity="1"/><path d="M241,376L173,557L346,591Z" fill="#82bac1" stroke="#82bac1" fill-opacity="1" stroke-opacity="1"/><path d="M241,376L346,591L485,502Z" fill="#76bcc5" stroke="#76bcc5" fill-opacity="1" stroke-opacity="1"/><path d="M485,502L346,591L444,581Z" fill="#6aa0bc" stroke="#6aa0bc" fill-opacity="1" stroke-opacity="1"/><path d="M485,502L444,581L664,719Z" fill="#568cb9" stroke="#568cb9" fill-opacity="1" stroke-opacity="1"/><path d="M485,502L664,719L669,467Z" fill="#4892c0" stroke="#4892c0" fill-opacity="1" stroke-opacity="1"/><path d="M669,467L664,719L778,627Z" fill="#3880bd" stroke="#3880bd" fill-opacity="1" stroke-opacity="1"/><path d="M669,467L778,627L834,519Z" fill="#308dc5" stroke="#308dc5" fill-opacity="1" stroke-opacity="1"/><path d="M834,519L778,627L1049,717Z" fill="#2568b8" stroke="#2568b8" fill-opacity="1" stroke-opacity="1"/><path d="M834,519L1049,717L1015,499Z" fill="#2569b9" stroke="#2569b9" fill-opacity="1" stroke-opacity="1"/><path d="M1015,499L1049,717L1118,701Z" fill="#264da6" stroke="#264da6" fill-opacity="1" stroke-opacity="1"/><path d="M1015,499L1118,701L1111,426Z" fill="#2563b6" stroke="#2563b6" fill-opacity="1" stroke-opacity="1"/><path d="M1111,426L1118,701L1374,556Z" fill="#274fad" stroke="#274fad" fill-opacity="1" stroke-opacity="1"/><path d="M1111,426L1374,556L1340,378Z" fill="#226cb6" stroke="#226cb6" fill-opacity="1" stroke-opacity="1"/><path d="M1340,378L1374,556L1556,456Z" fill="#165f9c" stroke="#165f9c" fill-opacity="1" stroke-opacity="1"/><path d="M1556,456L1374,556L1605,693Z" fill="#15377c" stroke="#15377c" fill-opacity="1" stroke-opacity="1"/><path d="M1556,456L1605,693L1714,589Z" fill="#152d68" stroke="#152d68" fill-opacity="1" stroke-opacity="1"/><path d="M1556,456L1714,589L1788,519Z" fill="#143c66" stroke="#143c66" fill-opacity="1" stroke-opacity="1"/><path d="M1788,519L1714,589L1700,854Z" fill="#151a4b" stroke="#151a4b" fill-opacity="1" stroke-opacity="1"/><path d="M-52,705L-107,808L84,818Z" fill="#8e878a" stroke="#8e878a" fill-opacity="1" stroke-opacity="1"/><path d="M-52,705L84,818L173,557Z" fill="#8f92a1" stroke="#8f92a1" fill-opacity="1" stroke-opacity="1"/><path d="M173,557L84,818L322,763Z" fill="#878d8c" stroke="#878d8c" fill-opacity="1" stroke-opacity="1"/><path d="M173,557L322,763L346,591Z" fill="#8194ac" stroke="#8194ac" fill-opacity="1" stroke-opacity="1"/><path d="M346,591L322,763L483,728Z" fill="#718796" stroke="#718796" fill-opacity="1" stroke-opacity="1"/><path d="M346,591L483,728L444,581Z" fill="#6b8caf" stroke="#6b8caf" fill-opacity="1" stroke-opacity="1"/><path d="M444,581L483,728L664,719Z" fill="#537da0" stroke="#537da0" fill-opacity="1" stroke-opacity="1"/><path d="M664,719L483,728L605,789Z" fill="#466f86" stroke="#466f86" fill-opacity="1" stroke-opacity="1"/><path d="M664,719L605,789L694,909Z" fill="#37626f" stroke="#37626f" fill-opacity="1" stroke-opacity="1"/><path d="M664,719L694,909L824,847Z" fill="#2b5a69" stroke="#2b5a69" fill-opacity="1" stroke-opacity="1"/><path d="M664,719L824,847L778,627Z" fill="#2d658e" stroke="#2d658e" fill-opacity="1" stroke-opacity="1"/><path d="M778,627L824,847L909,788Z" fill="#245984" stroke="#245984" fill-opacity="1" stroke-opacity="1"/><path d="M778,627L909,788L1049,717Z" fill="#215793" stroke="#215793" fill-opacity="1" stroke-opacity="1"/><path d="M1049,717L909,788L1034,1035Z" fill="#1b3959" stroke="#1b3959" fill-opacity="1" stroke-opacity="1"/><path d="M1049,717L1034,1035L1190,812Z" fill="#1b2c53" stroke="#1b2c53" fill-opacity="1" stroke-opacity="1"/><path d="M1049,717L1190,812L1118,701Z" fill="#223679" stroke="#223679" fill-opacity="1" stroke-opacity="1"/><path d="M1118,701L1190,812L1374,556Z" fill="#253188" stroke="#253188" fill-opacity="1" stroke-opacity="1"/><path d="M1374,556L1190,812L1525,746Z" fill="#1b256d" stroke="#1b256d" fill-opacity="1" stroke-opacity="1"/><path d="M1374,556L1525,746L1605,693Z" fill="#142265" stroke="#142265" fill-opacity="1" stroke-opacity="1"/><path d="M1605,693L1525,746L1700,854Z" fill="#0f0c2c" stroke="#0f0c2c" fill-opacity="1" stroke-opacity="1"/><path d="M1605,693L1700,854L1714,589Z" fill="#121136" stroke="#121136" fill-opacity="1" stroke-opacity="1"/><path d="M-107,808L-7,919L84,818Z" fill="#8a806e" stroke="#8a806e" fill-opacity="1" stroke-opacity="1"/><path d="M84,818L-7,919L143,917Z" fill="#857e65" stroke="#857e65" fill-opacity="1" stroke-opacity="1"/><path d="M84,818L143,917L188,902Z" fill="#827d5d" stroke="#827d5d" fill-opacity="1" stroke-opacity="1"/><path d="M84,818L188,902L322,763Z" fill="#807b5e" stroke="#807b5e" fill-opacity="1" stroke-opacity="1"/><path d="M322,763L188,902L442,1003Z" fill="#70765a" stroke="#70765a" fill-opacity="1" stroke-opacity="1"/><path d="M322,763L442,1003L483,728Z" fill="#63705f" stroke="#63705f" fill-opacity="1" stroke-opacity="1"/><path d="M483,728L442,1003L605,789Z" fill="#4f695e" stroke="#4f695e" fill-opacity="1" stroke-opacity="1"/><path d="M605,789L442,1003L694,909Z" fill="#40645f" stroke="#40645f" fill-opacity="1" stroke-opacity="1"/><path d="M824,847L694,909L750,958Z" fill="#245762" stroke="#245762" fill-opacity="1" stroke-opacity="1"/><path d="M824,847L750,958L1034,1035Z" fill="#164b60" stroke="#164b60" fill-opacity="1" stroke-opacity="1"/><path d="M824,847L1034,1035L909,788Z" fill="#18445e" stroke="#18445e" fill-opacity="1" stroke-opacity="1"/><path d="M1190,812L1034,1035L1164,1022Z" fill="#172851" stroke="#172851" fill-opacity="1" stroke-opacity="1"/><path d="M1190,812L1164,1022L1300,979Z" fill="#191d4c" stroke="#191d4c" fill-opacity="1" stroke-opacity="1"/><path d="M1190,812L1300,979L1439,893Z" fill="#15163f" stroke="#15163f" fill-opacity="1" stroke-opacity="1"/><path d="M1190,812L1439,893L1525,746Z" fill="#13133d" stroke="#13133d" fill-opacity="1" stroke-opacity="1"/><path d="M1439,893L1300,979L1511,997Z" fill="#0a0f2d" stroke="#0a0f2d" fill-opacity="1" stroke-opacity="1"/><path d="M1439,893L1511,997L1700,854Z" fill="#070617" stroke="#070617" fill-opacity="1" stroke-opacity="1"/><path d="M1439,893L1700,854L1525,746Z" fill="#0c061a" stroke="#0c061a" fill-opacity="1" stroke-opacity="1"/><path d="M1700,854L1511,997L1643,1049Z" fill="#05020b" stroke="#05020b" fill-opacity="1" stroke-opacity="1"/><path d="M-7,919L442,1003L143,917Z" fill="#7b7c59" stroke="#7b7c59" fill-opacity="1" stroke-opacity="1"/><path d="M143,917L442,1003L188,902Z" fill="#747959" stroke="#747959" fill-opacity="1" stroke-opacity="1"/><path d="M442,1003L1034,1035L750,958Z" fill="#215862" stroke="#215862" fill-opacity="1" stroke-opacity="1"/><path d="M442,1003L750,958L694,909Z" fill="#346160" stroke="#346160" fill-opacity="1" stroke-opacity="1"/><path d="M1034,1035L1643,1049L1164,1022Z" fill="#111844" stroke="#111844" fill-opacity="1" stroke-opacity="1"/><path d="M1164,1022L1643,1049L1511,997Z" fill="#040e29" stroke="#040e29" fill-opacity="1" stroke-opacity="1"/><path d="M1164,1022L1511,997L1300,979Z" fill="#0f153d" stroke="#0f153d" fill-opacity="1" stroke-opacity="1"/></g></svg>