<svg width="1600" height="799" xmlns="http://www.w3.org/2000/svg"><g><path d="M-131,-89L-157,684L-78,324Z" fill="#e08a8d" stroke="#e08a8d" fill-opacity="1" stroke-opacity="1"/><path d="M-131,-89L-78,324L-39,164Z" fill="#e36c60" stroke="#e36c60" fill-opacity="1" stroke-opacity="1"/><path d="M-131,-89L-39,164L23,-123Z" fill="#e63555" stroke="#e63555" fill-opacity="1" stroke-opacity="1"/><path d="M23,-123L-39,164L170,70Z" fill="#ee5c5a" stroke="#ee5c5a" fill-opacity="1" stroke-opacity="1"/><path d="M23,-123L170,70L200,-142Z" fill="#f44056" stroke="#f44056" fill-opacity="1" stroke-opacity="1"/><path d="M23,-123L200,-142L383,-171Z" fill="#fa4254" stroke="#fa4254" fill-opacity="1" stroke-opacity="1"/><path d="M200,-142L170,70L230,18Z" fill="#fb5f5a" stroke="#fb5f5a" fill-opacity="1" stroke-opacity="1"/><path d="M200,-142L230,18L383,-171Z" fill="#fd4e5b" stroke="#fd4e5b" fill-opacity="1" stroke-opacity="1"/><path d="M383,-171L230,18L433,153Z" fill="#fe8269" stroke="#fe8269" fill-opacity="1" stroke-opacity="1"/><path d="M383,-171L433,153L551,80Z" fill="#fe9d76" stroke="#fe9d76" fill-opacity="1" stroke-opacity="1"/><path d="M383,-171L551,80L683,-70Z" fill="#fe857b" stroke="#fe857b" fill-opacity="1" stroke-opacity="1"/><path d="M383,-171L683,-70L858,-119Z" fill="#fe7d83" stroke="#fe7d83" fill-opacity="1" stroke-opacity="1"/><path d="M383,-171L858,-119L1225,-125Z" fill="#f77d7c" stroke="#f77d7c" fill-opacity="1" stroke-opacity="1"/><path d="M683,-70L551,80L837,108Z" fill="#feb590" stroke="#feb590" fill-opacity="1" stroke-opacity="1"/><path d="M683,-70L837,108L858,-119Z" fill="#f99784" stroke="#f99784" fill-opacity="1" stroke-opacity="1"/><path d="M858,-119L837,108L985,-11Z" fill="#f39d7d" stroke="#f39d7d" fill-opacity="1" stroke-opacity="1"/><path d="M858,-119L985,-11L1225,-125Z" fill="#df7576" stroke="#df7576" fill-opacity="1" stroke-opacity="1"/><path d="M985,-11L837,108L999,120Z" fill="#eebc7f" stroke="#eebc7f" fill-opacity="1" stroke-opacity="1"/><path d="M985,-11L999,120L1200,37Z" fill="#d9a97c" stroke="#d9a97c" fill-opacity="1" stroke-opacity="1"/><path d="M985,-11L1200,37L1225,-125Z" fill="#cd8378" stroke="#cd8378" fill-opacity="1" stroke-opacity="1"/><path d="M1225,-125L1200,37L1367,-3Z" fill="#b06f83" stroke="#b06f83" fill-opacity="1" stroke-opacity="1"/><path d="M1225,-125L1367,-3L1661,-78Z" fill="#8d458e" stroke="#8d458e" fill-opacity="1" stroke-opacity="1"/><path d="M1367,-3L1200,37L1417,92Z" fill="#a2828c" stroke="#a2828c" fill-opacity="1" stroke-opacity="1"/><path d="M1367,-3L1417,92L1561,-6Z" fill="#876896" stroke="#876896" fill-opacity="1" stroke-opacity="1"/><path d="M1367,-3L1561,-6L1661,-78Z" fill="#7f439a" stroke="#7f439a" fill-opacity="1" stroke-opacity="1"/><path d="M1561,-6L1417,92L1582,50Z" fill="#7f639e" stroke="#7f639e" fill-opacity="1" stroke-opacity="1"/><path d="M1561,-6L1582,50L1661,-78Z" fill="#7f3ea2" stroke="#7f3ea2" fill-opacity="1" stroke-opacity="1"/><path d="M1661,-78L1582,50L1769,7Z" fill="#7f34a8" stroke="#7f34a8" fill-opacity="1" stroke-opacity="1"/><path d="M-39,164L-78,324L23,400Z" fill="#e8998d" stroke="#e8998d" fill-opacity="1" stroke-opacity="1"/><path d="M-39,164L23,400L158,196Z" fill="#eea783" stroke="#eea783" fill-opacity="1" stroke-opacity="1"/><path d="M-39,164L158,196L170,70Z" fill="#f28f66" stroke="#f28f66" fill-opacity="1" stroke-opacity="1"/><path d="M170,70L158,196L357,206Z" fill="#feab6d" stroke="#feab6d" fill-opacity="1" stroke-opacity="1"/><path d="M170,70L357,206L230,18Z" fill="#fe9963" stroke="#fe9963" fill-opacity="1" stroke-opacity="1"/><path d="M230,18L357,206L433,153Z" fill="#feb371" stroke="#feb371" fill-opacity="1" stroke-opacity="1"/><path d="M433,153L357,206L391,276Z" fill="#fede8d" stroke="#fede8d" fill-opacity="1" stroke-opacity="1"/><path d="M433,153L391,276L579,303Z" fill="#fff09e" stroke="#fff09e" fill-opacity="1" stroke-opacity="1"/><path d="M433,153L579,303L551,80Z" fill="#ffe193" stroke="#ffe193" fill-opacity="1" stroke-opacity="1"/><path d="M551,80L579,303L837,108Z" fill="#ffe59e" stroke="#ffe59e" fill-opacity="1" stroke-opacity="1"/><path d="M837,108L579,303L881,194Z" fill="#fbf4a5" stroke="#fbf4a5" fill-opacity="1" stroke-opacity="1"/><path d="M837,108L881,194L999,120Z" fill="#f3d989" stroke="#f3d989" fill-opacity="1" stroke-opacity="1"/><path d="M999,120L881,194L1047,207Z" fill="#e8e190" stroke="#e8e190" fill-opacity="1" stroke-opacity="1"/><path d="M999,120L1047,207L1200,37Z" fill="#d7c682" stroke="#d7c682" fill-opacity="1" stroke-opacity="1"/><path d="M1200,37L1047,207L1120,290Z" fill="#d0d990" stroke="#d0d990" fill-opacity="1" stroke-opacity="1"/><path d="M1200,37L1120,290L1390,239Z" fill="#b7cb9b" stroke="#b7cb9b" fill-opacity="1" stroke-opacity="1"/><path d="M1200,37L1390,239L1417,92Z" fill="#a1a193" stroke="#a1a193" fill-opacity="1" stroke-opacity="1"/><path d="M1417,92L1390,239L1609,240Z" fill="#82a4b1" stroke="#82a4b1" fill-opacity="1" stroke-opacity="1"/><path d="M1417,92L1609,240L1582,50Z" fill="#8082a6" stroke="#8082a6" fill-opacity="1" stroke-opacity="1"/><path d="M1582,50L1609,240L1769,7Z" fill="#8063ac" stroke="#8063ac" fill-opacity="1" stroke-opacity="1"/><path d="M1769,7L1609,240L1708,318Z" fill="#807ec4" stroke="#807ec4" fill-opacity="1" stroke-opacity="1"/><path d="M1769,7L1708,318L1787,863Z" fill="#8083e7" stroke="#8083e7" fill-opacity="1" stroke-opacity="1"/><path d="M-78,324L-157,684L-22,466Z" fill="#d8907f" stroke="#d8907f" fill-opacity="1" stroke-opacity="1"/><path d="M-78,324L-22,466L23,400Z" fill="#e89a8e" stroke="#e89a8e" fill-opacity="1" stroke-opacity="1"/><path d="M158,196L23,400L274,477Z" fill="#f7b99a" stroke="#f7b99a" fill-opacity="1" stroke-opacity="1"/><path d="M158,196L274,477L391,276Z" fill="#fecf9d" stroke="#fecf9d" fill-opacity="1" stroke-opacity="1"/><path d="M158,196L391,276L357,206Z" fill="#fed387" stroke="#fed387" fill-opacity="1" stroke-opacity="1"/><path d="M391,276L274,477L540,484Z" fill="#ffe6a3" stroke="#ffe6a3" fill-opacity="1" stroke-opacity="1"/><path d="M391,276L540,484L579,303Z" fill="#fff3bb" stroke="#fff3bb" fill-opacity="1" stroke-opacity="1"/><path d="M579,303L540,484L634,373Z" fill="#fff8bd" stroke="#fff8bd" fill-opacity="1" stroke-opacity="1"/><path d="M579,303L634,373L881,194Z" fill="#ffffc3" stroke="#ffffc3" fill-opacity="1" stroke-opacity="1"/><path d="M881,194L634,373L846,458Z" fill="#fafdc9" stroke="#fafdc9" fill-opacity="1" stroke-opacity="1"/><path d="M881,194L846,458L972,437Z" fill="#f4fbbb" stroke="#f4fbbb" fill-opacity="1" stroke-opacity="1"/><path d="M881,194L972,437L1047,207Z" fill="#eaf7ad" stroke="#eaf7ad" fill-opacity="1" stroke-opacity="1"/><path d="M1047,207L972,437L1120,290Z" fill="#ddf1b5" stroke="#ddf1b5" fill-opacity="1" stroke-opacity="1"/><path d="M1120,290L972,437L1128,440Z" fill="#d8efb3" stroke="#d8efb3" fill-opacity="1" stroke-opacity="1"/><path d="M1120,290L1128,440L1331,428Z" fill="#c1e2b8" stroke="#c1e2b8" fill-opacity="1" stroke-opacity="1"/><path d="M1120,290L1331,428L1390,239Z" fill="#add3c2" stroke="#add3c2" fill-opacity="1" stroke-opacity="1"/><path d="M1390,239L1331,428L1656,367Z" fill="#85b5d8" stroke="#85b5d8" fill-opacity="1" stroke-opacity="1"/><path d="M1390,239L1656,367L1609,240Z" fill="#80a5d0" stroke="#80a5d0" fill-opacity="1" stroke-opacity="1"/><path d="M1609,240L1656,367L1708,318Z" fill="#8094e1" stroke="#8094e1" fill-opacity="1" stroke-opacity="1"/><path d="M1708,318L1656,367L1687,577Z" fill="#808fdd" stroke="#808fdd" fill-opacity="1" stroke-opacity="1"/><path d="M1708,318L1687,577L1787,863Z" fill="#5381da" stroke="#5381da" fill-opacity="1" stroke-opacity="1"/><path d="M-22,466L-157,684L79,653Z" fill="#b28c86" stroke="#b28c86" fill-opacity="1" stroke-opacity="1"/><path d="M-22,466L79,653L23,400Z" fill="#dda382" stroke="#dda382" fill-opacity="1" stroke-opacity="1"/><path d="M23,400L79,653L274,477Z" fill="#e4b484" stroke="#e4b484" fill-opacity="1" stroke-opacity="1"/><path d="M274,477L79,653L316,550Z" fill="#dcc585" stroke="#dcc585" fill-opacity="1" stroke-opacity="1"/><path d="M274,477L316,550L491,556Z" fill="#e8de94" stroke="#e8de94" fill-opacity="1" stroke-opacity="1"/><path d="M274,477L491,556L540,484Z" fill="#efec9d" stroke="#efec9d" fill-opacity="1" stroke-opacity="1"/><path d="M540,484L491,556L551,706Z" fill="#d4f0a8" stroke="#d4f0a8" fill-opacity="1" stroke-opacity="1"/><path d="M540,484L551,706L854,599Z" fill="#cdf2b9" stroke="#cdf2b9" fill-opacity="1" stroke-opacity="1"/><path d="M540,484L854,599L846,458Z" fill="#e9fdb4" stroke="#e9fdb4" fill-opacity="1" stroke-opacity="1"/><path d="M540,484L846,458L634,373Z" fill="#fffebd" stroke="#fffebd" fill-opacity="1" stroke-opacity="1"/><path d="M846,458L854,599L972,437Z" fill="#e7fba8" stroke="#e7fba8" fill-opacity="1" stroke-opacity="1"/><path d="M972,437L854,599L1021,570Z" fill="#d4f7a5" stroke="#d4f7a5" fill-opacity="1" stroke-opacity="1"/><path d="M972,437L1021,570L1128,440Z" fill="#d6f1a5" stroke="#d6f1a5" fill-opacity="1" stroke-opacity="1"/><path d="M1128,440L1021,570L1221,560Z" fill="#baeba3" stroke="#baeba3" fill-opacity="1" stroke-opacity="1"/><path d="M1128,440L1221,560L1331,428Z" fill="#b3dcac" stroke="#b3dcac" fill-opacity="1" stroke-opacity="1"/><path d="M1331,428L1221,560L1265,658Z" fill="#92d4ae" stroke="#92d4ae" fill-opacity="1" stroke-opacity="1"/><path d="M1331,428L1265,658L1504,644Z" fill="#72c2b8" stroke="#72c2b8" fill-opacity="1" stroke-opacity="1"/><path d="M1331,428L1504,644L1554,531Z" fill="#6bb4c0" stroke="#6bb4c0" fill-opacity="1" stroke-opacity="1"/><path d="M1331,428L1554,531L1656,367Z" fill="#80acc9" stroke="#80acc9" fill-opacity="1" stroke-opacity="1"/><path d="M1554,531L1504,644L1687,577Z" fill="#549acd" stroke="#549acd" fill-opacity="1" stroke-opacity="1"/><path d="M1554,531L1687,577L1656,367Z" fill="#7598d0" stroke="#7598d0" fill-opacity="1" stroke-opacity="1"/><path d="M-157,684L-5,1055L-35,789Z" fill="#6525a6" stroke="#6525a6" fill-opacity="1" stroke-opacity="1"/><path d="M-157,684L-35,789L79,653Z" fill="#78609c" stroke="#78609c" fill-opacity="1" stroke-opacity="1"/><path d="M79,653L-35,789L156,805Z" fill="#7062a8" stroke="#7062a8" fill-opacity="1" stroke-opacity="1"/><path d="M79,653L156,805L195,771Z" fill="#7772a8" stroke="#7772a8" fill-opacity="1" stroke-opacity="1"/><path d="M79,653L195,771L316,550Z" fill="#a89d97" stroke="#a89d97" fill-opacity="1" stroke-opacity="1"/><path d="M316,550L195,771L435,743Z" fill="#9ba6a7" stroke="#9ba6a7" fill-opacity="1" stroke-opacity="1"/><path d="M316,550L435,743L491,556Z" fill="#c2d5a3" stroke="#c2d5a3" fill-opacity="1" stroke-opacity="1"/><path d="M491,556L435,743L551,706Z" fill="#a6cab7" stroke="#a6cab7" fill-opacity="1" stroke-opacity="1"/><path d="M551,706L435,743L672,882Z" fill="#7fa3d0" stroke="#7fa3d0" fill-opacity="1" stroke-opacity="1"/><path d="M551,706L672,882L738,872Z" fill="#8098dc" stroke="#8098dc" fill-opacity="1" stroke-opacity="1"/><path d="M551,706L738,872L854,599Z" fill="#86c0d7" stroke="#86c0d7" fill-opacity="1" stroke-opacity="1"/><path d="M854,599L738,872L1005,886Z" fill="#76a4d0" stroke="#76a4d0" fill-opacity="1" stroke-opacity="1"/><path d="M854,599L1005,886L1089,725Z" fill="#69b2c7" stroke="#69b2c7" fill-opacity="1" stroke-opacity="1"/><path d="M854,599L1089,725L1021,570Z" fill="#a1dcb1" stroke="#a1dcb1" fill-opacity="1" stroke-opacity="1"/><path d="M1021,570L1089,725L1221,560Z" fill="#94d9ad" stroke="#94d9ad" fill-opacity="1" stroke-opacity="1"/><path d="M1221,560L1089,725L1265,658Z" fill="#73c3b7" stroke="#73c3b7" fill-opacity="1" stroke-opacity="1"/><path d="M1265,658L1089,725L1409,847Z" fill="#3491d1" stroke="#3491d1" fill-opacity="1" stroke-opacity="1"/><path d="M1265,658L1409,847L1454,743Z" fill="#187ade" stroke="#187ade" fill-opacity="1" stroke-opacity="1"/><path d="M1265,658L1454,743L1504,644Z" fill="#3091d2" stroke="#3091d2" fill-opacity="1" stroke-opacity="1"/><path d="M1504,644L1454,743L1787,863Z" fill="#0057f0" stroke="#0057f0" fill-opacity="1" stroke-opacity="1"/><path d="M1504,644L1787,863L1687,577Z" fill="#1861eb" stroke="#1861eb" fill-opacity="1" stroke-opacity="1"/><path d="M-35,789L-5,1055L67,914Z" fill="#6c21a7" stroke="#6c21a7" fill-opacity="1" stroke-opacity="1"/><path d="M-35,789L67,914L156,805Z" fill="#703ea9" stroke="#703ea9" fill-opacity="1" stroke-opacity="1"/><path d="M156,805L67,914L322,943Z" fill="#7a3fab" stroke="#7a3fab" fill-opacity="1" stroke-opacity="1"/><path d="M156,805L322,943L195,771Z" fill="#7e59ac" stroke="#7e59ac" fill-opacity="1" stroke-opacity="1"/><path d="M195,771L322,943L435,743Z" fill="#7f72b6" stroke="#7f72b6" fill-opacity="1" stroke-opacity="1"/><path d="M435,743L322,943L645,992Z" fill="#7f71c6" stroke="#7f71c6" fill-opacity="1" stroke-opacity="1"/><path d="M435,743L645,992L672,882Z" fill="#807ed4" stroke="#807ed4" fill-opacity="1" stroke-opacity="1"/><path d="M672,882L645,992L738,872Z" fill="#8080df" stroke="#8080df" fill-opacity="1" stroke-opacity="1"/><path d="M738,872L645,992L814,960Z" fill="#7d7fdb" stroke="#7d7fdb" fill-opacity="1" stroke-opacity="1"/><path d="M738,872L814,960L1005,886Z" fill="#777cd1" stroke="#777cd1" fill-opacity="1" stroke-opacity="1"/><path d="M1005,886L814,960L1049,1031Z" fill="#6c78cb" stroke="#6c78cb" fill-opacity="1" stroke-opacity="1"/><path d="M1005,886L1049,1031L1143,1000Z" fill="#5a70ca" stroke="#5a70ca" fill-opacity="1" stroke-opacity="1"/><path d="M1005,886L1143,1000L1089,725Z" fill="#5876ca" stroke="#5876ca" fill-opacity="1" stroke-opacity="1"/><path d="M1089,725L1143,1000L1409,847Z" fill="#3d6ad0" stroke="#3d6ad0" fill-opacity="1" stroke-opacity="1"/><path d="M1409,847L1143,1000L1418,988Z" fill="#244cda" stroke="#244cda" fill-opacity="1" stroke-opacity="1"/><path d="M1409,847L1418,988L1562,938Z" fill="#0535e6" stroke="#0535e6" fill-opacity="1" stroke-opacity="1"/><path d="M1409,847L1562,938L1454,743Z" fill="#0244e8" stroke="#0244e8" fill-opacity="1" stroke-opacity="1"/><path d="M1454,743L1562,938L1787,863Z" fill="#002df3" stroke="#002df3" fill-opacity="1" stroke-opacity="1"/><path d="M1787,863L1562,938L1681,1067Z" fill="#0011fa" stroke="#0011fa" fill-opacity="1" stroke-opacity="1"/><path d="M-5,1055L404,1059L322,943Z" fill="#7e49ae" stroke="#7e49ae" fill-opacity="1" stroke-opacity="1"/><path d="M-5,1055L322,943L67,914Z" fill="#7635aa" stroke="#7635aa" fill-opacity="1" stroke-opacity="1"/><path d="M322,943L404,1059L645,992Z" fill="#7f70c5" stroke="#7f70c5" fill-opacity="1" stroke-opacity="1"/><path d="M404,1059L1681,1067L1049,1031Z" fill="#5d72cb" stroke="#5d72cb" fill-opacity="1" stroke-opacity="1"/><path d="M404,1059L1049,1031L645,992Z" fill="#7f7fde" stroke="#7f7fde" fill-opacity="1" stroke-opacity="1"/><path d="M645,992L1049,1031L814,960Z" fill="#787cd2" stroke="#787cd2" fill-opacity="1" stroke-opacity="1"/><path d="M1049,1031L1681,1067L1418,988Z" fill="#1742df" stroke="#1742df" fill-opacity="1" stroke-opacity="1"/><path d="M1049,1031L1418,988L1143,1000Z" fill="#3f61cf" stroke="#3f61cf" fill-opacity="1" stroke-opacity="1"/><path d="M1418,988L1681,1067L1562,938Z" fill="#0026ef" stroke="#0026ef" fill-opacity="1" stroke-opacity="1"/></g></svg>